<?xml version="1.0" encoding="UTF-8" standalone="no"?>
<!DOCTYPE svg PUBLIC "-//W3C//DTD SVG 1.1//EN" "http://www.w3.org/Graphics/SVG/1.1/DTD/svg11.dtd">
<svg xmlns="http://www.w3.org/2000/svg" xmlns:xlink="http://www.w3.org/1999/xlink" version="1.1" width="65.406pt" height="60.606pt" viewBox="0 0 65.406 60.606">
<g enable-background="new">
<path transform="matrix(1,0,0,-1,6.957,49.963998)" stroke-width=".3985" stroke-linecap="butt" stroke-miterlimit="10" stroke-linejoin="miter" fill="none" stroke="#cbcbcb" d="M 4.89503 .67221 L 28.8807 15.93196 M 17.13263 -3.14348 L 41.1183 12.11626 M 29.37021 -6.95917 L 53.3559 8.30057 "/>
<path transform="matrix(1,0,0,-1,6.957,49.963998)" stroke-width=".3985" stroke-linecap="butt" stroke-miterlimit="10" stroke-linejoin="miter" fill="none" stroke="#cbcbcb" d="M 3.42651 4.37845 L 37.69177 -6.30548 M 11.99283 9.82835 L 46.25809 -.85558 M 20.55914 15.27827 L 54.8244 4.59431 "/>
<path transform="matrix(1,0,0,-1,6.957,49.963998)" stroke-width=".3985" stroke-linecap="butt" stroke-miterlimit="10" stroke-linejoin="miter" fill="none" stroke="#000000" d="M 0 2.19849 L 34.26526 -8.48544 "/>
<path transform="matrix(1,0,0,-1,6.957,49.963998)" stroke-width=".3985" stroke-linecap="butt" stroke-miterlimit="10" stroke-linejoin="miter" fill="none" stroke="#000000" d="M 23.98567 17.45824 L 58.25093 6.77428 "/>
<path transform="matrix(1,0,0,-1,6.957,49.963998)" stroke-width=".3985" stroke-linecap="butt" stroke-miterlimit="10" stroke-linejoin="miter" fill="none" stroke="#000000" d="M 0 2.19849 L 23.98567 17.45824 "/>
<path transform="matrix(1,0,0,-1,6.957,49.963998)" stroke-width=".3985" stroke-linecap="butt" stroke-miterlimit="10" stroke-linejoin="miter" fill="none" stroke="#000000" d="M 34.26526 -8.48544 L 58.25093 6.77428 "/>
<path transform="matrix(1,0,0,-1,6.957,49.963998)" stroke-width=".3985" stroke-linecap="butt" stroke-miterlimit="10" stroke-linejoin="miter" fill="none" stroke="#000000" d="M 23.98567 49.76547 L 58.25093 39.08153 "/>
<path transform="matrix(1,0,0,-1,6.957,49.963998)" stroke-width=".3985" stroke-linecap="butt" stroke-miterlimit="10" stroke-linejoin="miter" fill="none" stroke="#000000" d="M 0 34.50574 L 23.98567 49.76547 "/>
<path transform="matrix(1,0,0,-1,6.957,49.963998)" stroke-width=".3985" stroke-linecap="butt" stroke-miterlimit="10" stroke-linejoin="miter" fill="none" stroke="#cbcbcb" d="M 3.42651 4.37845 L 3.42651 36.6857 M 11.99283 9.82835 L 11.99283 42.1356 M 20.55914 15.27827 L 20.55914 47.58551 "/>
<path transform="matrix(1,0,0,-1,6.957,49.963998)" stroke-width=".3985" stroke-linecap="butt" stroke-miterlimit="10" stroke-linejoin="miter" fill="none" stroke="#cbcbcb" d="M 0 6.81381 L 23.98567 22.07355 M 0 18.35211 L 23.98567 33.61186 M 0 29.89041 L 23.98567 45.15016 "/>
<path transform="matrix(1,0,0,-1,6.957,49.963998)" stroke-width=".3985" stroke-linecap="butt" stroke-miterlimit="10" stroke-linejoin="miter" fill="none" stroke="#000000" d="M 0 2.19849 L 0 34.50574 "/>
<path transform="matrix(1,0,0,-1,6.957,49.963998)" stroke-width=".3985" stroke-linecap="butt" stroke-miterlimit="10" stroke-linejoin="miter" fill="none" stroke="#000000" d="M 23.98567 17.45824 L 23.98567 49.76547 "/>
<path transform="matrix(1,0,0,-1,6.957,49.963998)" stroke-width=".3985" stroke-linecap="butt" stroke-miterlimit="10" stroke-linejoin="miter" fill="none" stroke="#000000" d="M 58.25093 6.77428 L 58.25093 39.08153 "/>
<path transform="matrix(1,0,0,-1,6.957,49.963998)" stroke-width=".3985" stroke-linecap="butt" stroke-miterlimit="10" stroke-linejoin="miter" fill="none" stroke="#cbcbcb" d="M 28.8807 15.93196 L 28.8807 48.2392 M 41.1183 12.11626 L 41.1183 44.42351 M 53.3559 8.30057 L 53.3559 40.6078 "/>
<path transform="matrix(1,0,0,-1,6.957,49.963998)" stroke-width=".3985" stroke-linecap="butt" stroke-miterlimit="10" stroke-linejoin="miter" fill="none" stroke="#cbcbcb" d="M 23.98567 22.07355 L 58.25093 11.3896 M 23.98567 33.61186 L 58.25093 22.9279 M 23.98567 45.15016 L 58.25093 34.4662 "/>
<clipPath id="cp9">
<path transform="matrix(1,0,0,-1,6.957,49.963998)" d="M 58.25093 6.77428 L 58.25093 39.08153 L 23.98567 49.76547 L 0 34.50574 L 0 2.19849 L 34.26526 -8.48544 Z "/>
</clipPath>
<g clip-path="url(#cp9)">
<path transform="matrix(1,0,0,-1,6.957,49.963998)" stroke-width=".3985" stroke-linecap="butt" stroke-miterlimit="10" stroke-linejoin="miter" fill="none" stroke="#000000" d="M 18.74738 34.61267 L 22.27242 32.59767 L 25.79716 32.41414 "/>
<path transform="matrix(1,0,0,-1,6.957,49.963998)" stroke-width=".3985" stroke-linecap="butt" stroke-miterlimit="10" stroke-linejoin="miter" fill="none" stroke="#000000" d="M 18.74738 .1457 L 22.27242 -.03749 L 25.79716 -2.05202 "/>
<path transform="matrix(1,0,0,-1,6.957,49.963998)" stroke-width=".3985" stroke-linecap="butt" stroke-miterlimit="10" stroke-linejoin="miter" fill="none" stroke="#000000" d="M 17.40416 37.17099 L 20.86993 33.57399 L 23.98567 31.79294 L 27.10115 31.63072 L 30.56693 33.06645 "/>
<path transform="matrix(1,0,0,-1,6.957,49.963998)" stroke-width=".3985" stroke-linecap="butt" stroke-miterlimit="10" stroke-linejoin="miter" fill="none" stroke="#000000" d="M 17.40416 1.6734 L 20.86993 3.10913 L 23.98567 2.94719 L 27.10115 1.16658 L 30.56693 -2.4304 "/>
<path transform="matrix(1,0,0,-1,6.957,49.963998)" stroke-width=".3985" stroke-linecap="butt" stroke-miterlimit="10" stroke-linejoin="miter" fill="none" stroke="#000000" d="M 19.81227 36.17046 L 22.91216 32.95322 L 25.69894 31.3602 L 28.4855 31.21512 L 31.58537 32.49927 "/>
<path transform="matrix(1,0,0,-1,6.957,49.963998)" stroke-width=".3985" stroke-linecap="butt" stroke-miterlimit="10" stroke-linejoin="miter" fill="none" stroke="#000000" d="M 19.81227 4.42058 L 22.91216 5.70473 L 25.69894 5.55988 L 28.4855 3.96725 L 31.58537 .75002 "/>
<path transform="matrix(1,0,0,-1,6.957,49.963998)" stroke-width=".3985" stroke-linecap="butt" stroke-miterlimit="10" stroke-linejoin="miter" fill="none" stroke="#000000" d="M 18.51778 40.67545 L 21.98499 35.87819 L 24.84291 32.91203 L 27.4122 31.44336 L 29.98128 31.30959 L 32.83922 32.4935 L 36.30661 35.12886 "/>
<path transform="matrix(1,0,0,-1,6.957,49.963998)" stroke-width=".3985" stroke-linecap="butt" stroke-miterlimit="10" stroke-linejoin="miter" fill="none" stroke="#000000" d="M 18.51778 3.9712 L 21.98499 6.60632 L 24.84291 7.79025 L 27.4122 7.6567 L 29.98128 6.18839 L 32.83922 3.22223 L 36.30661 -1.57536 "/>
<path transform="matrix(1,0,0,-1,6.957,49.963998)" stroke-width=".3985" stroke-linecap="butt" stroke-miterlimit="10" stroke-linejoin="miter" fill="none" stroke="#000000" d="M 20.49655 41.13481 L 23.86026 36.48074 L 26.63287 33.60315 L 29.12546 32.17831 L 31.61784 32.04854 L 34.39047 33.19713 L 37.75436 35.75381 "/>
<path transform="matrix(1,0,0,-1,6.957,49.963998)" stroke-width=".3985" stroke-linecap="butt" stroke-miterlimit="10" stroke-linejoin="miter" fill="none" stroke="#000000" d="M 20.49655 5.52621 L 23.86026 8.08267 L 26.63287 9.23128 L 29.12546 9.1017 L 31.61784 7.67722 L 34.39047 4.79962 L 37.75436 .14522 "/>
<path transform="matrix(1,0,0,-1,6.957,49.963998)" stroke-width=".3985" stroke-linecap="butt" stroke-miterlimit="10" stroke-linejoin="miter" fill="none" stroke="#000000" d="M 21.9443 42.85541 L 25.41151 38.05815 L 28.26944 35.092 L 30.83873 33.62332 L 33.4078 33.48956 L 36.26575 34.67348 L 39.73312 37.30882 "/>
<path transform="matrix(1,0,0,-1,6.957,49.963998)" stroke-width=".3985" stroke-linecap="butt" stroke-miterlimit="10" stroke-linejoin="miter" fill="none" stroke="#000000" d="M 21.9443 6.15117 L 25.41151 8.78629 L 28.26944 9.97021 L 30.83873 9.83665 L 33.4078 8.36835 L 36.26575 5.40219 L 39.73312 .60458 "/>
<path transform="matrix(1,0,0,-1,6.957,49.963998)" stroke-width=".3985" stroke-linecap="butt" stroke-miterlimit="10" stroke-linejoin="miter" fill="none" stroke="#000000" d="M 26.66533 40.53038 L 29.76521 37.31314 L 32.55199 35.72012 L 35.33856 35.57504 L 38.43842 36.85919 "/>
<path transform="matrix(1,0,0,-1,6.957,49.963998)" stroke-width=".3985" stroke-linecap="butt" stroke-miterlimit="10" stroke-linejoin="miter" fill="none" stroke="#000000" d="M 26.66533 8.7805 L 29.76521 10.06467 L 32.55199 9.9198 L 35.33856 8.32718 L 38.43842 5.10994 "/>
<path transform="matrix(1,0,0,-1,6.957,49.963998)" stroke-width=".3985" stroke-linecap="butt" stroke-miterlimit="10" stroke-linejoin="miter" fill="none" stroke="#000000" d="M 27.68373 43.71088 L 31.14952 40.11388 L 34.26526 38.33282 L 37.38074 38.17061 L 40.84651 39.60634 "/>
<path transform="matrix(1,0,0,-1,6.957,49.963998)" stroke-width=".3985" stroke-linecap="butt" stroke-miterlimit="10" stroke-linejoin="miter" fill="none" stroke="#000000" d="M 27.68373 8.21329 L 31.14952 9.64902 L 34.26526 9.48708 L 37.38074 7.70647 L 40.84651 4.10947 "/>
<path transform="matrix(1,0,0,-1,6.957,49.963998)" stroke-width=".3985" stroke-linecap="butt" stroke-miterlimit="10" stroke-linejoin="miter" fill="none" stroke="#000000" d="M 32.45348 43.33253 L 35.97852 41.31752 L 39.50328 41.13399 "/>
<path transform="matrix(1,0,0,-1,6.957,49.963998)" stroke-width=".3985" stroke-linecap="butt" stroke-miterlimit="10" stroke-linejoin="miter" fill="none" stroke="#000000" d="M 32.45348 8.86555 L 35.97852 8.68234 L 39.50328 6.66782 "/>
</g>
<text xml:space="preserve" transform="matrix(.625 0 -0 .625 7.5255005 59.827875)" font-size="9.96264" font-family="CMMI10" font-style="italic"><tspan y="-2.075" x="20.068">x</tspan></text>
<text xml:space="preserve" transform="matrix(.625 0 -0 .625 20.578873 58.89487)" font-size="9.96264" font-family="CMMI10" font-style="italic"><tspan y="-4.563" x="54.877">y</tspan></text>
<text xml:space="preserve" transform="matrix(0 -.625 .625 0 21.59225 36.6405)" font-size="9.96264" font-family="CMMI10" font-style="italic"><tspan y="-26.938" x="4.756">z</tspan></text>
</g>
</svg>
