<?xml version="1.0" encoding="UTF-8" standalone="no"?>
<!DOCTYPE svg PUBLIC "-//W3C//DTD SVG 1.1//EN" "http://www.w3.org/Graphics/SVG/1.1/DTD/svg11.dtd">
<svg xmlns="http://www.w3.org/2000/svg" xmlns:xlink="http://www.w3.org/1999/xlink" version="1.1" width="65.406pt" height="60.606pt" viewBox="0 0 65.406 60.606">
<g enable-background="new">
<path transform="matrix(1,0,0,-1,6.957,49.560998)" stroke-width=".3985" stroke-linecap="butt" stroke-miterlimit="10" stroke-linejoin="miter" fill="none" stroke="#cbcbcb" d="M 4.89503 .26837 L 28.8807 15.5281 M 17.13263 -3.54732 L 41.1183 11.71242 M 29.37021 -7.363 L 53.3559 7.89671 "/>
<path transform="matrix(1,0,0,-1,6.957,49.560998)" stroke-width=".3985" stroke-linecap="butt" stroke-miterlimit="10" stroke-linejoin="miter" fill="none" stroke="#cbcbcb" d="M 3.42651 3.97461 L 37.69177 -6.70932 M 11.99283 9.42451 L 46.25809 -1.25941 M 20.55914 14.87444 L 54.8244 4.19048 "/>
<path transform="matrix(1,0,0,-1,6.957,49.560998)" stroke-width=".3985" stroke-linecap="butt" stroke-miterlimit="10" stroke-linejoin="miter" fill="none" stroke="#000000" d="M 0 1.79465 L 34.26526 -8.88928 "/>
<path transform="matrix(1,0,0,-1,6.957,49.560998)" stroke-width=".3985" stroke-linecap="butt" stroke-miterlimit="10" stroke-linejoin="miter" fill="none" stroke="#000000" d="M 23.98567 17.0544 L 58.25093 6.37044 "/>
<path transform="matrix(1,0,0,-1,6.957,49.560998)" stroke-width=".3985" stroke-linecap="butt" stroke-miterlimit="10" stroke-linejoin="miter" fill="none" stroke="#000000" d="M 0 1.79465 L 23.98567 17.0544 "/>
<path transform="matrix(1,0,0,-1,6.957,49.560998)" stroke-width=".3985" stroke-linecap="butt" stroke-miterlimit="10" stroke-linejoin="miter" fill="none" stroke="#000000" d="M 34.26526 -8.88928 L 58.25093 6.37044 "/>
<path transform="matrix(1,0,0,-1,6.957,49.560998)" stroke-width=".3985" stroke-linecap="butt" stroke-miterlimit="10" stroke-linejoin="miter" fill="none" stroke="#000000" d="M 23.98567 49.36163 L 58.25093 38.67769 "/>
<path transform="matrix(1,0,0,-1,6.957,49.560998)" stroke-width=".3985" stroke-linecap="butt" stroke-miterlimit="10" stroke-linejoin="miter" fill="none" stroke="#000000" d="M 0 34.1019 L 23.98567 49.36163 "/>
<path transform="matrix(1,0,0,-1,6.957,49.560998)" stroke-width=".3985" stroke-linecap="butt" stroke-miterlimit="10" stroke-linejoin="miter" fill="none" stroke="#cbcbcb" d="M 3.42651 3.97461 L 3.42651 36.28186 M 11.99283 9.42451 L 11.99283 41.73177 M 20.55914 14.87444 L 20.55914 47.18167 "/>
<path transform="matrix(1,0,0,-1,6.957,49.560998)" stroke-width=".3985" stroke-linecap="butt" stroke-miterlimit="10" stroke-linejoin="miter" fill="none" stroke="#cbcbcb" d="M 0 6.40997 L 23.98567 21.66971 M 0 17.94827 L 23.98567 33.20801 M 0 29.48657 L 23.98567 44.74632 "/>
<path transform="matrix(1,0,0,-1,6.957,49.560998)" stroke-width=".3985" stroke-linecap="butt" stroke-miterlimit="10" stroke-linejoin="miter" fill="none" stroke="#000000" d="M 0 1.79465 L 0 34.1019 "/>
<path transform="matrix(1,0,0,-1,6.957,49.560998)" stroke-width=".3985" stroke-linecap="butt" stroke-miterlimit="10" stroke-linejoin="miter" fill="none" stroke="#000000" d="M 23.98567 17.0544 L 23.98567 49.36163 "/>
<path transform="matrix(1,0,0,-1,6.957,49.560998)" stroke-width=".3985" stroke-linecap="butt" stroke-miterlimit="10" stroke-linejoin="miter" fill="none" stroke="#000000" d="M 58.25093 6.37044 L 58.25093 38.67769 "/>
<path transform="matrix(1,0,0,-1,6.957,49.560998)" stroke-width=".3985" stroke-linecap="butt" stroke-miterlimit="10" stroke-linejoin="miter" fill="none" stroke="#cbcbcb" d="M 28.8807 15.5281 L 28.8807 47.83536 M 41.1183 11.71242 L 41.1183 44.01967 M 53.3559 7.89671 L 53.3559 40.20396 "/>
<path transform="matrix(1,0,0,-1,6.957,49.560998)" stroke-width=".3985" stroke-linecap="butt" stroke-miterlimit="10" stroke-linejoin="miter" fill="none" stroke="#cbcbcb" d="M 23.98567 21.66971 L 58.25093 10.98576 M 23.98567 33.20801 L 58.25093 22.52406 M 23.98567 44.74632 L 58.25093 34.06236 "/>
<clipPath id="cp5">
<path transform="matrix(1,0,0,-1,6.957,49.560998)" d="M 58.25093 6.37044 L 58.25093 38.67769 L 23.98567 49.36163 L 0 34.1019 L 0 1.79465 L 34.26526 -8.88928 Z "/>
</clipPath>
<g clip-path="url(#cp5)">
<path transform="matrix(1,0,0,-1,6.957,49.560998)" stroke-width=".3985" stroke-linecap="butt" stroke-miterlimit="10" stroke-linejoin="miter" fill="none" stroke="#000000" d="M -184.63996 448.85017 L -121.07791 329.27006 L -75.51025 243.60631 L -42.83475 182.26764 L -19.38243 138.36597 L -2.52258 106.97711 L 9.63446 84.58278 L 18.45319 68.66922 L 24.92091 57.45699 L 29.76302 49.68448 L 33.52426 44.48157 L 36.62456 41.26459 L 39.41171 39.67166 L 42.19867 39.52649 L 45.29895 40.81036 L 49.0604 43.66829 L 53.90201 48.42099 L 60.37001 55.60081 L 69.18895 66.01593 L 81.34602 80.83002 L 98.20502 101.70535 L 121.65817 130.98494 L 154.3337 171.94963 L 199.89934 229.1983 L 263.45838 309.1423 "/>
<path transform="matrix(1,0,0,-1,6.957,49.560998)" stroke-width=".3985" stroke-linecap="butt" stroke-miterlimit="10" stroke-linejoin="miter" fill="none" stroke="#000000" d="M 33.51837 12.73659 L 36.61826 14.02075 L 39.40504 13.8759 L 42.1916 12.28328 L 45.29147 9.06604 "/>
<path transform="matrix(1,0,0,-1,6.957,49.560998)" stroke-width=".79701" stroke-linecap="butt" stroke-miterlimit="10" stroke-linejoin="miter" fill="none" stroke="#008060" d="M 24.55672 10.20915 L 25.98444 12.00726 L 27.41214 13.80583 L 28.83984 15.60417 L 30.26756 17.40251 L 31.69528 19.20082 L 33.12299 20.99925 L 34.5507 22.79764 L 35.97841 24.596 L 37.40611 26.39433 L 38.83383 28.19272 L 40.26154 29.99112 L 41.68924 31.78929 L 43.11697 33.58786 L 44.54468 35.38599 L 45.97238 37.18456 L 47.4001 38.9829 "/>
<path transform="matrix(1,0,0,-1,6.957,49.560998)" stroke-width=".79701" stroke-linecap="butt" stroke-miterlimit="10" stroke-linejoin="miter" fill="none" stroke="#008060" d="M 18.84955 56.85468 L 20.27747 54.16623 L 21.70538 51.47777 L 23.1333 48.7893 L 24.5612 46.10086 L 25.9891 43.4124 L 27.41704 40.72397 L 28.84494 38.0355 L 30.27286 35.34706 L 31.70078 32.6586 L 33.1287 29.97014 L 34.5566 27.2817 L 35.98451 24.59323 L 37.41243 21.90479 L 38.84035 19.21632 L 40.26825 16.52788 L 41.69618 13.83943 L 43.12408 11.15097 L 44.552 8.46252 L 45.9799 5.77406 L 47.40784 3.08562 L 48.83574 .39716 L 50.26366 -2.29128 L 51.69157 -4.97974 L 53.11948 -7.66818 "/>
<path transform="matrix(1,0,0,-1,6.957,49.560998)" stroke-width=".3985" stroke-linecap="butt" stroke-miterlimit="10" stroke-linejoin="miter" fill="none" stroke="#000000" d="M 206.22307 -304.37864 L 157.03432 -211.69446 L 121.8021 -145.2589 L 96.58167 -97.6331 L 78.54085 -63.4694 L 65.65613 -38.93562 L 56.48329 -21.28189 L 49.99265 -8.5268 L 45.4586 .75732 L 42.37067 7.61241 L 40.38353 12.80899 L 39.27396 16.92769 L 38.91699 20.43068 L 39.2738 23.71089 L 40.38338 27.13774 L 42.37067 31.09549 L 45.45824 36.02469 L 49.9925 42.48203 L 56.48329 51.19025 L 65.65613 63.1245 L 78.5402 79.62354 L 96.58167 102.53914 L 121.8021 134.43936 L 157.03276 178.90482 L 206.21929 240.91562 "/>
<path transform="matrix(1,0,0,-1,6.957,49.560998)" stroke-width=".3985" stroke-linecap="butt" stroke-miterlimit="10" stroke-linejoin="miter" fill="none" stroke="#000000" d="M -141.1084 -196.09375 L -91.91966 -134.07999 L -56.68742 -89.61256 L -31.46701 -57.71236 L -13.42618 -34.79755 L -.54146 -18.2977 L 8.63136 -6.36346 L 15.12201 2.34453 L 19.65604 8.80159 L 22.74397 13.7313 L 24.73112 17.68883 L 25.8407 21.11568 L 26.19765 24.3961 L 25.84085 27.89879 L 24.73128 32.01747 L 22.74397 37.21436 L 19.6564 44.06873 L 15.12216 53.35327 L 8.63136 66.10869 L -.54146 83.7624 L -13.42554 108.295 L -31.46701 142.45989 L -56.68742 190.08567 L -91.91812 256.51835 L -141.10462 349.19816 "/>
<path transform="matrix(1,0,0,-1,6.957,49.560998)" stroke-width=".3985" stroke-linecap="butt" stroke-miterlimit="10" stroke-linejoin="miter" fill="none" stroke="#000000" d="M 229.66326 -357.11576 L 172.86466 -250.09264 L 132.18175 -173.37895 L 103.05952 -118.3851 L 82.22765 -78.936 L 67.34956 -50.60664 L 56.75761 -30.22176 L 49.26282 -15.49333 L 44.02734 -4.77289 L 40.46169 3.14275 L 38.16711 9.14326 L 36.88588 13.89915 L 36.4737 17.94409 L 36.8857 21.73178 L 38.16693 25.68878 L 40.46169 30.25882 L 44.02692 35.9506 L 49.26263 43.40695 L 56.75761 53.46242 L 67.34956 67.24298 L 82.22691 86.29454 L 103.05952 112.75537 L 132.18175 149.59082 L 172.86286 200.93544 L 229.65889 272.5398 "/>
<path transform="matrix(1,0,0,-1,6.957,49.560998)" stroke-width=".3985" stroke-linecap="butt" stroke-miterlimit="10" stroke-linejoin="miter" fill="none" stroke="#000000" d="M -171.40299 -232.07842 L -114.60439 -160.47061 L -73.92145 -109.12375 L -44.79924 -72.2883 L -23.96738 -45.8284 L -9.08928 -26.7759 L 1.50264 -12.99533 L 8.99744 -2.94011 L 14.23293 4.5159 L 17.79857 10.20824 L 20.09314 14.77805 L 21.37439 18.73505 L 21.78658 22.52296 L 21.37457 26.56757 L 20.09332 31.32344 L 17.79857 37.32433 L 14.23337 45.23912 L 8.99762 55.96005 L 1.50264 70.68883 L -9.08928 91.07372 L -23.96664 119.4017 L -44.79924 158.85218 L -73.92145 213.84603 L -114.60258 290.55635 L -171.39862 397.57444 "/>
<path transform="matrix(1,0,0,-1,6.957,49.560998)" stroke-width=".3985" stroke-linecap="butt" stroke-miterlimit="10" stroke-linejoin="miter" fill="none" stroke="#000000" d="M 199.36869 -308.73835 L 150.17995 -216.05417 L 114.94771 -149.61859 L 89.72728 -101.99281 L 71.68646 -67.82912 L 58.80173 -43.29533 L 49.6289 -25.6416 L 43.13824 -12.88649 L 38.60423 -3.60237 L 35.5163 3.25272 L 33.52914 8.44928 L 32.41957 12.56798 L 32.0626 16.07098 L 32.41942 19.35118 L 33.52899 22.77803 L 35.5163 26.73578 L 38.60385 31.66498 L 43.13809 38.12231 L 49.6289 46.83055 L 58.80173 58.76479 L 71.68584 75.26381 L 89.72728 98.17943 L 114.94771 130.07965 L 150.17839 174.5451 L 199.3649 236.55591 "/>
<path transform="matrix(1,0,0,-1,6.957,49.560998)" stroke-width=".3985" stroke-linecap="butt" stroke-miterlimit="10" stroke-linejoin="miter" fill="none" stroke="#000000" d="M -147.9628 -200.45346 L -98.77405 -138.4397 L -63.54181 -93.97229 L -38.32138 -62.07205 L -20.28058 -39.15726 L -7.39584 -22.65741 L 1.77698 -10.72318 L 8.26762 -2.01515 L 12.80165 4.4419 L 15.88959 9.37157 L 17.87672 13.32912 L 18.98631 16.75597 L 19.34326 20.03638 L 18.98645 23.53908 L 17.87688 27.65778 L 15.88959 32.85464 L 12.80203 39.709 L 8.26778 48.99356 L 1.77698 61.74896 L -7.39584 79.4027 L -20.27994 103.93529 L -38.32138 138.10019 L -63.54181 185.72597 L -98.77249 252.15862 L -147.95902 344.8384 "/>
<path transform="matrix(1,0,0,-1,6.957,49.560998)" stroke-width=".79701" stroke-linecap="butt" stroke-miterlimit="10" stroke-linejoin="miter" fill="none" stroke="#008060" d="M 5.14078 -5.70354 L 6.5687 -3.90541 L 7.99661 -2.10728 L 9.42451 -.30919 L 10.85245 1.48892 L 12.28035 3.28702 L 13.70827 5.08514 L 15.13617 6.88326 L 16.5641 8.68137 L 17.992 10.47948 L 19.4199 12.2776 L 20.84784 14.07571 L 22.27574 15.87383 L 23.70366 17.67194 L 25.13156 19.47005 L 26.5595 21.26817 L 27.9874 23.06627 L 29.41531 24.8644 L 30.84323 26.6625 L 32.27115 28.46062 L 33.69905 30.25874 L 35.12697 32.05684 L 36.55489 33.85497 L 37.9828 35.65308 L 39.4107 37.45119 "/>
<path transform="matrix(1,0,0,-1,6.957,49.560998)" stroke-width=".79701" stroke-linecap="butt" stroke-miterlimit="10" stroke-linejoin="miter" fill="none" stroke="#008060" d="M 5.14078 48.13527 L 6.5687 45.44681 L 7.99661 42.75835 L 9.42451 40.0699 L 10.85245 37.38144 L 12.28035 34.693 L 13.70827 32.00453 L 15.13617 29.3161 L 16.5641 26.62764 L 17.992 23.9392 L 19.4199 21.25073 L 20.84784 18.56227 L 22.27574 15.87383 L 23.70366 13.18536 L 25.13156 10.49692 L 26.5595 7.80846 L 27.9874 5.12003 L 29.41531 2.43156 L 30.84323 -.25688 L 32.27115 -2.94533 L 33.69905 -5.63379 L 35.12697 -8.32224 L 36.55489 -11.0107 L 37.9828 -13.69914 L 39.4107 -16.3876 "/>
<path transform="matrix(1,0,0,-1,6.957,49.560998)" stroke-width=".3985" stroke-linecap="butt" stroke-miterlimit="10" stroke-linejoin="miter" fill="none" stroke="#000000" d="M 9.19852 36.61009 L 12.95923 31.40671 L 16.0591 28.18947 L 18.84589 26.59645 L 21.63245 26.45135 L 24.73232 27.73552 L 28.49324 30.59396 "/>
<path transform="matrix(1,0,0,-1,6.957,49.560998)" stroke-width=".3985" stroke-linecap="butt" stroke-miterlimit="10" stroke-linejoin="miter" fill="none" stroke="#000000" d="M -205.20311 -268.68135 L -141.64107 -188.73374 L -96.07343 -131.48256 L -63.3979 -90.51787 L -39.94557 -61.23929 L -23.08574 -40.36295 L -10.92868 -25.54886 L -2.10995 -15.13399 L 4.35776 -7.95451 L 9.19986 -3.2012 L 12.9611 -.34352 L 16.0614 .94032 L 18.84856 .7954 L 21.63551 -.79713 L 24.7358 -4.01411 L 28.49724 -9.2174 L 33.33885 -16.98898 L 39.80685 -28.20177 L 48.6258 -44.1157 L 60.78287 -66.51001 L 77.64186 -97.89734 L 101.09502 -141.80055 L 133.77056 -203.13924 L 179.33618 -288.79924 L 242.89522 -408.37385 "/>
</g>
<text xml:space="preserve" transform="matrix(.625 0 -0 .625 7.5255005 59.827875)" font-size="9.96264" font-family="CMMI10" font-style="italic"><tspan y="-2.075" x="20.068">x</tspan></text>
<text xml:space="preserve" transform="matrix(.625 0 -0 .625 20.578873 58.89487)" font-size="9.96264" font-family="CMMI10" font-style="italic"><tspan y="-4.563" x="54.877">y</tspan></text>
<text xml:space="preserve" transform="matrix(0 -.625 .625 0 21.59225 36.6405)" font-size="9.96264" font-family="CMMI10" font-style="italic"><tspan y="-26.938" x="4.756">z</tspan></text>
</g>
</svg>
