<?xml version="1.0" encoding="UTF-8" standalone="no"?>
<!DOCTYPE svg PUBLIC "-//W3C//DTD SVG 1.1//EN" "http://www.w3.org/Graphics/SVG/1.1/DTD/svg11.dtd">
<svg xmlns="http://www.w3.org/2000/svg" xmlns:xlink="http://www.w3.org/1999/xlink" version="1.1" width="65.406pt" height="60.606pt" viewBox="0 0 65.406 60.606">
<g enable-background="new">
<path transform="matrix(1,0,0,-1,6.957,47.766)" stroke-width=".3985" stroke-linecap="butt" stroke-miterlimit="10" stroke-linejoin="miter" fill="none" stroke="#cbcbcb" d="M 4.89503 -1.52628 L 28.8807 13.73346 M 17.13263 -5.34196 L 41.1183 9.91777 M 29.37021 -9.15767 L 53.3559 6.10207 "/>
<path transform="matrix(1,0,0,-1,6.957,47.766)" stroke-width=".3985" stroke-linecap="butt" stroke-miterlimit="10" stroke-linejoin="miter" fill="none" stroke="#cbcbcb" d="M 3.42651 2.17996 L 37.69177 -8.50398 M 11.99283 7.62987 L 46.25809 -3.05408 M 20.55914 13.07977 L 54.8244 2.39583 "/>
<path transform="matrix(1,0,0,-1,6.957,47.766)" stroke-width=".3985" stroke-linecap="butt" stroke-miterlimit="10" stroke-linejoin="miter" fill="none" stroke="#000000" d="M 0 0 L 34.26526 -10.68394 "/>
<path transform="matrix(1,0,0,-1,6.957,47.766)" stroke-width=".3985" stroke-linecap="butt" stroke-miterlimit="10" stroke-linejoin="miter" fill="none" stroke="#000000" d="M 23.98567 15.25974 L 58.25093 4.57579 "/>
<path transform="matrix(1,0,0,-1,6.957,47.766)" stroke-width=".3985" stroke-linecap="butt" stroke-miterlimit="10" stroke-linejoin="miter" fill="none" stroke="#000000" d="M 0 0 L 23.98567 15.25974 "/>
<path transform="matrix(1,0,0,-1,6.957,47.766)" stroke-width=".3985" stroke-linecap="butt" stroke-miterlimit="10" stroke-linejoin="miter" fill="none" stroke="#000000" d="M 34.26526 -10.68394 L 58.25093 4.57579 "/>
<path transform="matrix(1,0,0,-1,6.957,47.766)" stroke-width=".3985" stroke-linecap="butt" stroke-miterlimit="10" stroke-linejoin="miter" fill="none" stroke="#000000" d="M 23.98567 47.56699 L 58.25093 36.88303 "/>
<path transform="matrix(1,0,0,-1,6.957,47.766)" stroke-width=".3985" stroke-linecap="butt" stroke-miterlimit="10" stroke-linejoin="miter" fill="none" stroke="#000000" d="M 0 32.30724 L 23.98567 47.56699 "/>
<path transform="matrix(1,0,0,-1,6.957,47.766)" stroke-width=".3985" stroke-linecap="butt" stroke-miterlimit="10" stroke-linejoin="miter" fill="none" stroke="#cbcbcb" d="M 3.42651 2.17996 L 3.42651 34.4872 M 11.99283 7.62987 L 11.99283 39.9371 M 20.55914 13.07977 L 20.55914 45.38702 "/>
<path transform="matrix(1,0,0,-1,6.957,47.766)" stroke-width=".3985" stroke-linecap="butt" stroke-miterlimit="10" stroke-linejoin="miter" fill="none" stroke="#cbcbcb" d="M 0 4.61531 L 23.98567 19.87506 M 0 16.15361 L 23.98567 31.41336 M 0 27.69191 L 23.98567 42.95166 "/>
<path transform="matrix(1,0,0,-1,6.957,47.766)" stroke-width=".3985" stroke-linecap="butt" stroke-miterlimit="10" stroke-linejoin="miter" fill="none" stroke="#000000" d="M 0 0 L 0 32.30724 "/>
<path transform="matrix(1,0,0,-1,6.957,47.766)" stroke-width=".3985" stroke-linecap="butt" stroke-miterlimit="10" stroke-linejoin="miter" fill="none" stroke="#000000" d="M 23.98567 15.25974 L 23.98567 47.56699 "/>
<path transform="matrix(1,0,0,-1,6.957,47.766)" stroke-width=".3985" stroke-linecap="butt" stroke-miterlimit="10" stroke-linejoin="miter" fill="none" stroke="#000000" d="M 58.25093 4.57579 L 58.25093 36.88303 "/>
<path transform="matrix(1,0,0,-1,6.957,47.766)" stroke-width=".3985" stroke-linecap="butt" stroke-miterlimit="10" stroke-linejoin="miter" fill="none" stroke="#cbcbcb" d="M 28.8807 13.73346 L 28.8807 46.04071 M 41.1183 9.91777 L 41.1183 42.225 M 53.3559 6.10207 L 53.3559 38.40932 "/>
<path transform="matrix(1,0,0,-1,6.957,47.766)" stroke-width=".3985" stroke-linecap="butt" stroke-miterlimit="10" stroke-linejoin="miter" fill="none" stroke="#cbcbcb" d="M 23.98567 19.87506 L 58.25093 9.1911 M 23.98567 31.41336 L 58.25093 20.72942 M 23.98567 42.95166 L 58.25093 32.26772 "/>
<clipPath id="cp4">
<path transform="matrix(1,0,0,-1,6.957,47.766)" d="M 58.25093 4.57579 L 58.25093 36.88303 L 23.98567 47.56699 L 0 32.30724 L 0 0 L 34.26526 -10.68394 Z "/>
</clipPath>
<g clip-path="url(#cp4)">
<path transform="matrix(1,0,0,-1,6.957,47.766)" stroke-width=".3985" stroke-linecap="butt" stroke-miterlimit="10" stroke-linejoin="miter" fill="none" stroke="#000000" d="M 40.92284 9.78815 L 43.79108 8.51314 L 45.66011 6.81383 L 46.40247 4.80598 L 45.96815 2.62659 L 44.38617 .42409 L 41.76443 -1.65144 L 38.2818 -3.45857 L 34.17548 -4.8741 L 29.72522 -5.80148 L 25.23445 -6.17781 L 21.00922 -5.97717 L 17.33743 -5.21326 L 14.46921 -3.93823 L 12.60016 -2.23892 L 11.85779 -.2311 L 12.2921 1.94829 L 13.8741 4.15082 L 16.49582 6.22635 L 19.97847 8.03348 L 24.08481 9.44899 L 28.53503 10.37639 L 33.02582 10.75273 L 37.25104 10.55206 L 40.92284 9.78815 "/>
<path transform="matrix(1,0,0,-1,6.957,47.766)" stroke-width=".3985" stroke-linecap="butt" stroke-miterlimit="10" stroke-linejoin="miter" fill="none" stroke="#000000" d="M 38.5061 13.63504 L 40.78654 12.6213 L 42.27255 11.27025 L 42.86278 9.67389 L 42.51747 7.94113 L 41.2597 6.18997 L 39.17523 4.5398 L 36.40631 3.10301 L 33.14151 1.97757 L 29.60327 1.24023 L 26.0328 .94101 L 22.67346 1.10056 L 19.75415 1.70792 L 17.47372 2.72165 L 15.9877 4.07271 L 15.39748 5.66905 L 15.74278 7.40184 L 17.00058 9.15298 L 19.08502 10.80316 L 21.85394 12.23996 L 25.11876 13.36539 L 28.65698 14.10274 L 32.22746 14.40193 L 35.58679 14.2424 L 38.5061 13.63504 "/>
<path transform="matrix(1,0,0,-1,6.957,47.766)" stroke-width=".3985" stroke-linecap="butt" stroke-miterlimit="10" stroke-linejoin="miter" fill="none" stroke="#000000" d="M 36.69409 17.86624 L 38.5338 17.04843 L 39.73264 15.95848 L 40.20877 14.67062 L 39.9302 13.27275 L 38.91551 11.86003 L 37.23389 10.52876 L 35.0001 9.36966 L 32.36626 8.46172 L 29.51184 7.86688 L 26.63141 7.6255 L 23.9213 7.7542 L 21.56618 8.24419 L 19.72646 9.062 L 18.52765 10.15195 L 18.05148 11.43979 L 18.33005 12.83768 L 19.34477 14.25038 L 21.02637 15.58165 L 23.26016 16.74077 L 25.89401 17.6487 L 28.74843 18.24353 L 31.62886 18.48492 L 34.33896 18.35622 L 36.69409 17.86624 "/>
<path transform="matrix(1,0,0,-1,6.957,47.766)" stroke-width=".79701" stroke-linecap="butt" stroke-miterlimit="10" stroke-linejoin="miter" fill="none" stroke="#008060" d="M 35.98451 22.7988 L 37.65161 22.05768 L 38.73798 21.06998 L 39.16959 19.90298 L 38.91702 18.63622 L 37.9975 17.35603 L 36.4737 16.14964 L 34.44942 15.09929 L 32.06265 14.27652 L 29.47601 13.73743 L 26.86584 13.51875 L 24.40996 13.63538 L 22.27574 14.07938 L 20.60864 14.82048 L 19.52228 15.8082 L 19.09067 16.97519 L 19.34323 18.24194 L 20.26276 19.52214 L 21.78658 20.72853 L 23.81085 21.7789 L 26.19762 22.60165 L 28.78424 23.14075 L 31.39442 23.35942 L 33.85031 23.24278 L 35.98451 22.7988 "/>
<path transform="matrix(1,0,0,-1,6.957,47.766)" stroke-width=".3985" stroke-linecap="butt" stroke-miterlimit="10" stroke-linejoin="miter" fill="none" stroke="#000000" d="M 36.69409 28.63399 L 38.5338 27.81618 L 39.73264 26.72623 L 40.20877 25.43837 L 39.9302 24.0405 L 38.91551 22.62778 L 37.23389 21.29651 L 35.0001 20.1374 L 32.36626 19.22946 L 29.51184 18.63463 L 26.63141 18.39325 L 23.9213 18.52194 L 21.56618 19.01193 L 19.72646 19.82974 L 18.52765 20.9197 L 18.05148 22.20753 L 18.33005 23.60542 L 19.34477 25.01814 L 21.02637 26.3494 L 23.26016 27.50851 L 25.89401 28.41644 L 28.74843 29.01128 L 31.62886 29.25267 L 34.33896 29.12398 L 36.69409 28.63399 "/>
<path transform="matrix(1,0,0,-1,6.957,47.766)" stroke-width=".3985" stroke-linecap="butt" stroke-miterlimit="10" stroke-linejoin="miter" fill="none" stroke="#000000" d="M 38.5061 35.17026 L 40.78654 34.15652 L 42.27255 32.80547 L 42.86278 31.2091 L 42.51747 29.47633 L 41.2597 27.72519 L 39.17523 26.075 L 36.40631 24.63821 L 33.14151 23.51279 L 29.60327 22.77545 L 26.0328 22.47623 L 22.67346 22.63577 L 19.75415 23.24313 L 17.47372 24.25685 L 15.9877 25.60791 L 15.39748 27.20427 L 15.74278 28.93704 L 17.00058 30.6882 L 19.08502 32.33836 L 21.85394 33.77518 L 25.11876 34.9006 L 28.65698 35.63794 L 32.22746 35.93715 L 35.58679 35.77762 L 38.5061 35.17026 "/>
<path transform="matrix(1,0,0,-1,6.957,47.766)" stroke-width=".3985" stroke-linecap="butt" stroke-miterlimit="10" stroke-linejoin="miter" fill="none" stroke="#000000" d="M 40.92284 42.09143 L 43.79108 40.81642 L 45.66011 39.11711 L 46.40247 37.10928 L 45.96815 34.92987 L 44.38617 32.72736 L 41.76443 30.65184 L 38.2818 28.8447 L 34.17548 27.42917 L 29.72522 26.50179 L 25.23445 26.12544 L 21.00922 26.32611 L 17.33743 27.09003 L 14.46921 28.36504 L 12.60016 30.06433 L 11.85779 32.07217 L 12.2921 34.25157 L 13.8741 36.45409 L 16.49582 38.52962 L 19.97847 40.33676 L 24.08481 41.75229 L 28.53503 42.67967 L 33.02582 43.05602 L 37.25104 42.85535 L 40.92284 42.09143 "/>
</g>
<text xml:space="preserve" transform="matrix(.625 0 -0 .625 7.5255005 59.827875)" font-size="9.96264" font-family="CMMI10" font-style="italic"><tspan y="-2.075" x="20.068">x</tspan></text>
<text xml:space="preserve" transform="matrix(.625 0 -0 .625 20.578873 58.894876)" font-size="9.96264" font-family="CMMI10" font-style="italic"><tspan y="-4.563" x="54.877">y</tspan></text>
<text xml:space="preserve" transform="matrix(0 -.625 .625 0 21.59225 36.6405)" font-size="9.96264" font-family="CMMI10" font-style="italic"><tspan y="-26.938" x="4.756">z</tspan></text>
</g>
</svg>
