<?xml version="1.0" encoding="UTF-8" standalone="no"?>
<!DOCTYPE svg PUBLIC "-//W3C//DTD SVG 1.1//EN" "http://www.w3.org/Graphics/SVG/1.1/DTD/svg11.dtd">
<svg xmlns="http://www.w3.org/2000/svg" xmlns:xlink="http://www.w3.org/1999/xlink" version="1.1" width="65.406pt" height="60.606pt" viewBox="0 0 65.406 60.606">
<g enable-background="new">
<path transform="matrix(1,0,0,-1,6.957,47.766)" stroke-width=".3985" stroke-linecap="butt" stroke-miterlimit="10" stroke-linejoin="miter" fill="none" stroke="#cbcbcb" d="M 4.89503 -1.52628 L 28.8807 13.73346 M 17.13263 -5.34196 L 41.1183 9.91777 M 29.37021 -9.15767 L 53.3559 6.10207 "/>
<path transform="matrix(1,0,0,-1,6.957,47.766)" stroke-width=".3985" stroke-linecap="butt" stroke-miterlimit="10" stroke-linejoin="miter" fill="none" stroke="#cbcbcb" d="M 3.42651 2.17996 L 37.69177 -8.50398 M 11.99283 7.62987 L 46.25809 -3.05408 M 20.55914 13.07977 L 54.8244 2.39583 "/>
<path transform="matrix(1,0,0,-1,6.957,47.766)" stroke-width=".3985" stroke-linecap="butt" stroke-miterlimit="10" stroke-linejoin="miter" fill="none" stroke="#000000" d="M 0 0 L 34.26526 -10.68394 "/>
<path transform="matrix(1,0,0,-1,6.957,47.766)" stroke-width=".3985" stroke-linecap="butt" stroke-miterlimit="10" stroke-linejoin="miter" fill="none" stroke="#000000" d="M 23.98567 15.25974 L 58.25093 4.57579 "/>
<path transform="matrix(1,0,0,-1,6.957,47.766)" stroke-width=".3985" stroke-linecap="butt" stroke-miterlimit="10" stroke-linejoin="miter" fill="none" stroke="#000000" d="M 0 0 L 23.98567 15.25974 "/>
<path transform="matrix(1,0,0,-1,6.957,47.766)" stroke-width=".3985" stroke-linecap="butt" stroke-miterlimit="10" stroke-linejoin="miter" fill="none" stroke="#000000" d="M 34.26526 -10.68394 L 58.25093 4.57579 "/>
<path transform="matrix(1,0,0,-1,6.957,47.766)" stroke-width=".3985" stroke-linecap="butt" stroke-miterlimit="10" stroke-linejoin="miter" fill="none" stroke="#000000" d="M 23.98567 47.56699 L 58.25093 36.88303 "/>
<path transform="matrix(1,0,0,-1,6.957,47.766)" stroke-width=".3985" stroke-linecap="butt" stroke-miterlimit="10" stroke-linejoin="miter" fill="none" stroke="#000000" d="M 0 32.30724 L 23.98567 47.56699 "/>
<path transform="matrix(1,0,0,-1,6.957,47.766)" stroke-width=".3985" stroke-linecap="butt" stroke-miterlimit="10" stroke-linejoin="miter" fill="none" stroke="#cbcbcb" d="M 3.42651 2.17996 L 3.42651 34.4872 M 11.99283 7.62987 L 11.99283 39.9371 M 20.55914 13.07977 L 20.55914 45.38702 "/>
<path transform="matrix(1,0,0,-1,6.957,47.766)" stroke-width=".3985" stroke-linecap="butt" stroke-miterlimit="10" stroke-linejoin="miter" fill="none" stroke="#cbcbcb" d="M 0 4.61531 L 23.98567 19.87506 M 0 16.15361 L 23.98567 31.41336 M 0 27.69191 L 23.98567 42.95166 "/>
<path transform="matrix(1,0,0,-1,6.957,47.766)" stroke-width=".3985" stroke-linecap="butt" stroke-miterlimit="10" stroke-linejoin="miter" fill="none" stroke="#000000" d="M 0 0 L 0 32.30724 "/>
<path transform="matrix(1,0,0,-1,6.957,47.766)" stroke-width=".3985" stroke-linecap="butt" stroke-miterlimit="10" stroke-linejoin="miter" fill="none" stroke="#000000" d="M 23.98567 15.25974 L 23.98567 47.56699 "/>
<path transform="matrix(1,0,0,-1,6.957,47.766)" stroke-width=".3985" stroke-linecap="butt" stroke-miterlimit="10" stroke-linejoin="miter" fill="none" stroke="#000000" d="M 58.25093 4.57579 L 58.25093 36.88303 "/>
<path transform="matrix(1,0,0,-1,6.957,47.766)" stroke-width=".3985" stroke-linecap="butt" stroke-miterlimit="10" stroke-linejoin="miter" fill="none" stroke="#cbcbcb" d="M 28.8807 13.73346 L 28.8807 46.04071 M 41.1183 9.91777 L 41.1183 42.225 M 53.3559 6.10207 L 53.3559 38.40932 "/>
<path transform="matrix(1,0,0,-1,6.957,47.766)" stroke-width=".3985" stroke-linecap="butt" stroke-miterlimit="10" stroke-linejoin="miter" fill="none" stroke="#cbcbcb" d="M 23.98567 19.87506 L 58.25093 9.1911 M 23.98567 31.41336 L 58.25093 20.72942 M 23.98567 42.95166 L 58.25093 32.26772 "/>
<clipPath id="cp8">
<path transform="matrix(1,0,0,-1,6.957,47.766)" d="M 58.25093 4.57579 L 58.25093 36.88303 L 23.98567 47.56699 L 0 32.30724 L 0 0 L 34.26526 -10.68394 Z "/>
</clipPath>
<g clip-path="url(#cp8)">
<path transform="matrix(1,0,0,-1,6.957,47.766)" stroke-width=".3985" stroke-linecap="butt" stroke-miterlimit="10" stroke-linejoin="miter" fill="none" stroke="#000000" d="M 35.84598 6.55904 L 37.47942 5.83293 L 38.54384 4.86519 L 38.9666 3.72174 L 38.71928 2.48059 L 37.81833 1.22627 L 36.32527 .04428 L 34.34195 -.98486 L 32.0034 -1.791 L 29.46902 -2.31914 L 26.91158 -2.53346 L 24.50533 -2.41919 L 22.41428 -1.98415 L 20.78084 -1.25803 L 19.71643 -.29028 L 19.29366 .85315 L 19.541 2.09431 L 20.44193 3.34862 L 21.93498 4.53062 L 23.91833 5.55977 L 26.25685 6.36589 L 28.79123 6.89404 L 31.3487 7.10837 L 33.75494 6.9941 L 35.84598 6.55904 "/>
<path transform="matrix(1,0,0,-1,6.957,47.766)" stroke-width=".3985" stroke-linecap="butt" stroke-miterlimit="10" stroke-linejoin="miter" fill="none" stroke="#000000" d="M 33.67671 7.48666 L 34.78253 6.99509 L 35.50313 6.33994 L 35.78934 5.56583 L 35.6219 4.72557 L 35.01198 3.87642 L 34.00117 3.0762 L 32.65848 2.37949 L 31.07532 1.83374 L 29.35956 1.4762 L 27.62819 1.33109 L 25.99918 1.40846 L 24.58356 1.70297 L 23.47774 2.19455 L 22.75713 2.84972 L 22.47092 3.62381 L 22.63837 4.46407 L 23.24829 5.31322 L 24.25908 6.11343 L 25.60178 6.81017 L 27.18495 7.3559 L 28.9007 7.71344 L 30.63208 7.85855 L 32.26108 7.78119 L 33.67671 7.48666 "/>
<path transform="matrix(1,0,0,-1,6.957,47.766)" d="M 30.68214 29.97981 C 30.68214 30.83955 29.9852 31.5365 29.12546 31.5365 C 28.26573 31.5365 27.56879 30.83955 27.56879 29.97981 C 27.56879 29.12009 28.26573 28.42313 29.12546 28.42313 C 29.9852 28.42313 30.68214 29.12009 30.68214 29.97981 Z M 29.12546 29.97981 "/>
<path transform="matrix(1,0,0,-1,6.957,47.766)" d="M 30.68214 6.90321 C 30.68214 7.76294 29.9852 8.4599 29.12546 8.4599 C 28.26573 8.4599 27.56879 7.76294 27.56879 6.90321 C 27.56879 6.04347 28.26573 5.34653 29.12546 5.34653 C 29.9852 5.34653 30.68214 6.04347 30.68214 6.90321 Z M 29.12546 6.90321 "/>
<path transform="matrix(1,0,0,-1,6.957,47.766)" stroke-width=".3985" stroke-linecap="butt" stroke-miterlimit="10" stroke-linejoin="miter" fill="none" stroke="#000000" d="M 33.67671 35.17519 L 34.78253 34.68361 L 35.50313 34.02847 L 35.78934 33.25435 L 35.6219 32.41411 L 35.01198 31.56494 L 34.00117 30.76474 L 32.65848 30.06801 L 31.07532 29.52226 L 29.35956 29.16472 L 27.62819 29.01962 L 25.99918 29.09698 L 24.58356 29.39151 L 23.47774 29.88309 L 22.75713 30.53822 L 22.47092 31.31235 L 22.63837 32.15259 L 23.24829 33.00175 L 24.25908 33.80196 L 25.60178 34.49867 L 27.18495 35.04443 L 28.9007 35.40198 L 30.63208 35.54707 L 32.26108 35.46971 L 33.67671 35.17519 "/>
<path transform="matrix(1,0,0,-1,6.957,47.766)" stroke-width=".3985" stroke-linecap="butt" stroke-miterlimit="10" stroke-linejoin="miter" fill="none" stroke="#000000" d="M 35.84598 38.86234 L 37.47942 38.1362 L 38.54384 37.16847 L 38.9666 36.02502 L 38.71928 34.78387 L 37.81833 33.52956 L 36.32527 32.34755 L 34.34195 31.31839 L 32.0034 30.51227 L 29.46902 29.98413 L 26.91158 29.7698 L 24.50533 29.8841 L 22.41428 30.31912 L 20.78084 31.04524 L 19.71643 32.01299 L 19.29366 33.15642 L 19.541 34.39758 L 20.44193 35.6519 L 21.93498 36.8339 L 23.91833 37.86304 L 26.25685 38.66917 L 28.79123 39.19733 L 31.3487 39.41164 L 33.75494 39.29736 L 35.84598 38.86234 "/>
</g>
<text xml:space="preserve" transform="matrix(.625 0 -0 .625 7.5255005 59.827875)" font-size="9.96264" font-family="CMMI10" font-style="italic"><tspan y="-2.075" x="20.068">x</tspan></text>
<text xml:space="preserve" transform="matrix(.625 0 -0 .625 20.578873 58.894876)" font-size="9.96264" font-family="CMMI10" font-style="italic"><tspan y="-4.563" x="54.877">y</tspan></text>
<text xml:space="preserve" transform="matrix(0 -.625 .625 0 21.59225 36.6405)" font-size="9.96264" font-family="CMMI10" font-style="italic"><tspan y="-26.938" x="4.756">z</tspan></text>
</g>
</svg>
