<?xml version="1.0" encoding="UTF-8" standalone="no"?>
<!DOCTYPE svg PUBLIC "-//W3C//DTD SVG 1.1//EN" "http://www.w3.org/Graphics/SVG/1.1/DTD/svg11.dtd">
<svg xmlns="http://www.w3.org/2000/svg" xmlns:xlink="http://www.w3.org/1999/xlink" version="1.1" width="65.406pt" height="60.606pt" viewBox="0 0 65.406 60.606">
<g enable-background="new">
<path transform="matrix(1,0,0,-1,6.957,48.961)" stroke-width=".3985" stroke-linecap="butt" stroke-miterlimit="10" stroke-linejoin="miter" fill="none" stroke="#cbcbcb" d="M 4.89503 -.3314 L 28.8807 14.92831 M 17.13263 -4.14711 L 41.1183 11.11263 M 29.37021 -7.9628 L 53.3559 7.29692 "/>
<path transform="matrix(1,0,0,-1,6.957,48.961)" stroke-width=".3985" stroke-linecap="butt" stroke-miterlimit="10" stroke-linejoin="miter" fill="none" stroke="#cbcbcb" d="M 3.42651 3.37482 L 37.69177 -7.30911 M 11.99283 8.82472 L 46.25809 -1.8592 M 20.55914 14.27463 L 54.8244 3.59068 "/>
<path transform="matrix(1,0,0,-1,6.957,48.961)" stroke-width=".3985" stroke-linecap="butt" stroke-miterlimit="10" stroke-linejoin="miter" fill="none" stroke="#000000" d="M 0 1.19485 L 34.26526 -9.48909 "/>
<path transform="matrix(1,0,0,-1,6.957,48.961)" stroke-width=".3985" stroke-linecap="butt" stroke-miterlimit="10" stroke-linejoin="miter" fill="none" stroke="#000000" d="M 23.98567 16.4546 L 58.25093 5.77065 "/>
<path transform="matrix(1,0,0,-1,6.957,48.961)" stroke-width=".3985" stroke-linecap="butt" stroke-miterlimit="10" stroke-linejoin="miter" fill="none" stroke="#000000" d="M 0 1.19485 L 23.98567 16.4546 "/>
<path transform="matrix(1,0,0,-1,6.957,48.961)" stroke-width=".3985" stroke-linecap="butt" stroke-miterlimit="10" stroke-linejoin="miter" fill="none" stroke="#000000" d="M 34.26526 -9.48909 L 58.25093 5.77065 "/>
<path transform="matrix(1,0,0,-1,6.957,48.961)" stroke-width=".3985" stroke-linecap="butt" stroke-miterlimit="10" stroke-linejoin="miter" fill="none" stroke="#000000" d="M 23.98567 48.76184 L 58.25093 38.0779 "/>
<path transform="matrix(1,0,0,-1,6.957,48.961)" stroke-width=".3985" stroke-linecap="butt" stroke-miterlimit="10" stroke-linejoin="miter" fill="none" stroke="#000000" d="M 0 33.50209 L 23.98567 48.76184 "/>
<path transform="matrix(1,0,0,-1,6.957,48.961)" stroke-width=".3985" stroke-linecap="butt" stroke-miterlimit="10" stroke-linejoin="miter" fill="none" stroke="#cbcbcb" d="M 3.42651 3.37482 L 3.42651 35.68207 M 11.99283 8.82472 L 11.99283 41.13197 M 20.55914 14.27463 L 20.55914 46.58188 "/>
<path transform="matrix(1,0,0,-1,6.957,48.961)" stroke-width=".3985" stroke-linecap="butt" stroke-miterlimit="10" stroke-linejoin="miter" fill="none" stroke="#cbcbcb" d="M 0 5.81018 L 23.98567 21.06992 M 0 17.34848 L 23.98567 32.60822 M 0 28.88678 L 23.98567 44.14651 "/>
<path transform="matrix(1,0,0,-1,6.957,48.961)" stroke-width=".3985" stroke-linecap="butt" stroke-miterlimit="10" stroke-linejoin="miter" fill="none" stroke="#000000" d="M 0 1.19485 L 0 33.50209 "/>
<path transform="matrix(1,0,0,-1,6.957,48.961)" stroke-width=".3985" stroke-linecap="butt" stroke-miterlimit="10" stroke-linejoin="miter" fill="none" stroke="#000000" d="M 23.98567 16.4546 L 23.98567 48.76184 "/>
<path transform="matrix(1,0,0,-1,6.957,48.961)" stroke-width=".3985" stroke-linecap="butt" stroke-miterlimit="10" stroke-linejoin="miter" fill="none" stroke="#000000" d="M 58.25093 5.77065 L 58.25093 38.0779 "/>
<path transform="matrix(1,0,0,-1,6.957,48.961)" stroke-width=".3985" stroke-linecap="butt" stroke-miterlimit="10" stroke-linejoin="miter" fill="none" stroke="#cbcbcb" d="M 28.8807 14.92831 L 28.8807 47.23557 M 41.1183 11.11263 L 41.1183 43.41986 M 53.3559 7.29692 L 53.3559 39.60417 "/>
<path transform="matrix(1,0,0,-1,6.957,48.961)" stroke-width=".3985" stroke-linecap="butt" stroke-miterlimit="10" stroke-linejoin="miter" fill="none" stroke="#cbcbcb" d="M 23.98567 21.06992 L 58.25093 10.38597 M 23.98567 32.60822 L 58.25093 21.92427 M 23.98567 44.14651 L 58.25093 33.46257 "/>
<clipPath id="cp6">
<path transform="matrix(1,0,0,-1,6.957,48.961)" d="M 58.25093 5.77065 L 58.25093 38.0779 L 23.98567 48.76184 L 0 33.50209 L 0 1.19485 L 34.26526 -9.48909 Z "/>
</clipPath>
<g clip-path="url(#cp6)">
<path transform="matrix(1,0,0,-1,6.957,48.961)" stroke-width=".3985" stroke-linecap="butt" stroke-miterlimit="10" stroke-linejoin="miter" fill="none" stroke="#000000" d="M 12.12701 37.77168 L 14.5806 37.85297 L 16.88786 38.83643 L 19.19513 40.78876 L 21.6487 43.8294 "/>
<path transform="matrix(1,0,0,-1,6.957,48.961)" stroke-width=".3985" stroke-linecap="butt" stroke-miterlimit="10" stroke-linejoin="miter" fill="none" stroke="#000000" d="M 12.12701 3.0747 L 14.5806 6.11536 L 16.88786 8.0677 L 19.19513 9.05115 L 21.6487 9.13245 "/>
<path transform="matrix(1,0,0,-1,6.957,48.961)" stroke-width=".3985" stroke-linecap="butt" stroke-miterlimit="10" stroke-linejoin="miter" fill="none" stroke="#000000" d="M 12.2328 33.87201 L 14.36574 32.7016 L 16.18639 32.1604 L 17.80927 32.21417 L 19.33539 32.86467 L 20.8615 34.15599 L 22.48438 36.1672 L 24.30502 39.02501 L 26.43797 42.90938 "/>
<path transform="matrix(1,0,0,-1,6.957,48.961)" stroke-width=".3985" stroke-linecap="butt" stroke-miterlimit="10" stroke-linejoin="miter" fill="none" stroke="#000000" d="M 12.2328 2.46844 L 14.36574 6.35284 L 16.18639 9.21065 L 17.80927 11.22183 L 19.33539 12.51318 L 20.8615 13.16367 L 22.48438 13.21744 L 24.30502 12.67624 L 26.43797 11.50583 "/>
<path transform="matrix(1,0,0,-1,6.957,48.961)" stroke-width=".79701" stroke-linecap="butt" stroke-miterlimit="10" stroke-linejoin="miter" fill="none" stroke="#008060" d="M 26.47397 -5.83781 L 27.47336 -3.51949 L 28.47276 -1.2009 L 29.47215 1.11787 L 30.47156 3.43597 L 31.47095 5.75453 L 32.47035 8.0731 L 33.46974 10.39137 L 34.46915 12.70984 L 35.46855 15.02834 L 36.46794 17.34679 L 37.46733 19.66525 L 38.46674 21.98372 L 39.46614 24.30219 L 40.46553 26.62071 L 41.46492 28.9388 L 42.46432 31.25735 L 43.46373 33.57593 L 44.46312 35.89427 L 45.46251 38.21283 L 46.46191 40.53163 "/>
<path transform="matrix(1,0,0,-1,6.957,48.961)" stroke-width=".79701" stroke-linecap="butt" stroke-miterlimit="10" stroke-linejoin="miter" fill="none" stroke="#008060" d="M 26.47397 27.81525 L 27.47336 26.76855 L 28.47276 25.72163 L 29.47215 24.67445 L 30.47156 23.628 L 31.47095 22.58107 L 32.47035 21.53416 L 33.46974 20.48752 L 34.46915 19.44067 L 35.46855 18.39383 L 36.46794 17.34703 L 37.46733 16.30017 L 38.46674 15.25334 L 39.46614 14.20653 L 40.46553 13.15967 L 41.46492 12.11319 L 42.46432 11.06625 L 43.46373 10.01935 L 44.46312 8.97264 L 45.46251 7.9257 L 46.46191 6.87856 "/>
<path transform="matrix(1,0,0,-1,6.957,48.961)" stroke-width=".3985" stroke-linecap="butt" stroke-miterlimit="10" stroke-linejoin="miter" fill="none" stroke="#000000" d="M 85.45854 -35.31917 L 74.14645 -23.35283 L 65.35442 -13.99062 L 58.53052 -6.64465 L 53.24629 -.85437 L 49.16888 3.74532 L 46.0439 7.44226 L 43.67345 10.46968 L 41.9092 13.0162 L 40.64027 15.24384 L 39.787 17.29153 L 39.29564 19.28801 L 39.13475 21.35701 L 39.29564 23.63068 L 39.787 26.25223 L 40.64027 29.38536 L 41.9092 33.22719 L 43.67345 38.01799 L 46.0439 44.06082 L 49.16888 51.73306 L 53.24629 61.51962 L 58.53052 74.03192 L 65.35442 90.05852 L 74.14645 110.60503 L 85.45854 136.96138 "/>
<path transform="matrix(1,0,0,-1,6.957,48.961)" stroke-width=".3985" stroke-linecap="butt" stroke-miterlimit="10" stroke-linejoin="miter" fill="none" stroke="#000000" d="M -17.40685 -100.74637 L -6.09477 -74.39 L 2.69725 -53.84349 L 9.52116 -37.8169 L 14.80537 -25.30458 L 18.88278 -15.51805 L 22.00778 -7.84581 L 24.37822 -1.80298 L 26.14247 2.98784 L 27.41139 6.82967 L 28.26466 9.96278 L 28.75604 12.58434 L 28.91692 14.858 L 28.75604 16.92702 L 28.26466 18.92348 L 27.41139 20.97116 L 26.14247 23.1988 L 24.37822 25.74533 L 22.00778 28.77275 L 18.88278 32.4697 L 14.80537 37.06941 L 9.52116 42.8597 L 2.69725 50.20564 L -6.09477 59.56786 L -17.40685 71.53421 "/>
<path transform="matrix(1,0,0,-1,6.957,48.961)" stroke-width=".3985" stroke-linecap="butt" stroke-miterlimit="10" stroke-linejoin="miter" fill="none" stroke="#000000" d="M 96.63637 -48.70996 L 82.32748 -33.57346 L 71.20622 -21.73097 L 62.57451 -12.43892 L 55.89037 -5.11467 L 50.73277 .7036 L 46.7799 5.37996 L 43.78148 9.2094 L 41.54982 12.43056 L 39.94475 15.24834 L 38.86542 17.83852 L 38.24387 20.36389 L 38.04036 22.98103 L 38.24387 25.85704 L 38.86542 29.1731 L 39.94475 33.13626 L 41.54982 37.99586 L 43.78148 44.0559 L 46.7799 51.69962 L 50.73277 61.4044 L 55.89037 73.7836 L 62.57451 89.61072 L 71.20622 109.88312 L 82.32748 135.87287 L 96.63637 169.21161 "/>
<path transform="matrix(1,0,0,-1,6.957,48.961)" stroke-width=".3985" stroke-linecap="butt" stroke-miterlimit="10" stroke-linejoin="miter" fill="none" stroke="#000000" d="M -33.4804 -131.47029 L -19.1715 -98.13153 L -8.05025 -72.14178 L .58145 -51.86938 L 7.2656 -36.04228 L 12.42319 -23.66307 L 16.37607 -13.95828 L 19.37448 -6.31458 L 21.60614 -.25455 L 23.21123 4.60506 L 24.29054 8.5682 L 24.9121 11.88428 L 25.1156 14.76028 L 24.9121 17.37743 L 24.29054 19.9028 L 23.21123 22.49298 L 21.60614 25.31076 L 19.37448 28.53192 L 16.37607 32.36136 L 12.42319 37.03772 L 7.2656 42.85599 L .58145 50.18025 L -8.05025 59.4723 L -19.1715 71.31479 L -33.4804 86.45128 "/>
<path transform="matrix(1,0,0,-1,6.957,48.961)" stroke-width=".3985" stroke-linecap="butt" stroke-miterlimit="10" stroke-linejoin="miter" fill="none" stroke="#000000" d="M 98.1349 -52.04619 L 82.95804 -35.99152 L 71.16219 -23.43068 L 62.00688 -13.57498 L 54.9173 -5.80644 L 49.44684 .36475 L 45.25418 5.32475 L 42.07388 9.3865 L 39.70686 12.80305 L 38.00441 15.79176 L 36.85962 18.53905 L 36.20036 21.21762 L 35.98451 23.9935 L 36.20036 27.04398 L 36.85962 30.56119 L 38.00441 34.76474 L 39.70686 39.91914 L 42.07388 46.34676 L 45.25418 54.45413 L 49.44684 64.7476 L 54.9173 77.87772 L 62.00688 94.66489 L 71.16219 116.16699 L 82.95804 143.73325 L 98.1349 179.0943 "/>
<path transform="matrix(1,0,0,-1,6.957,48.961)" stroke-width=".3985" stroke-linecap="butt" stroke-miterlimit="10" stroke-linejoin="miter" fill="none" stroke="#000000" d="M -39.87463 -139.82668 L -24.69777 -104.46564 L -12.90192 -76.89937 L -3.74661 -55.39726 L 3.34299 -38.61009 L 8.81342 -25.47998 L 13.00609 -15.18651 L 16.18639 -7.07913 L 18.5534 -.65152 L 20.25586 4.50287 L 21.40063 8.70642 L 22.0599 12.22363 L 22.27574 15.2741 L 22.0599 18.04999 L 21.40063 20.72856 L 20.25586 23.47585 L 18.5534 26.46455 L 16.18639 29.8811 L 13.00609 33.94283 L 8.81342 38.90286 L 3.34299 45.07405 L -3.74661 52.8426 L -12.90192 62.6983 L -24.69777 75.25914 L -39.87463 91.31381 "/>
<path transform="matrix(1,0,0,-1,6.957,48.961)" stroke-width=".3985" stroke-linecap="butt" stroke-miterlimit="10" stroke-linejoin="miter" fill="none" stroke="#000000" d="M 96.63637 -48.70996 L 82.32748 -33.57346 L 71.20622 -21.73097 L 62.57451 -12.43892 L 55.89037 -5.11467 L 50.73277 .7036 L 46.7799 5.37996 L 43.78148 9.2094 L 41.54982 12.43056 L 39.94475 15.24834 L 38.86542 17.83852 L 38.24387 20.36389 L 38.04036 22.98103 L 38.24387 25.85704 L 38.86542 29.1731 L 39.94475 33.13626 L 41.54982 37.99586 L 43.78148 44.0559 L 46.7799 51.69962 L 50.73277 61.4044 L 55.89037 73.7836 L 62.57451 89.61072 L 71.20622 109.88312 L 82.32748 135.87287 L 96.63637 169.21161 "/>
<path transform="matrix(1,0,0,-1,6.957,48.961)" stroke-width=".3985" stroke-linecap="butt" stroke-miterlimit="10" stroke-linejoin="miter" fill="none" stroke="#000000" d="M -33.4804 -131.47029 L -19.1715 -98.13153 L -8.05025 -72.14178 L .58145 -51.86938 L 7.2656 -36.04228 L 12.42319 -23.66307 L 16.37607 -13.95828 L 19.37448 -6.31458 L 21.60614 -.25455 L 23.21123 4.60506 L 24.29054 8.5682 L 24.9121 11.88428 L 25.1156 14.76028 L 24.9121 17.37743 L 24.29054 19.9028 L 23.21123 22.49298 L 21.60614 25.31076 L 19.37448 28.53192 L 16.37607 32.36136 L 12.42319 37.03772 L 7.2656 42.85599 L .58145 50.18025 L -8.05025 59.4723 L -19.1715 71.31479 L -33.4804 86.45128 "/>
<path transform="matrix(1,0,0,-1,6.957,48.961)" stroke-width=".3985" stroke-linecap="butt" stroke-miterlimit="10" stroke-linejoin="miter" fill="none" stroke="#000000" d="M 75.66713 -32.26659 L 64.35506 -20.30023 L 55.563 -10.93802 L 48.73912 -3.59207 L 43.45488 2.1982 L 39.37747 6.79791 L 36.25249 10.49486 L 33.88205 13.52228 L 32.11778 16.0688 L 30.84886 18.29642 L 29.99559 20.34413 L 29.50423 22.34059 L 29.34334 24.4096 L 29.50423 26.68326 L 29.99559 29.30481 L 30.84886 32.43794 L 32.11778 36.27977 L 33.88205 41.0706 L 36.25249 47.11343 L 39.37747 54.78568 L 43.45488 64.5722 L 48.73912 77.08452 L 55.563 93.1111 L 64.35506 113.65761 L 75.66713 140.01396 "/>
<path transform="matrix(1,0,0,-1,6.957,48.961)" stroke-width=".3985" stroke-linecap="butt" stroke-miterlimit="10" stroke-linejoin="miter" fill="none" stroke="#000000" d="M -27.19826 -97.69376 L -15.88618 -71.3374 L -7.09415 -50.7909 L -.27023 -34.7643 L 5.01398 -22.252 L 9.09137 -12.46547 L 12.21637 -4.79323 L 14.5868 1.24959 L 16.35106 6.04042 L 17.61998 9.88225 L 18.47325 13.01538 L 18.96463 15.63693 L 19.1255 17.9106 L 18.96463 19.9796 L 18.47325 21.97607 L 17.61998 24.02377 L 16.35106 26.25139 L 14.5868 28.79793 L 12.21637 31.82533 L 9.09137 35.5223 L 5.01398 40.122 L -.27023 45.91228 L -7.09415 53.25824 L -15.88618 62.62045 L -27.19826 74.58679 "/>
<path transform="matrix(1,0,0,-1,6.957,48.961)" stroke-width=".79701" stroke-linecap="butt" stroke-miterlimit="10" stroke-linejoin="miter" fill="none" stroke="#008060" d="M 11.78885 -1.25897 L 12.78825 1.05934 L 13.78766 3.37791 L 14.78705 5.6967 L 15.78644 8.01482 L 16.78583 10.33337 L 17.78525 12.65195 L 18.78464 14.9702 L 19.78403 17.28867 L 20.78343 19.60716 L 21.78284 21.92563 L 22.78223 24.2441 L 23.78162 26.56256 L 24.78102 28.88101 L 25.78043 31.19954 L 26.77982 33.51764 L 27.77922 35.8362 L 28.77861 38.15477 L 29.77802 40.4731 L 30.7774 42.79166 L 31.77681 45.11046 "/>
<path transform="matrix(1,0,0,-1,6.957,48.961)" stroke-width=".79701" stroke-linecap="butt" stroke-miterlimit="10" stroke-linejoin="miter" fill="none" stroke="#008060" d="M 11.78885 32.39409 L 12.78825 31.34738 L 13.78766 30.30048 L 14.78705 29.2533 L 15.78644 28.20683 L 16.78583 27.15991 L 17.78525 26.11299 L 18.78464 25.06635 L 19.78403 24.01952 L 20.78343 22.97266 L 21.78284 21.92587 L 22.78223 20.87901 L 23.78162 19.83217 L 24.78102 18.78537 L 25.78043 17.7385 L 26.77982 16.69202 L 27.77922 15.6451 L 28.77861 14.59818 L 29.77802 13.55148 L 30.7774 12.50455 L 31.77681 11.45738 "/>
<path transform="matrix(1,0,0,-1,6.957,48.961)" stroke-width=".3985" stroke-linecap="butt" stroke-miterlimit="10" stroke-linejoin="miter" fill="none" stroke="#000000" d="M 31.81294 27.76689 L 33.94589 26.5965 L 35.76654 26.05528 L 37.3894 26.10905 L 38.91554 26.75955 L 40.44165 28.05089 L 42.06451 30.06209 L 43.88518 32.91989 L 46.01811 36.80428 "/>
<path transform="matrix(1,0,0,-1,6.957,48.961)" stroke-width=".3985" stroke-linecap="butt" stroke-miterlimit="10" stroke-linejoin="miter" fill="none" stroke="#000000" d="M 31.81294 -3.63666 L 33.94589 .24773 L 35.76654 3.10553 L 37.3894 5.11671 L 38.91554 6.40807 L 40.44165 7.05855 L 42.06451 7.11234 L 43.88518 6.57112 L 46.01811 5.40071 "/>
<path transform="matrix(1,0,0,-1,6.957,48.961)" stroke-width=".3985" stroke-linecap="butt" stroke-miterlimit="10" stroke-linejoin="miter" fill="none" stroke="#000000" d="M 36.6022 30.14029 L 39.05577 30.22157 L 41.36305 31.20503 L 43.67032 33.15736 L 46.12389 36.19801 "/>
<path transform="matrix(1,0,0,-1,6.957,48.961)" stroke-width=".3985" stroke-linecap="butt" stroke-miterlimit="10" stroke-linejoin="miter" fill="none" stroke="#000000" d="M 36.6022 -4.55667 L 39.05577 -1.51602 L 41.36305 .43631 L 43.67032 1.41975 L 46.12389 1.50105 "/>
</g>
<text xml:space="preserve" transform="matrix(.625 0 -0 .625 7.5255005 59.827875)" font-size="9.96264" font-family="CMMI10" font-style="italic"><tspan y="-2.075" x="20.068">x</tspan></text>
<text xml:space="preserve" transform="matrix(.625 0 -0 .625 20.578873 58.894876)" font-size="9.96264" font-family="CMMI10" font-style="italic"><tspan y="-4.563" x="54.877">y</tspan></text>
<text xml:space="preserve" transform="matrix(0 -.625 .625 0 21.59225 36.6405)" font-size="9.96264" font-family="CMMI10" font-style="italic"><tspan y="-26.938" x="4.756">z</tspan></text>
</g>
</svg>
