<?xml version="1.0" encoding="UTF-8" standalone="no"?>
<!DOCTYPE svg PUBLIC "-//W3C//DTD SVG 1.1//EN" "http://www.w3.org/Graphics/SVG/1.1/DTD/svg11.dtd">
<svg xmlns="http://www.w3.org/2000/svg" xmlns:xlink="http://www.w3.org/1999/xlink" version="1.1" width="65.406pt" height="60.606pt" viewBox="0 0 65.406 60.606">
<g enable-background="new">
<path transform="matrix(1,0,0,-1,6.957,47.766)" stroke-width=".3985" stroke-linecap="butt" stroke-miterlimit="10" stroke-linejoin="miter" fill="none" stroke="#cbcbcb" d="M 4.89503 -1.52628 L 28.8807 13.73346 M 17.13263 -5.34196 L 41.1183 9.91777 M 29.37021 -9.15767 L 53.3559 6.10207 "/>
<path transform="matrix(1,0,0,-1,6.957,47.766)" stroke-width=".3985" stroke-linecap="butt" stroke-miterlimit="10" stroke-linejoin="miter" fill="none" stroke="#cbcbcb" d="M 3.42651 2.17996 L 37.69177 -8.50398 M 11.99283 7.62987 L 46.25809 -3.05408 M 20.55914 13.07977 L 54.8244 2.39583 "/>
<path transform="matrix(1,0,0,-1,6.957,47.766)" stroke-width=".3985" stroke-linecap="butt" stroke-miterlimit="10" stroke-linejoin="miter" fill="none" stroke="#000000" d="M 0 0 L 34.26526 -10.68394 "/>
<path transform="matrix(1,0,0,-1,6.957,47.766)" stroke-width=".3985" stroke-linecap="butt" stroke-miterlimit="10" stroke-linejoin="miter" fill="none" stroke="#000000" d="M 23.98567 15.25974 L 58.25093 4.57579 "/>
<path transform="matrix(1,0,0,-1,6.957,47.766)" stroke-width=".3985" stroke-linecap="butt" stroke-miterlimit="10" stroke-linejoin="miter" fill="none" stroke="#000000" d="M 0 0 L 23.98567 15.25974 "/>
<path transform="matrix(1,0,0,-1,6.957,47.766)" stroke-width=".3985" stroke-linecap="butt" stroke-miterlimit="10" stroke-linejoin="miter" fill="none" stroke="#000000" d="M 34.26526 -10.68394 L 58.25093 4.57579 "/>
<path transform="matrix(1,0,0,-1,6.957,47.766)" stroke-width=".3985" stroke-linecap="butt" stroke-miterlimit="10" stroke-linejoin="miter" fill="none" stroke="#000000" d="M 23.98567 47.56699 L 58.25093 36.88303 "/>
<path transform="matrix(1,0,0,-1,6.957,47.766)" stroke-width=".3985" stroke-linecap="butt" stroke-miterlimit="10" stroke-linejoin="miter" fill="none" stroke="#000000" d="M 0 32.30724 L 23.98567 47.56699 "/>
<path transform="matrix(1,0,0,-1,6.957,47.766)" stroke-width=".3985" stroke-linecap="butt" stroke-miterlimit="10" stroke-linejoin="miter" fill="none" stroke="#cbcbcb" d="M 3.42651 2.17996 L 3.42651 34.4872 M 11.99283 7.62987 L 11.99283 39.9371 M 20.55914 13.07977 L 20.55914 45.38702 "/>
<path transform="matrix(1,0,0,-1,6.957,47.766)" stroke-width=".3985" stroke-linecap="butt" stroke-miterlimit="10" stroke-linejoin="miter" fill="none" stroke="#cbcbcb" d="M 0 4.61531 L 23.98567 19.87506 M 0 16.15361 L 23.98567 31.41336 M 0 27.69191 L 23.98567 42.95166 "/>
<path transform="matrix(1,0,0,-1,6.957,47.766)" stroke-width=".3985" stroke-linecap="butt" stroke-miterlimit="10" stroke-linejoin="miter" fill="none" stroke="#000000" d="M 0 0 L 0 32.30724 "/>
<path transform="matrix(1,0,0,-1,6.957,47.766)" stroke-width=".3985" stroke-linecap="butt" stroke-miterlimit="10" stroke-linejoin="miter" fill="none" stroke="#000000" d="M 23.98567 15.25974 L 23.98567 47.56699 "/>
<path transform="matrix(1,0,0,-1,6.957,47.766)" stroke-width=".3985" stroke-linecap="butt" stroke-miterlimit="10" stroke-linejoin="miter" fill="none" stroke="#000000" d="M 58.25093 4.57579 L 58.25093 36.88303 "/>
<path transform="matrix(1,0,0,-1,6.957,47.766)" stroke-width=".3985" stroke-linecap="butt" stroke-miterlimit="10" stroke-linejoin="miter" fill="none" stroke="#cbcbcb" d="M 28.8807 13.73346 L 28.8807 46.04071 M 41.1183 9.91777 L 41.1183 42.225 M 53.3559 6.10207 L 53.3559 38.40932 "/>
<path transform="matrix(1,0,0,-1,6.957,47.766)" stroke-width=".3985" stroke-linecap="butt" stroke-miterlimit="10" stroke-linejoin="miter" fill="none" stroke="#cbcbcb" d="M 23.98567 19.87506 L 58.25093 9.1911 M 23.98567 31.41336 L 58.25093 20.72942 M 23.98567 42.95166 L 58.25093 32.26772 "/>
<clipPath id="cp12">
<path transform="matrix(1,0,0,-1,6.957,47.766)" d="M 58.25093 4.57579 L 58.25093 36.88303 L 23.98567 47.56699 L 0 32.30724 L 0 0 L 34.26526 -10.68394 Z "/>
</clipPath>
<g clip-path="url(#cp12)">
<path transform="matrix(1,0,0,-1,6.957,47.766)" stroke-width=".3985" stroke-linecap="butt" stroke-miterlimit="10" stroke-linejoin="miter" fill="none" stroke="#000000" d="M 38.7262 8.39098 L 41.06015 7.35349 L 42.58107 5.97069 L 43.18513 4.33685 L 42.83173 2.56343 L 41.54442 .77118 L 39.41103 -.91774 L 36.5771 -2.38826 L 33.23567 -3.5401 L 29.61438 -4.29475 L 25.96011 -4.601 L 22.52191 -4.43771 L 19.53406 -3.81609 L 17.2001 -2.77856 L 15.6792 -1.3958 L 15.07512 .23802 L 15.42853 2.01147 L 16.71585 3.80373 L 18.84923 5.49263 L 21.68315 6.96315 L 25.0246 8.115 L 28.64589 8.86966 L 32.30017 9.17589 L 35.73836 9.0126 L 38.7262 8.39098 "/>
<path transform="matrix(1,0,0,-1,6.957,47.766)" stroke-width=".3985" stroke-linecap="butt" stroke-miterlimit="10" stroke-linejoin="miter" fill="none" stroke="#000000" d="M 36.32724 10.90305 L 38.07773 10.12491 L 39.2184 9.08781 L 39.67146 7.86243 L 39.4064 6.53235 L 38.44092 5.18814 L 36.84087 3.92143 L 34.71541 2.81854 L 32.2093 1.95465 L 29.49332 1.38866 L 26.75258 1.15898 L 24.17392 1.28145 L 21.93303 1.74765 L 20.18254 2.5258 L 19.04185 3.5629 L 18.5888 4.78828 L 18.85385 6.11838 L 19.81935 7.46257 L 21.4194 8.72928 L 23.54486 9.83215 L 26.05095 10.69606 L 28.76694 11.26204 L 31.50768 11.49173 L 34.08633 11.36926 L 36.32724 10.90305 "/>
<path transform="matrix(1,0,0,-1,6.957,47.766)" stroke-width=".3985" stroke-linecap="butt" stroke-miterlimit="10" stroke-linejoin="miter" fill="none" stroke="#000000" d="M 33.92813 13.41502 L 35.09511 12.89626 L 35.85555 12.20488 L 36.1576 11.38795 L 35.98088 10.50125 L 35.33723 9.60513 L 34.27054 8.76068 L 32.85359 8.02542 L 31.18288 7.4495 L 29.37225 7.07217 L 27.54512 6.91907 L 25.82603 7.0007 L 24.33212 7.31151 L 23.16516 7.83028 L 22.40471 8.52164 L 22.10268 9.33855 L 22.27937 10.22528 L 22.92302 11.1214 L 23.98972 11.96585 L 25.40666 12.70111 L 27.07738 13.27704 L 28.888 13.65434 L 30.71513 13.80746 L 32.43422 13.72583 L 33.92813 13.41502 "/>
<path transform="matrix(1,0,0,-1,6.957,47.766)" stroke-width=".3985" stroke-linecap="butt" stroke-miterlimit="10" stroke-linejoin="miter" fill="none" stroke="#000000" d="M 31.52917 15.92708 L 32.11267 15.66768 L 32.49289 15.32199 L 32.64392 14.91353 L 32.55556 14.47017 L 32.23372 14.0221 L 31.70038 13.59987 L 30.99188 13.23224 L 30.15652 12.94426 L 29.2512 12.7556 L 28.33762 12.67905 L 27.47806 12.71986 L 26.7311 12.87527 L 26.14761 13.13466 L 25.76738 13.48035 L 25.61636 13.88881 L 25.7047 14.33217 L 26.02654 14.78026 L 26.55989 15.20247 L 27.26837 15.57011 L 28.10374 15.85808 L 29.00906 16.04674 L 29.92264 16.1233 L 30.78221 16.08249 L 31.52917 15.92708 "/>
<path transform="matrix(1,0,0,-1,6.957,47.766)" d="M 30.68214 18.44151 C 30.68214 19.30124 29.9852 19.9982 29.12546 19.9982 C 28.26573 19.9982 27.56879 19.30124 27.56879 18.44151 C 27.56879 17.58179 28.26573 16.88483 29.12546 16.88483 C 29.9852 16.88483 30.68214 17.58179 30.68214 18.44151 Z M 29.12546 18.44151 "/>
<path transform="matrix(1,0,0,-1,6.957,47.766)" stroke-width=".3985" stroke-linecap="butt" stroke-miterlimit="10" stroke-linejoin="miter" fill="none" stroke="#000000" d="M 31.52917 24.0029 L 32.11267 23.7435 L 32.49289 23.39781 L 32.64392 22.98935 L 32.55556 22.54599 L 32.23372 22.09792 L 31.70038 21.67569 L 30.99188 21.30806 L 30.15652 21.02008 L 29.2512 20.83144 L 28.33762 20.75487 L 27.47806 20.79568 L 26.7311 20.9511 L 26.14761 21.21048 L 25.76738 21.55617 L 25.61636 21.96463 L 25.7047 22.408 L 26.02654 22.85606 L 26.55989 23.27829 L 27.26837 23.64592 L 28.10374 23.9339 L 29.00906 24.12256 L 29.92264 24.19913 L 30.78221 24.1583 L 31.52917 24.0029 "/>
<path transform="matrix(1,0,0,-1,6.957,47.766)" stroke-width=".3985" stroke-linecap="butt" stroke-miterlimit="10" stroke-linejoin="miter" fill="none" stroke="#000000" d="M 33.92813 29.56665 L 35.09511 29.0479 L 35.85555 28.35652 L 36.1576 27.53961 L 35.98088 26.6529 L 35.33723 25.75676 L 34.27054 24.91231 L 32.85359 24.17706 L 31.18288 23.60114 L 29.37225 23.22383 L 27.54512 23.0707 L 25.82603 23.15234 L 24.33212 23.46315 L 23.16516 23.9819 L 22.40471 24.6733 L 22.10268 25.4902 L 22.27937 26.3769 L 22.92302 27.27304 L 23.98972 28.1175 L 25.40666 28.85275 L 27.07738 29.42867 L 28.888 29.806 L 30.71513 29.9591 L 32.43422 29.87746 L 33.92813 29.56665 "/>
<path transform="matrix(1,0,0,-1,6.957,47.766)" stroke-width=".3985" stroke-linecap="butt" stroke-miterlimit="10" stroke-linejoin="miter" fill="none" stroke="#000000" d="M 36.32724 35.13051 L 38.07773 34.35236 L 39.2184 33.31528 L 39.67146 32.08989 L 39.4064 30.7598 L 38.44092 29.41559 L 36.84087 28.1489 L 34.71541 27.046 L 32.2093 26.1821 L 29.49332 25.61612 L 26.75258 25.38643 L 24.17392 25.5089 L 21.93303 25.97513 L 20.18254 26.75327 L 19.04185 27.79034 L 18.5888 29.01573 L 18.85385 30.34583 L 19.81935 31.69003 L 21.4194 32.95673 L 23.54486 34.05963 L 26.05095 34.92352 L 28.76694 35.48952 L 31.50768 35.7192 L 34.08633 35.59673 L 36.32724 35.13051 "/>
<path transform="matrix(1,0,0,-1,6.957,47.766)" stroke-width=".3985" stroke-linecap="butt" stroke-miterlimit="10" stroke-linejoin="miter" fill="none" stroke="#000000" d="M 38.7262 40.69427 L 41.06015 39.65675 L 42.58107 38.27399 L 43.18513 36.64015 L 42.83173 34.8667 L 41.54442 33.07445 L 39.41103 31.38553 L 36.5771 29.91501 L 33.23567 28.76315 L 29.61438 28.00851 L 25.96011 27.70227 L 22.52191 27.86555 L 19.53406 28.48718 L 17.2001 29.5247 L 15.6792 30.90747 L 15.07512 32.5413 L 15.42853 34.31474 L 16.71585 36.107 L 18.84923 37.79593 L 21.68315 39.26645 L 25.0246 40.4183 L 28.64589 41.17294 L 32.30017 41.47917 L 35.73836 41.31589 L 38.7262 40.69427 "/>
</g>
<text xml:space="preserve" transform="matrix(.625 0 -0 .625 7.5255005 59.827875)" font-size="9.96264" font-family="CMMI10" font-style="italic"><tspan y="-2.075" x="20.068">x</tspan></text>
<text xml:space="preserve" transform="matrix(.625 0 -0 .625 20.578873 58.894876)" font-size="9.96264" font-family="CMMI10" font-style="italic"><tspan y="-4.563" x="54.877">y</tspan></text>
<text xml:space="preserve" transform="matrix(0 -.625 .625 0 21.59225 36.6405)" font-size="9.96264" font-family="CMMI10" font-style="italic"><tspan y="-26.938" x="4.756">z</tspan></text>
</g>
</svg>
