<?xml version="1.0" encoding="UTF-8" standalone="no"?>
<!DOCTYPE svg PUBLIC "-//W3C//DTD SVG 1.1//EN" "http://www.w3.org/Graphics/SVG/1.1/DTD/svg11.dtd">
<svg xmlns="http://www.w3.org/2000/svg" xmlns:xlink="http://www.w3.org/1999/xlink" version="1.1" width="65.406pt" height="60.606pt" viewBox="0 0 65.406 60.606">
<g enable-background="new">
<path transform="matrix(1,0,0,-1,6.957,49.560998)" stroke-width=".3985" stroke-linecap="butt" stroke-miterlimit="10" stroke-linejoin="miter" fill="none" stroke="#cbcbcb" d="M 4.89503 .26837 L 28.8807 15.5281 M 17.13263 -3.54732 L 41.1183 11.71242 M 29.37021 -7.363 L 53.3559 7.89671 "/>
<path transform="matrix(1,0,0,-1,6.957,49.560998)" stroke-width=".3985" stroke-linecap="butt" stroke-miterlimit="10" stroke-linejoin="miter" fill="none" stroke="#cbcbcb" d="M 3.42651 3.97461 L 37.69177 -6.70932 M 11.99283 9.42451 L 46.25809 -1.25941 M 20.55914 14.87444 L 54.8244 4.19048 "/>
<path transform="matrix(1,0,0,-1,6.957,49.560998)" stroke-width=".3985" stroke-linecap="butt" stroke-miterlimit="10" stroke-linejoin="miter" fill="none" stroke="#000000" d="M 0 1.79465 L 34.26526 -8.88928 "/>
<path transform="matrix(1,0,0,-1,6.957,49.560998)" stroke-width=".3985" stroke-linecap="butt" stroke-miterlimit="10" stroke-linejoin="miter" fill="none" stroke="#000000" d="M 23.98567 17.0544 L 58.25093 6.37044 "/>
<path transform="matrix(1,0,0,-1,6.957,49.560998)" stroke-width=".3985" stroke-linecap="butt" stroke-miterlimit="10" stroke-linejoin="miter" fill="none" stroke="#000000" d="M 0 1.79465 L 23.98567 17.0544 "/>
<path transform="matrix(1,0,0,-1,6.957,49.560998)" stroke-width=".3985" stroke-linecap="butt" stroke-miterlimit="10" stroke-linejoin="miter" fill="none" stroke="#000000" d="M 34.26526 -8.88928 L 58.25093 6.37044 "/>
<path transform="matrix(1,0,0,-1,6.957,49.560998)" stroke-width=".3985" stroke-linecap="butt" stroke-miterlimit="10" stroke-linejoin="miter" fill="none" stroke="#000000" d="M 23.98567 49.36163 L 58.25093 38.67769 "/>
<path transform="matrix(1,0,0,-1,6.957,49.560998)" stroke-width=".3985" stroke-linecap="butt" stroke-miterlimit="10" stroke-linejoin="miter" fill="none" stroke="#000000" d="M 0 34.1019 L 23.98567 49.36163 "/>
<path transform="matrix(1,0,0,-1,6.957,49.560998)" stroke-width=".3985" stroke-linecap="butt" stroke-miterlimit="10" stroke-linejoin="miter" fill="none" stroke="#cbcbcb" d="M 3.42651 3.97461 L 3.42651 36.28186 M 11.99283 9.42451 L 11.99283 41.73177 M 20.55914 14.87444 L 20.55914 47.18167 "/>
<path transform="matrix(1,0,0,-1,6.957,49.560998)" stroke-width=".3985" stroke-linecap="butt" stroke-miterlimit="10" stroke-linejoin="miter" fill="none" stroke="#cbcbcb" d="M 0 6.40997 L 23.98567 21.66971 M 0 17.94827 L 23.98567 33.20801 M 0 29.48657 L 23.98567 44.74632 "/>
<path transform="matrix(1,0,0,-1,6.957,49.560998)" stroke-width=".3985" stroke-linecap="butt" stroke-miterlimit="10" stroke-linejoin="miter" fill="none" stroke="#000000" d="M 0 1.79465 L 0 34.1019 "/>
<path transform="matrix(1,0,0,-1,6.957,49.560998)" stroke-width=".3985" stroke-linecap="butt" stroke-miterlimit="10" stroke-linejoin="miter" fill="none" stroke="#000000" d="M 23.98567 17.0544 L 23.98567 49.36163 "/>
<path transform="matrix(1,0,0,-1,6.957,49.560998)" stroke-width=".3985" stroke-linecap="butt" stroke-miterlimit="10" stroke-linejoin="miter" fill="none" stroke="#000000" d="M 58.25093 6.37044 L 58.25093 38.67769 "/>
<path transform="matrix(1,0,0,-1,6.957,49.560998)" stroke-width=".3985" stroke-linecap="butt" stroke-miterlimit="10" stroke-linejoin="miter" fill="none" stroke="#cbcbcb" d="M 28.8807 15.5281 L 28.8807 47.83536 M 41.1183 11.71242 L 41.1183 44.01967 M 53.3559 7.89671 L 53.3559 40.20396 "/>
<path transform="matrix(1,0,0,-1,6.957,49.560998)" stroke-width=".3985" stroke-linecap="butt" stroke-miterlimit="10" stroke-linejoin="miter" fill="none" stroke="#cbcbcb" d="M 23.98567 21.66971 L 58.25093 10.98576 M 23.98567 33.20801 L 58.25093 22.52406 M 23.98567 44.74632 L 58.25093 34.06236 "/>
<clipPath id="cp13">
<path transform="matrix(1,0,0,-1,6.957,49.560998)" d="M 58.25093 6.37044 L 58.25093 38.67769 L 23.98567 49.36163 L 0 34.1019 L 0 1.79465 L 34.26526 -8.88928 Z "/>
</clipPath>
<g clip-path="url(#cp13)">
<path transform="matrix(1,0,0,-1,6.957,49.560998)" stroke-width=".3985" stroke-linecap="butt" stroke-miterlimit="10" stroke-linejoin="miter" fill="none" stroke="#000000" d="M 16.06477 32.4159 L 18.84589 31.00372 L 21.62698 30.68158 "/>
<path transform="matrix(1,0,0,-1,6.957,49.560998)" stroke-width=".3985" stroke-linecap="butt" stroke-miterlimit="10" stroke-linejoin="miter" fill="none" stroke="#000000" d="M 16.06477 -3.289 L 18.84589 -3.61116 L 21.62698 -5.02332 "/>
<path transform="matrix(1,0,0,-1,6.957,49.560998)" stroke-width=".3985" stroke-linecap="butt" stroke-miterlimit="10" stroke-linejoin="miter" fill="none" stroke="#000000" d="M 13.6435 36.37105 L 16.2348 32.69727 L 18.44672 30.0805 L 20.41833 28.356 L 22.27242 27.41454 L 24.12648 27.19978 L 26.0981 27.6948 L 28.31 28.9322 L 30.9013 30.99005 "/>
<path transform="matrix(1,0,0,-1,6.957,49.560998)" stroke-width=".3985" stroke-linecap="butt" stroke-miterlimit="10" stroke-linejoin="miter" fill="none" stroke="#000000" d="M 13.6435 .76247 L 16.2348 2.82031 L 18.44672 4.05772 L 20.41833 4.55272 L 22.27242 4.33794 L 24.12648 3.39651 L 26.0981 1.672 L 28.31 -.94473 L 30.9013 -4.61852 "/>
<path transform="matrix(1,0,0,-1,6.957,49.560998)" stroke-width=".3985" stroke-linecap="butt" stroke-miterlimit="10" stroke-linejoin="miter" fill="none" stroke="#000000" d="M 15.45494 38.35033 L 17.88194 34.06474 L 19.81818 30.78424 L 21.38448 28.30362 L 22.68013 26.4667 L 23.78609 25.15834 L 24.7719 24.2961 L 25.69894 23.82535 L 26.62596 23.71799 L 27.61177 23.96548 L 28.71773 24.58418 L 30.01338 25.61313 L 31.57968 27.11699 L 33.51591 29.19006 L 35.94292 31.96217 "/>
<path transform="matrix(1,0,0,-1,6.957,49.560998)" stroke-width=".3985" stroke-linecap="butt" stroke-miterlimit="10" stroke-linejoin="miter" fill="none" stroke="#000000" d="M 15.45494 4.15027 L 17.88194 6.92238 L 19.81818 8.99544 L 21.38448 10.49931 L 22.68013 11.52824 L 23.78609 12.14694 L 24.7719 12.39445 L 25.69894 12.28705 L 26.62596 11.81635 L 27.61177 10.95409 L 28.71773 9.6457 L 30.01338 7.80882 L 31.57968 5.3282 L 33.51591 2.0477 L 35.94292 -2.23787 "/>
<path transform="matrix(1,0,0,-1,6.957,49.560998)" stroke-width=".79701" stroke-linecap="butt" stroke-miterlimit="10" stroke-linejoin="miter" fill="none" stroke="#008060" d="M 17.70367 5.84923 L 19.13138 7.64734 L 20.55908 9.4459 L 21.9868 11.24425 L 23.4145 13.04259 L 24.84222 14.8409 L 26.26994 16.63931 L 27.69765 18.43771 L 29.12535 20.23605 L 30.55307 22.03441 L 31.98077 23.8328 L 33.40848 25.6312 L 34.8362 27.42937 L 36.26392 29.22794 L 37.69162 31.02606 L 39.11934 32.82462 L 40.54704 34.62297 "/>
<path transform="matrix(1,0,0,-1,6.957,49.560998)" stroke-width=".79701" stroke-linecap="butt" stroke-miterlimit="10" stroke-linejoin="miter" fill="none" stroke="#008060" d="M 17.70367 41.74579 L 19.13138 39.05736 L 20.55908 36.36845 L 21.9868 33.67978 L 23.4145 30.9911 L 24.84222 28.30249 L 26.26994 25.61375 L 27.69765 22.92505 L 29.12535 20.23637 L 30.55307 17.54768 L 31.98077 14.85898 L 33.40848 12.17026 L 34.8362 9.48177 L 36.26392 6.79288 L 37.69162 4.10443 L 39.11934 1.41553 L 40.54704 -1.27313 "/>
<path transform="matrix(1,0,0,-1,6.957,49.560998)" stroke-width=".3985" stroke-linecap="butt" stroke-miterlimit="10" stroke-linejoin="miter" fill="none" stroke="#000000" d="M 22.308 42.71025 L 24.735 38.42467 L 26.67122 35.14417 L 28.23753 32.66354 L 29.53317 30.82664 L 30.63914 29.51826 L 31.62494 28.65602 L 32.55199 28.18529 L 33.47902 28.07791 L 34.46483 28.32541 L 35.57079 28.9441 L 36.86642 29.97305 L 38.43274 31.47691 L 40.36897 33.54999 L 42.79596 36.3221 "/>
<path transform="matrix(1,0,0,-1,6.957,49.560998)" stroke-width=".3985" stroke-linecap="butt" stroke-miterlimit="10" stroke-linejoin="miter" fill="none" stroke="#000000" d="M 22.308 8.5102 L 24.735 11.2823 L 26.67122 13.35538 L 28.23753 14.85924 L 29.53317 15.88817 L 30.63914 16.50687 L 31.62494 16.75438 L 32.55199 16.64697 L 33.47902 16.17627 L 34.46483 15.31401 L 35.57079 14.00563 L 36.86642 12.16875 L 38.43274 9.68813 L 40.36897 6.40762 L 42.79596 2.12204 "/>
<path transform="matrix(1,0,0,-1,6.957,49.560998)" stroke-width=".3985" stroke-linecap="butt" stroke-miterlimit="10" stroke-linejoin="miter" fill="none" stroke="#000000" d="M 27.3496 45.0909 L 29.94092 41.41711 L 32.15282 38.80037 L 34.12444 37.07585 L 35.97852 36.1344 L 37.83258 35.91963 L 39.8042 36.41464 L 42.0161 37.65205 L 44.60742 39.7099 "/>
<path transform="matrix(1,0,0,-1,6.957,49.560998)" stroke-width=".3985" stroke-linecap="butt" stroke-miterlimit="10" stroke-linejoin="miter" fill="none" stroke="#000000" d="M 27.3496 9.48232 L 29.94092 11.54016 L 32.15282 12.77757 L 34.12444 13.27258 L 35.97852 13.05779 L 37.83258 12.11636 L 39.8042 10.39185 L 42.0161 7.7751 L 44.60742 4.10132 "/>
<path transform="matrix(1,0,0,-1,6.957,49.560998)" stroke-width=".3985" stroke-linecap="butt" stroke-miterlimit="10" stroke-linejoin="miter" fill="none" stroke="#000000" d="M 36.62393 45.49568 L 39.40504 44.08351 L 42.18614 43.76137 "/>
<path transform="matrix(1,0,0,-1,6.957,49.560998)" stroke-width=".3985" stroke-linecap="butt" stroke-miterlimit="10" stroke-linejoin="miter" fill="none" stroke="#000000" d="M 36.62393 9.79077 L 39.40504 9.46861 L 42.18614 8.05644 "/>
</g>
<text xml:space="preserve" transform="matrix(.625 0 -0 .625 7.5255005 59.827875)" font-size="9.96264" font-family="CMMI10" font-style="italic"><tspan y="-2.075" x="20.068">x</tspan></text>
<text xml:space="preserve" transform="matrix(.625 0 -0 .625 20.578873 58.89487)" font-size="9.96264" font-family="CMMI10" font-style="italic"><tspan y="-4.563" x="54.877">y</tspan></text>
<text xml:space="preserve" transform="matrix(0 -.625 .625 0 21.59225 36.6405)" font-size="9.96264" font-family="CMMI10" font-style="italic"><tspan y="-26.938" x="4.756">z</tspan></text>
</g>
</svg>
