<?xml version="1.0" encoding="UTF-8" standalone="no"?>
<!DOCTYPE svg PUBLIC "-//W3C//DTD SVG 1.1//EN" "http://www.w3.org/Graphics/SVG/1.1/DTD/svg11.dtd">
<svg xmlns="http://www.w3.org/2000/svg" xmlns:xlink="http://www.w3.org/1999/xlink" version="1.1" width="65.406pt" height="60.606pt" viewBox="0 0 65.406 60.606">
<g enable-background="new">
<path transform="matrix(1,0,0,-1,6.957,50.059)" stroke-width=".3985" stroke-linecap="butt" stroke-miterlimit="10" stroke-linejoin="miter" fill="none" stroke="#cbcbcb" d="M 4.89503 .76645 L 28.8807 16.02618 M 17.13263 -3.04924 L 41.1183 12.2105 M 29.37021 -6.86493 L 53.3559 8.3948 "/>
<path transform="matrix(1,0,0,-1,6.957,50.059)" stroke-width=".3985" stroke-linecap="butt" stroke-miterlimit="10" stroke-linejoin="miter" fill="none" stroke="#cbcbcb" d="M 3.42651 4.47269 L 37.69177 -6.21124 M 11.99283 9.92259 L 46.25809 -.76134 M 20.55914 15.37251 L 54.8244 4.68855 "/>
<path transform="matrix(1,0,0,-1,6.957,50.059)" stroke-width=".3985" stroke-linecap="butt" stroke-miterlimit="10" stroke-linejoin="miter" fill="none" stroke="#000000" d="M 0 2.29272 L 34.26526 -8.3912 "/>
<path transform="matrix(1,0,0,-1,6.957,50.059)" stroke-width=".3985" stroke-linecap="butt" stroke-miterlimit="10" stroke-linejoin="miter" fill="none" stroke="#000000" d="M 23.98567 17.55247 L 58.25093 6.86852 "/>
<path transform="matrix(1,0,0,-1,6.957,50.059)" stroke-width=".3985" stroke-linecap="butt" stroke-miterlimit="10" stroke-linejoin="miter" fill="none" stroke="#000000" d="M 0 2.29272 L 23.98567 17.55247 "/>
<path transform="matrix(1,0,0,-1,6.957,50.059)" stroke-width=".3985" stroke-linecap="butt" stroke-miterlimit="10" stroke-linejoin="miter" fill="none" stroke="#000000" d="M 34.26526 -8.3912 L 58.25093 6.86852 "/>
<path transform="matrix(1,0,0,-1,6.957,50.059)" stroke-width=".3985" stroke-linecap="butt" stroke-miterlimit="10" stroke-linejoin="miter" fill="none" stroke="#000000" d="M 23.98567 49.85971 L 58.25093 39.17577 "/>
<path transform="matrix(1,0,0,-1,6.957,50.059)" stroke-width=".3985" stroke-linecap="butt" stroke-miterlimit="10" stroke-linejoin="miter" fill="none" stroke="#000000" d="M 0 34.59998 L 23.98567 49.85971 "/>
<path transform="matrix(1,0,0,-1,6.957,50.059)" stroke-width=".3985" stroke-linecap="butt" stroke-miterlimit="10" stroke-linejoin="miter" fill="none" stroke="#cbcbcb" d="M 3.42651 4.47269 L 3.42651 36.77994 M 11.99283 9.92259 L 11.99283 42.22984 M 20.55914 15.37251 L 20.55914 47.67975 "/>
<path transform="matrix(1,0,0,-1,6.957,50.059)" stroke-width=".3985" stroke-linecap="butt" stroke-miterlimit="10" stroke-linejoin="miter" fill="none" stroke="#cbcbcb" d="M 0 6.90805 L 23.98567 22.16779 M 0 18.44635 L 23.98567 33.70609 M 0 29.98465 L 23.98567 45.2444 "/>
<path transform="matrix(1,0,0,-1,6.957,50.059)" stroke-width=".3985" stroke-linecap="butt" stroke-miterlimit="10" stroke-linejoin="miter" fill="none" stroke="#000000" d="M 0 2.29272 L 0 34.59998 "/>
<path transform="matrix(1,0,0,-1,6.957,50.059)" stroke-width=".3985" stroke-linecap="butt" stroke-miterlimit="10" stroke-linejoin="miter" fill="none" stroke="#000000" d="M 23.98567 17.55247 L 23.98567 49.85971 "/>
<path transform="matrix(1,0,0,-1,6.957,50.059)" stroke-width=".3985" stroke-linecap="butt" stroke-miterlimit="10" stroke-linejoin="miter" fill="none" stroke="#000000" d="M 58.25093 6.86852 L 58.25093 39.17577 "/>
<path transform="matrix(1,0,0,-1,6.957,50.059)" stroke-width=".3985" stroke-linecap="butt" stroke-miterlimit="10" stroke-linejoin="miter" fill="none" stroke="#cbcbcb" d="M 28.8807 16.02618 L 28.8807 48.33344 M 41.1183 12.2105 L 41.1183 44.51775 M 53.3559 8.3948 L 53.3559 40.70204 "/>
<path transform="matrix(1,0,0,-1,6.957,50.059)" stroke-width=".3985" stroke-linecap="butt" stroke-miterlimit="10" stroke-linejoin="miter" fill="none" stroke="#cbcbcb" d="M 23.98567 22.16779 L 58.25093 11.48384 M 23.98567 33.70609 L 58.25093 23.02214 M 23.98567 45.2444 L 58.25093 34.56044 "/>
<clipPath id="cp14">
<path transform="matrix(1,0,0,-1,6.957,50.059)" d="M 58.25093 6.86852 L 58.25093 39.17577 L 23.98567 49.85971 L 0 34.59998 L 0 2.29272 L 34.26526 -8.3912 Z "/>
</clipPath>
<g clip-path="url(#cp14)">
<path transform="matrix(1,0,0,-1,6.957,50.059)" stroke-width=".3985" stroke-linecap="butt" stroke-miterlimit="10" stroke-linejoin="miter" fill="none" stroke="#000000" d="M 14.57454 38.10641 L 17.0281 38.1877 L 19.33539 39.17116 L 21.64265 41.12349 L 24.09622 44.16414 "/>
<path transform="matrix(1,0,0,-1,6.957,50.059)" stroke-width=".3985" stroke-linecap="butt" stroke-miterlimit="10" stroke-linejoin="miter" fill="none" stroke="#000000" d="M 14.57454 3.40942 L 17.0281 6.45009 L 19.33539 8.40244 L 21.64265 9.38588 L 24.09622 9.46716 "/>
<path transform="matrix(1,0,0,-1,6.957,50.059)" stroke-width=".3985" stroke-linecap="butt" stroke-miterlimit="10" stroke-linejoin="miter" fill="none" stroke="#000000" d="M 13.72926 35.7042 L 16.14781 34.37706 L 18.21225 33.76338 L 20.05243 33.82437 L 21.78291 34.56197 L 23.51337 36.0262 L 25.35355 38.3067 L 27.418 41.54718 L 29.83653 45.95168 "/>
<path transform="matrix(1,0,0,-1,6.957,50.059)" stroke-width=".3985" stroke-linecap="butt" stroke-miterlimit="10" stroke-linejoin="miter" fill="none" stroke="#000000" d="M 13.72926 .09561 L 16.14781 4.5001 L 18.21225 7.7406 L 20.05243 10.02109 L 21.78291 11.48537 L 23.51337 12.22293 L 25.35355 12.2839 L 27.418 11.67023 L 29.83653 10.3431 "/>
<path transform="matrix(1,0,0,-1,6.957,50.059)" stroke-width=".3985" stroke-linecap="butt" stroke-miterlimit="10" stroke-linejoin="miter" fill="none" stroke="#000000" d="M 14.5027 34.16644 L 16.9122 32.13037 L 18.86137 30.71411 L 20.47372 29.82938 L 21.85 29.42027 L 23.0768 29.4609 L 24.23042 29.95265 L 25.38405 30.9288 L 26.61082 32.4491 L 27.9871 34.6094 L 29.59946 37.54572 L 31.54863 41.4421 L 33.95815 46.54402 "/>
<path transform="matrix(1,0,0,-1,6.957,50.059)" stroke-width=".3985" stroke-linecap="butt" stroke-miterlimit="10" stroke-linejoin="miter" fill="none" stroke="#000000" d="M 14.5027 -2.023 L 16.9122 3.07892 L 18.86137 6.9753 L 20.47372 9.9116 L 21.85 12.07191 L 23.0768 13.59222 L 24.23042 14.56839 L 25.38405 15.0601 L 26.61082 15.10074 L 27.9871 14.69164 L 29.59946 13.8069 L 31.54863 12.39064 L 33.95815 10.35458 "/>
<path transform="matrix(1,0,0,-1,6.957,50.059)" stroke-width=".3985" stroke-linecap="butt" stroke-miterlimit="10" stroke-linejoin="miter" fill="none" stroke="#000000" d="M 15.96272 33.12668 L 18.39362 30.69542 L 20.30435 28.84169 L 21.81438 27.44997 L 23.01906 26.432 L 23.99358 25.7239 L 24.79971 25.28159 L 25.48781 25.07704 L 26.10115 25.09735 L 26.67795 25.34322 L 27.25471 25.83125 L 27.86806 26.59135 L 28.55617 27.67143 L 29.36229 29.13951 L 30.33682 31.0876 L 31.5415 33.6384 L 33.05153 36.95148 L 34.96227 41.23642 L 37.39314 46.76077 "/>
<path transform="matrix(1,0,0,-1,6.957,50.059)" stroke-width=".3985" stroke-linecap="butt" stroke-miterlimit="10" stroke-linejoin="miter" fill="none" stroke="#000000" d="M 15.96272 -3.766 L 18.39362 1.75832 L 20.30435 6.04326 L 21.81438 9.35634 L 23.01906 11.90715 L 23.99358 13.85522 L 24.79971 15.3233 L 25.48781 16.40338 L 26.10115 17.16348 L 26.67795 17.65154 L 27.25471 17.89738 L 27.86806 17.9177 L 28.55617 17.71315 L 29.36229 17.27083 L 30.33682 16.56274 L 31.5415 15.54477 L 33.05153 14.15305 L 34.96227 12.29932 L 37.39314 9.86807 "/>
<path transform="matrix(1,0,0,-1,6.957,50.059)" stroke-width=".79701" stroke-linecap="butt" stroke-miterlimit="10" stroke-linejoin="miter" fill="none" stroke="#008060" d="M 19.13141 -2.45052 L 20.1308 -.13219 L 21.1302 2.18637 L 22.12961 4.50514 L 23.129 6.82326 L 24.12839 9.14183 L 25.12779 11.4604 L 26.1272 13.77864 L 27.12659 16.09712 L 28.12599 18.41562 L 29.12538 20.73407 L 30.12479 23.05254 L 31.12418 25.37102 L 32.12358 27.68947 L 33.12297 30.00798 L 34.12238 32.32608 L 35.12178 34.64465 L 36.12117 36.96323 L 37.12056 39.28156 L 38.11995 41.60011 L 39.11937 43.9189 "/>
<path transform="matrix(1,0,0,-1,6.957,50.059)" stroke-width=".79701" stroke-linecap="butt" stroke-miterlimit="10" stroke-linejoin="miter" fill="none" stroke="#008060" d="M 19.13141 31.20253 L 20.1308 30.15584 L 21.1302 29.1089 L 22.12961 28.06175 L 23.129 27.01529 L 24.12839 25.96837 L 25.12779 24.92143 L 26.1272 23.8748 L 27.12659 22.82797 L 28.12599 21.78111 L 29.12538 20.7343 L 30.12479 19.68747 L 31.12418 18.64063 L 32.12358 17.59383 L 33.12297 16.54695 L 34.12238 15.50046 L 35.12178 14.45355 L 36.12117 13.40662 L 37.12056 12.35992 L 38.11995 11.31299 L 39.11937 10.26584 "/>
<path transform="matrix(1,0,0,-1,6.957,50.059)" stroke-width=".3985" stroke-linecap="butt" stroke-miterlimit="10" stroke-linejoin="miter" fill="none" stroke="#000000" d="M 20.85776 31.6004 L 23.28865 29.16914 L 25.19939 27.31541 L 26.70941 25.92368 L 27.9141 24.90573 L 28.88861 24.19763 L 29.69475 23.75531 L 30.38284 23.55077 L 30.99619 23.57108 L 31.57298 23.81693 L 32.14977 24.30498 L 32.76309 25.06508 L 33.4512 26.14516 L 34.25732 27.61324 L 35.23186 29.56133 L 36.43654 32.11212 L 37.94656 35.42519 L 39.8573 39.71014 L 42.2882 45.2345 "/>
<path transform="matrix(1,0,0,-1,6.957,50.059)" stroke-width=".3985" stroke-linecap="butt" stroke-miterlimit="10" stroke-linejoin="miter" fill="none" stroke="#000000" d="M 20.85776 -5.29228 L 23.28865 .23204 L 25.19939 4.51698 L 26.70941 7.83006 L 27.9141 10.38087 L 28.88861 12.32895 L 29.69475 13.79701 L 30.38284 14.8771 L 30.99619 15.6372 L 31.57298 16.12526 L 32.14977 16.37111 L 32.76309 16.39142 L 33.4512 16.18687 L 34.25732 15.74454 L 35.23186 15.03647 L 36.43654 14.0185 L 37.94656 12.62677 L 39.8573 10.77304 L 42.2882 8.34178 "/>
<path transform="matrix(1,0,0,-1,6.957,50.059)" stroke-width=".3985" stroke-linecap="butt" stroke-miterlimit="10" stroke-linejoin="miter" fill="none" stroke="#000000" d="M 24.29277 31.11388 L 26.70229 29.07782 L 28.65144 27.66156 L 30.26381 26.77682 L 31.64008 26.36772 L 32.86687 26.40836 L 34.0205 26.90009 L 35.17412 27.87624 L 36.4009 29.39655 L 37.77718 31.55685 L 39.38954 34.49316 L 41.3387 38.38953 L 43.74821 43.49147 "/>
<path transform="matrix(1,0,0,-1,6.957,50.059)" stroke-width=".3985" stroke-linecap="butt" stroke-miterlimit="10" stroke-linejoin="miter" fill="none" stroke="#000000" d="M 24.29277 -5.07555 L 26.70229 .02637 L 28.65144 3.92274 L 30.26381 6.85905 L 31.64008 9.01936 L 32.86687 10.53966 L 34.0205 11.51582 L 35.17412 12.00755 L 36.4009 12.04819 L 37.77718 11.63908 L 39.38954 10.75435 L 41.3387 9.33807 L 43.74821 7.30202 "/>
<path transform="matrix(1,0,0,-1,6.957,50.059)" stroke-width=".3985" stroke-linecap="butt" stroke-miterlimit="10" stroke-linejoin="miter" fill="none" stroke="#000000" d="M 28.41437 31.12537 L 30.83292 29.79823 L 32.89737 29.18456 L 34.73755 29.24553 L 36.46802 29.98312 L 38.19847 31.44737 L 40.03867 33.72786 L 42.1031 36.96835 L 44.52165 41.37285 "/>
<path transform="matrix(1,0,0,-1,6.957,50.059)" stroke-width=".3985" stroke-linecap="butt" stroke-miterlimit="10" stroke-linejoin="miter" fill="none" stroke="#000000" d="M 28.41437 -4.48322 L 30.83292 -.0787 L 32.89737 3.16176 L 34.73755 5.44226 L 36.46802 6.90652 L 38.19847 7.64409 L 40.03867 7.70506 L 42.1031 7.0914 L 44.52165 5.76427 "/>
<path transform="matrix(1,0,0,-1,6.957,50.059)" stroke-width=".3985" stroke-linecap="butt" stroke-miterlimit="10" stroke-linejoin="miter" fill="none" stroke="#000000" d="M 34.1547 32.0013 L 36.60826 32.08258 L 38.91554 33.06604 L 41.22281 35.01837 L 43.67638 38.05902 "/>
<path transform="matrix(1,0,0,-1,6.957,50.059)" stroke-width=".3985" stroke-linecap="butt" stroke-miterlimit="10" stroke-linejoin="miter" fill="none" stroke="#000000" d="M 34.1547 -2.69566 L 36.60826 .34497 L 38.91554 2.29732 L 41.22281 3.28076 L 43.67638 3.36205 "/>
</g>
<text xml:space="preserve" transform="matrix(.625 0 -0 .625 7.5255005 59.827875)" font-size="9.96264" font-family="CMMI10" font-style="italic"><tspan y="-2.075" x="20.068">x</tspan></text>
<text xml:space="preserve" transform="matrix(.625 0 -0 .625 20.578873 58.894876)" font-size="9.96264" font-family="CMMI10" font-style="italic"><tspan y="-4.563" x="54.877">y</tspan></text>
<text xml:space="preserve" transform="matrix(0 -.625 .625 0 21.59225 36.6405)" font-size="9.96264" font-family="CMMI10" font-style="italic"><tspan y="-26.938" x="4.756">z</tspan></text>
</g>
</svg>
