<?xml version="1.0" encoding="UTF-8" standalone="no"?>
<!DOCTYPE svg PUBLIC "-//W3C//DTD SVG 1.1//EN" "http://www.w3.org/Graphics/SVG/1.1/DTD/svg11.dtd">
<svg xmlns="http://www.w3.org/2000/svg" xmlns:xlink="http://www.w3.org/1999/xlink" version="1.1" width="65.406pt" height="60.606pt" viewBox="0 0 65.406 60.606">
<g enable-background="new">
<path transform="matrix(1,0,0,-1,6.957,47.766)" stroke-width=".3985" stroke-linecap="butt" stroke-miterlimit="10" stroke-linejoin="miter" fill="none" stroke="#cbcbcb" d="M 4.89503 -1.52628 L 28.8807 13.73346 M 17.13263 -5.34196 L 41.1183 9.91777 M 29.37021 -9.15767 L 53.3559 6.10207 "/>
<path transform="matrix(1,0,0,-1,6.957,47.766)" stroke-width=".3985" stroke-linecap="butt" stroke-miterlimit="10" stroke-linejoin="miter" fill="none" stroke="#cbcbcb" d="M 3.42651 2.17996 L 37.69177 -8.50398 M 11.99283 7.62987 L 46.25809 -3.05408 M 20.55914 13.07977 L 54.8244 2.39583 "/>
<path transform="matrix(1,0,0,-1,6.957,47.766)" stroke-width=".3985" stroke-linecap="butt" stroke-miterlimit="10" stroke-linejoin="miter" fill="none" stroke="#000000" d="M 0 0 L 34.26526 -10.68394 "/>
<path transform="matrix(1,0,0,-1,6.957,47.766)" stroke-width=".3985" stroke-linecap="butt" stroke-miterlimit="10" stroke-linejoin="miter" fill="none" stroke="#000000" d="M 23.98567 15.25974 L 58.25093 4.57579 "/>
<path transform="matrix(1,0,0,-1,6.957,47.766)" stroke-width=".3985" stroke-linecap="butt" stroke-miterlimit="10" stroke-linejoin="miter" fill="none" stroke="#000000" d="M 0 0 L 23.98567 15.25974 "/>
<path transform="matrix(1,0,0,-1,6.957,47.766)" stroke-width=".3985" stroke-linecap="butt" stroke-miterlimit="10" stroke-linejoin="miter" fill="none" stroke="#000000" d="M 34.26526 -10.68394 L 58.25093 4.57579 "/>
<path transform="matrix(1,0,0,-1,6.957,47.766)" stroke-width=".3985" stroke-linecap="butt" stroke-miterlimit="10" stroke-linejoin="miter" fill="none" stroke="#000000" d="M 23.98567 47.56699 L 58.25093 36.88303 "/>
<path transform="matrix(1,0,0,-1,6.957,47.766)" stroke-width=".3985" stroke-linecap="butt" stroke-miterlimit="10" stroke-linejoin="miter" fill="none" stroke="#000000" d="M 0 32.30724 L 23.98567 47.56699 "/>
<path transform="matrix(1,0,0,-1,6.957,47.766)" stroke-width=".3985" stroke-linecap="butt" stroke-miterlimit="10" stroke-linejoin="miter" fill="none" stroke="#cbcbcb" d="M 3.42651 2.17996 L 3.42651 34.4872 M 11.99283 7.62987 L 11.99283 39.9371 M 20.55914 13.07977 L 20.55914 45.38702 "/>
<path transform="matrix(1,0,0,-1,6.957,47.766)" stroke-width=".3985" stroke-linecap="butt" stroke-miterlimit="10" stroke-linejoin="miter" fill="none" stroke="#cbcbcb" d="M 0 4.61531 L 23.98567 19.87506 M 0 16.15361 L 23.98567 31.41336 M 0 27.69191 L 23.98567 42.95166 "/>
<path transform="matrix(1,0,0,-1,6.957,47.766)" stroke-width=".3985" stroke-linecap="butt" stroke-miterlimit="10" stroke-linejoin="miter" fill="none" stroke="#000000" d="M 0 0 L 0 32.30724 "/>
<path transform="matrix(1,0,0,-1,6.957,47.766)" stroke-width=".3985" stroke-linecap="butt" stroke-miterlimit="10" stroke-linejoin="miter" fill="none" stroke="#000000" d="M 23.98567 15.25974 L 23.98567 47.56699 "/>
<path transform="matrix(1,0,0,-1,6.957,47.766)" stroke-width=".3985" stroke-linecap="butt" stroke-miterlimit="10" stroke-linejoin="miter" fill="none" stroke="#000000" d="M 58.25093 4.57579 L 58.25093 36.88303 "/>
<path transform="matrix(1,0,0,-1,6.957,47.766)" stroke-width=".3985" stroke-linecap="butt" stroke-miterlimit="10" stroke-linejoin="miter" fill="none" stroke="#cbcbcb" d="M 28.8807 13.73346 L 28.8807 46.04071 M 41.1183 9.91777 L 41.1183 42.225 M 53.3559 6.10207 L 53.3559 38.40932 "/>
<path transform="matrix(1,0,0,-1,6.957,47.766)" stroke-width=".3985" stroke-linecap="butt" stroke-miterlimit="10" stroke-linejoin="miter" fill="none" stroke="#cbcbcb" d="M 23.98567 19.87506 L 58.25093 9.1911 M 23.98567 31.41336 L 58.25093 20.72942 M 23.98567 42.95166 L 58.25093 32.26772 "/>
<clipPath id="cp16">
<path transform="matrix(1,0,0,-1,6.957,47.766)" d="M 58.25093 4.57579 L 58.25093 36.88303 L 23.98567 47.56699 L 0 32.30724 L 0 0 L 34.26526 -10.68394 Z "/>
</clipPath>
<g clip-path="url(#cp16)">
<path transform="matrix(1,0,0,-1,6.957,47.766)" stroke-width=".3985" stroke-linecap="butt" stroke-miterlimit="10" stroke-linejoin="miter" fill="none" stroke="#000000" d="M 18.84589 5.49307 L 19.7025 6.57211 L 20.55913 7.65114 L 21.41577 8.73016 L 22.27238 9.80919 L 23.12901 10.88823 L 23.98564 11.96725 L 24.84225 13.04628 L 25.6989 14.1253 L 26.55551 15.20435 L 27.41214 16.28339 L 28.26877 17.36241 L 29.12538 18.44144 L 29.98203 19.52046 L 30.83865 20.59949 L 31.69527 21.67851 L 32.5519 22.75755 L 33.40852 23.83658 L 34.26515 24.9156 L 35.12178 25.99464 L 35.97841 27.07368 L 36.83502 28.15271 L 37.69165 29.23172 L 38.5483 30.31078 L 39.4049 31.3898 "/>
<path transform="matrix(1,0,0,-1,6.957,47.766)" stroke-width=".3985" stroke-linecap="butt" stroke-miterlimit="10" stroke-linejoin="miter" fill="none" stroke="#000000" d="M 15.4259 2.01173 L 16.5675 3.38084 L 17.70912 4.74998 L 18.85077 6.11914 L 19.99239 7.48828 L 21.134 8.85742 L 22.27563 10.22656 L 23.41724 11.59572 L 24.55888 12.96484 L 25.70049 14.334 L 26.84213 15.70313 L 27.98373 17.07227 L 29.12537 18.4414 L 30.26698 19.81055 L 31.40862 21.17969 L 32.55023 22.54881 L 33.69186 23.91797 L 34.83347 25.2871 L 35.97511 26.65625 L 37.11671 28.02539 L 38.25836 29.39452 L 39.39996 30.76366 L 40.54158 32.1328 L 41.68323 33.50195 L 42.82484 34.8711 "/>
<path transform="matrix(1,0,0,-1,6.957,47.766)" stroke-width=".3985" stroke-linecap="butt" stroke-miterlimit="10" stroke-linejoin="miter" fill="none" stroke="#000000" d="M 15.67674 -1.39568 L 16.79745 .2574 L 17.91817 1.91049 L 19.0389 3.5636 L 20.1596 5.21667 L 21.28033 6.86977 L 22.40105 8.52284 L 23.52177 10.17593 L 24.64249 11.82903 L 25.76321 13.48213 L 26.88393 15.13521 L 28.00465 16.7883 L 29.12535 18.44138 L 30.24608 20.09447 L 31.36679 21.74756 L 32.48753 23.40063 L 33.60825 25.05374 L 34.72897 26.70682 L 35.84967 28.35991 L 36.9704 30.01302 L 38.09113 31.6661 L 39.21184 33.31918 L 40.33257 34.97226 L 41.4533 36.6254 L 42.574 38.27847 "/>
<path transform="matrix(1,0,0,-1,6.957,47.766)" stroke-width=".3985" stroke-linecap="butt" stroke-miterlimit="10" stroke-linejoin="miter" fill="none" stroke="#000000" d="M 19.53119 -3.816 L 20.33069 -1.96123 L 21.1302 -.10645 L 21.92975 1.74832 L 22.72926 3.6031 L 23.52878 5.45789 L 24.3283 7.31267 L 25.1278 9.16745 L 25.92734 11.02223 L 26.72685 12.87703 L 27.52637 14.7318 L 28.32588 16.58658 L 29.1254 18.44136 L 29.92493 20.29614 L 30.72444 22.15092 L 31.52396 24.00569 L 32.32347 25.86049 L 33.12299 27.71527 L 33.9225 29.57005 L 34.72203 31.42484 L 35.52155 33.27962 L 36.32106 35.1344 L 37.12056 36.98917 L 37.92009 38.84398 L 38.71962 40.69876 "/>
<path transform="matrix(1,0,0,-1,6.957,47.766)" stroke-width=".3985" stroke-linecap="butt" stroke-miterlimit="10" stroke-linejoin="miter" fill="none" stroke="#000000" d="M 25.95631 -4.60086 L 26.22041 -2.68068 L 26.4845 -.7605 L 26.74858 1.15968 L 27.01268 3.07986 L 27.27676 5.00006 L 27.54085 6.92024 L 27.80498 8.84042 L 28.06906 10.76062 L 28.33315 12.68082 L 28.59724 14.601 L 28.86133 16.52118 L 29.12543 18.44136 L 29.38953 20.36156 L 29.65361 22.28174 L 29.91771 24.20192 L 30.18181 26.12212 L 30.44589 28.0423 L 30.70999 29.96248 L 30.97409 31.88266 L 31.23817 33.80286 L 31.50226 35.72304 L 31.76636 37.6432 L 32.03046 39.56343 L 32.29456 41.48361 "/>
<path transform="matrix(1,0,0,-1,6.957,47.766)" stroke-width=".3985" stroke-linecap="butt" stroke-miterlimit="10" stroke-linejoin="miter" fill="none" stroke="#000000" d="M 33.23074 -3.53983 L 32.88864 -1.70807 L 32.54651 .12367 L 32.2044 1.95546 L 31.86232 3.78722 L 31.52022 5.61899 L 31.17812 7.45076 L 30.836 9.28253 L 30.4939 11.11429 L 30.1518 12.94608 L 29.8097 14.77782 L 29.46759 16.6096 L 29.12547 18.44136 L 28.78337 20.27312 L 28.44127 22.1049 L 28.09917 23.93668 L 27.75705 25.76845 L 27.41495 27.60022 L 27.07285 29.43199 L 26.73074 31.26376 L 26.38864 33.09552 L 26.04652 34.92728 L 25.7044 36.75905 L 25.3623 38.59084 L 25.02022 40.4226 "/>
<path transform="matrix(1,0,0,-1,6.957,47.766)" stroke-width=".3985" stroke-linecap="butt" stroke-miterlimit="10" stroke-linejoin="miter" fill="none" stroke="#000000" d="M 39.40504 -.91728 L 38.54842 .69592 L 37.69177 2.30914 L 36.83514 3.92238 L 35.97853 5.5356 L 35.1219 7.14883 L 34.26527 8.76205 L 33.40865 10.37527 L 32.55202 11.9885 L 31.6954 13.60173 L 30.83878 15.21494 L 29.98215 16.82817 L 29.12552 18.44139 L 28.26889 20.05461 L 27.41226 21.66785 L 26.55565 23.28107 L 25.69902 24.8943 L 24.84238 26.5075 L 23.98576 28.12074 L 23.12914 29.73395 L 22.2725 31.34718 L 21.41588 32.9604 L 20.55925 34.57362 L 19.70262 36.18687 L 18.84601 37.8001 "/>
<path transform="matrix(1,0,0,-1,6.957,47.766)" stroke-width=".3985" stroke-linecap="butt" stroke-miterlimit="10" stroke-linejoin="miter" fill="none" stroke="#000000" d="M 42.82501 2.56407 L 41.6834 3.88716 L 40.54176 5.21027 L 39.40013 6.53339 L 38.25851 7.85649 L 37.1169 9.17961 L 35.97527 10.50272 L 34.83365 11.82584 L 33.69202 13.14894 L 32.55042 14.47206 L 31.40877 15.79518 L 30.26717 17.1183 L 29.12552 18.4414 L 27.98392 19.76451 L 26.84229 21.08763 L 25.70067 22.41075 L 24.55904 23.73387 L 23.41742 25.05698 L 22.27579 26.3801 L 21.13417 27.7032 L 19.99254 29.02634 L 18.85094 30.34944 L 17.7093 31.67255 L 16.56767 32.99567 L 15.42604 34.31877 "/>
<path transform="matrix(1,0,0,-1,6.957,47.766)" stroke-width=".3985" stroke-linecap="butt" stroke-miterlimit="10" stroke-linejoin="miter" fill="none" stroke="#000000" d="M 42.57417 5.97145 L 41.45345 7.01062 L 40.33273 8.04977 L 39.212 9.08894 L 38.09128 10.1281 L 36.97057 11.16728 L 35.84984 12.20644 L 34.72913 13.2456 L 33.6084 14.28476 L 32.48769 15.32393 L 31.36696 16.3631 L 30.24625 17.40227 L 29.12553 18.44144 L 28.00482 19.48058 L 26.8841 20.51976 L 25.76337 21.55891 L 24.64264 22.5981 L 23.52193 23.63725 L 22.40121 24.67644 L 21.2805 25.71556 L 20.15977 26.75475 L 19.03906 27.7939 L 17.91833 28.83307 L 16.7976 29.87224 L 15.6769 30.9114 "/>
<path transform="matrix(1,0,0,-1,6.957,47.766)" stroke-width=".3985" stroke-linecap="butt" stroke-miterlimit="10" stroke-linejoin="miter" fill="none" stroke="#000000" d="M 38.71974 8.39178 L 37.92021 9.22925 L 37.1207 10.06671 L 36.32117 10.90419 L 35.52165 11.74165 L 34.72214 12.57915 L 33.9226 13.41661 L 33.1231 14.25409 L 32.32358 15.09154 L 31.52406 15.92902 L 30.72455 16.7665 L 29.92503 17.60397 L 29.1255 18.44144 L 28.32599 19.2789 L 27.52647 20.11638 L 26.72696 20.95386 L 25.92744 21.79134 L 25.12791 22.62878 L 24.3284 23.46626 L 23.52888 24.30373 L 22.72937 25.14122 L 21.92986 25.97868 L 21.13034 26.81615 L 20.33081 27.65364 L 19.5313 28.4911 "/>
<path transform="matrix(1,0,0,-1,6.957,47.766)" stroke-width=".3985" stroke-linecap="butt" stroke-miterlimit="10" stroke-linejoin="miter" fill="none" stroke="#000000" d="M 32.29459 9.17664 L 32.03049 9.94872 L 31.7664 10.72078 L 31.5023 11.49284 L 31.23822 12.26491 L 30.97414 13.03699 L 30.71004 13.80904 L 30.44592 14.58112 L 30.18184 15.35316 L 29.91774 16.12524 L 29.65366 16.89731 L 29.38957 17.66939 L 29.12546 18.44145 L 28.86137 19.2135 L 28.59729 19.98558 L 28.33318 20.75764 L 28.06909 21.52972 L 27.80501 22.30179 L 27.5409 23.07385 L 27.27681 23.84592 L 27.01273 24.618 L 26.74863 25.39006 L 26.48454 26.16212 L 26.22044 26.9342 L 25.95633 27.70627 "/>
<path transform="matrix(1,0,0,-1,6.957,47.766)" stroke-width=".3985" stroke-linecap="butt" stroke-miterlimit="10" stroke-linejoin="miter" fill="none" stroke="#000000" d="M 25.02017 8.11563 L 25.36226 8.9761 L 25.70438 9.83658 L 26.04648 10.69708 L 26.38858 11.55756 L 26.73068 12.41805 L 27.07278 13.27852 L 27.41489 14.13902 L 27.75699 14.9995 L 28.0991 15.85999 L 28.44121 16.72047 L 28.78331 17.58098 L 29.12541 18.44145 L 29.46753 19.30193 L 29.80963 20.16241 L 30.15173 21.02289 L 30.49384 21.88338 L 30.83594 22.74385 L 31.17805 23.60435 L 31.52016 24.46483 L 31.86226 25.32533 L 32.20436 26.1858 L 32.54648 27.0463 L 32.8886 27.9068 L 33.23068 28.76727 "/>
</g>
<text xml:space="preserve" transform="matrix(.625 0 -0 .625 7.5255005 59.827875)" font-size="9.96264" font-family="CMMI10" font-style="italic"><tspan y="-2.075" x="20.068">x</tspan></text>
<text xml:space="preserve" transform="matrix(.625 0 -0 .625 20.578873 58.894876)" font-size="9.96264" font-family="CMMI10" font-style="italic"><tspan y="-4.563" x="54.877">y</tspan></text>
<text xml:space="preserve" transform="matrix(0 -.625 .625 0 21.59225 36.6405)" font-size="9.96264" font-family="CMMI10" font-style="italic"><tspan y="-26.938" x="4.756">z</tspan></text>
</g>
</svg>
