<?xml version="1.0" encoding="UTF-8" standalone="no"?>
<!DOCTYPE svg PUBLIC "-//W3C//DTD SVG 1.1//EN" "http://www.w3.org/Graphics/SVG/1.1/DTD/svg11.dtd">
<svg xmlns="http://www.w3.org/2000/svg" xmlns:xlink="http://www.w3.org/1999/xlink" version="1.1" width="65.406pt" height="60.606pt" viewBox="0 0 65.406 60.606">
<g enable-background="new">
<path transform="matrix(1,0,0,-1,6.957,47.766)" stroke-width=".3985" stroke-linecap="butt" stroke-miterlimit="10" stroke-linejoin="miter" fill="none" stroke="#cbcbcb" d="M 4.89503 -1.52628 L 28.8807 13.73346 M 17.13263 -5.34196 L 41.1183 9.91777 M 29.37021 -9.15767 L 53.3559 6.10207 "/>
<path transform="matrix(1,0,0,-1,6.957,47.766)" stroke-width=".3985" stroke-linecap="butt" stroke-miterlimit="10" stroke-linejoin="miter" fill="none" stroke="#cbcbcb" d="M 3.42651 2.17996 L 37.69177 -8.50398 M 11.99283 7.62987 L 46.25809 -3.05408 M 20.55914 13.07977 L 54.8244 2.39583 "/>
<path transform="matrix(1,0,0,-1,6.957,47.766)" stroke-width=".3985" stroke-linecap="butt" stroke-miterlimit="10" stroke-linejoin="miter" fill="none" stroke="#000000" d="M 0 0 L 34.26526 -10.68394 "/>
<path transform="matrix(1,0,0,-1,6.957,47.766)" stroke-width=".3985" stroke-linecap="butt" stroke-miterlimit="10" stroke-linejoin="miter" fill="none" stroke="#000000" d="M 23.98567 15.25974 L 58.25093 4.57579 "/>
<path transform="matrix(1,0,0,-1,6.957,47.766)" stroke-width=".3985" stroke-linecap="butt" stroke-miterlimit="10" stroke-linejoin="miter" fill="none" stroke="#000000" d="M 0 0 L 23.98567 15.25974 "/>
<path transform="matrix(1,0,0,-1,6.957,47.766)" stroke-width=".3985" stroke-linecap="butt" stroke-miterlimit="10" stroke-linejoin="miter" fill="none" stroke="#000000" d="M 34.26526 -10.68394 L 58.25093 4.57579 "/>
<path transform="matrix(1,0,0,-1,6.957,47.766)" stroke-width=".3985" stroke-linecap="butt" stroke-miterlimit="10" stroke-linejoin="miter" fill="none" stroke="#000000" d="M 23.98567 47.56699 L 58.25093 36.88303 "/>
<path transform="matrix(1,0,0,-1,6.957,47.766)" stroke-width=".3985" stroke-linecap="butt" stroke-miterlimit="10" stroke-linejoin="miter" fill="none" stroke="#000000" d="M 0 32.30724 L 23.98567 47.56699 "/>
<path transform="matrix(1,0,0,-1,6.957,47.766)" stroke-width=".3985" stroke-linecap="butt" stroke-miterlimit="10" stroke-linejoin="miter" fill="none" stroke="#cbcbcb" d="M 3.42651 2.17996 L 3.42651 34.4872 M 11.99283 7.62987 L 11.99283 39.9371 M 20.55914 13.07977 L 20.55914 45.38702 "/>
<path transform="matrix(1,0,0,-1,6.957,47.766)" stroke-width=".3985" stroke-linecap="butt" stroke-miterlimit="10" stroke-linejoin="miter" fill="none" stroke="#cbcbcb" d="M 0 4.61531 L 23.98567 19.87506 M 0 16.15361 L 23.98567 31.41336 M 0 27.69191 L 23.98567 42.95166 "/>
<path transform="matrix(1,0,0,-1,6.957,47.766)" stroke-width=".3985" stroke-linecap="butt" stroke-miterlimit="10" stroke-linejoin="miter" fill="none" stroke="#000000" d="M 0 0 L 0 32.30724 "/>
<path transform="matrix(1,0,0,-1,6.957,47.766)" stroke-width=".3985" stroke-linecap="butt" stroke-miterlimit="10" stroke-linejoin="miter" fill="none" stroke="#000000" d="M 23.98567 15.25974 L 23.98567 47.56699 "/>
<path transform="matrix(1,0,0,-1,6.957,47.766)" stroke-width=".3985" stroke-linecap="butt" stroke-miterlimit="10" stroke-linejoin="miter" fill="none" stroke="#000000" d="M 58.25093 4.57579 L 58.25093 36.88303 "/>
<path transform="matrix(1,0,0,-1,6.957,47.766)" stroke-width=".3985" stroke-linecap="butt" stroke-miterlimit="10" stroke-linejoin="miter" fill="none" stroke="#cbcbcb" d="M 28.8807 13.73346 L 28.8807 46.04071 M 41.1183 9.91777 L 41.1183 42.225 M 53.3559 6.10207 L 53.3559 38.40932 "/>
<path transform="matrix(1,0,0,-1,6.957,47.766)" stroke-width=".3985" stroke-linecap="butt" stroke-miterlimit="10" stroke-linejoin="miter" fill="none" stroke="#cbcbcb" d="M 23.98567 19.87506 L 58.25093 9.1911 M 23.98567 31.41336 L 58.25093 20.72942 M 23.98567 42.95166 L 58.25093 32.26772 "/>
<clipPath id="cp22">
<path transform="matrix(1,0,0,-1,6.957,47.766)" d="M 58.25093 4.57579 L 58.25093 36.88303 L 23.98567 47.56699 L 0 32.30724 L 0 0 L 34.26526 -10.68394 Z "/>
</clipPath>
<g clip-path="url(#cp22)">
<path transform="matrix(1,0,0,-1,6.957,47.766)" stroke-width=".79701" stroke-linecap="butt" stroke-miterlimit="10" stroke-linejoin="miter" fill="none" stroke="#008060" d="M 16.27596 38.34917 L 17.70367 34.56644 L 19.13138 31.17694 L 20.55908 28.1795 L 21.9868 25.57521 L 23.4145 23.36322 L 24.84222 21.54387 L 26.26994 20.11716 L 27.69765 19.08305 L 29.12535 18.44156 L 30.55307 18.19266 L 31.98077 18.33638 L 33.40848 18.87276 L 34.8362 19.80171 L 36.26392 21.12332 L 37.69162 22.83733 L 39.11934 24.94418 L 40.54704 27.4436 L 41.97475 30.33578 "/>
<path transform="matrix(1,0,0,-1,6.957,47.766)" stroke-width=".3985" stroke-linecap="butt" stroke-miterlimit="10" stroke-linejoin="miter" fill="none" stroke="#000000" d="M 11.7074 35.4625 L 12.70679 34.65892 L 13.7062 34.11684 L 14.7056 33.83652 L 15.70499 33.81795 L 16.70439 34.06117 L 17.7038 34.5661 L 18.70319 35.33276 L 19.70258 36.36115 L 20.70198 37.65134 L 21.70139 39.20325 L 22.70078 41.01689 L 23.70018 43.0921 "/>
<path transform="matrix(1,0,0,-1,6.957,47.766)" stroke-width=".3985" stroke-linecap="butt" stroke-miterlimit="10" stroke-linejoin="miter" fill="none" stroke="#000000" d="M 13.42053 30.0921 L 14.41992 28.24141 L 15.41933 26.65242 L 16.41872 25.32533 L 17.41812 24.25948 L 18.41751 23.4559 L 19.41692 22.91383 L 20.4163 22.63348 L 21.41571 22.61493 L 22.41512 22.85815 L 23.4145 23.36308 L 24.4139 24.12975 L 25.41328 25.15814 L 26.4127 26.44832 L 27.4121 28.00024 L 28.41148 29.81387 L 29.41089 31.88907 L 30.4103 34.22633 L 31.40968 36.8253 L 32.40907 39.68568 L 33.40848 42.80823 "/>
<path transform="matrix(1,0,0,-1,6.957,47.766)" stroke-width=".3985" stroke-linecap="butt" stroke-miterlimit="10" stroke-linejoin="miter" fill="none" stroke="#000000" d="M 18.13202 27.28307 L 19.13141 25.17047 L 20.1308 23.31978 L 21.1302 21.73079 L 22.12961 20.4037 L 23.129 19.33784 L 24.12839 18.53427 L 25.12779 17.9922 L 26.1272 17.71187 L 27.12659 17.6933 L 28.12599 17.93654 L 29.12538 18.44147 L 30.12479 19.20811 L 31.12418 20.23651 L 32.12358 21.52669 L 33.12297 23.07861 L 34.12238 24.89224 L 35.12178 26.96745 L 36.12117 29.3047 L 37.12056 31.90367 L 38.11995 34.76405 L 39.11937 37.88661 L 40.11876 41.27063 "/>
<path transform="matrix(1,0,0,-1,6.957,47.766)" stroke-width=".3985" stroke-linecap="butt" stroke-miterlimit="10" stroke-linejoin="miter" fill="none" stroke="#000000" d="M 24.84227 26.53078 L 25.84167 24.68008 L 26.84108 23.0911 L 27.84047 21.764 L 28.83986 20.69815 L 29.83926 19.89458 L 30.83867 19.35251 L 31.83806 19.07216 L 32.83745 19.0536 L 33.83685 19.29683 L 34.83626 19.80176 L 35.83565 20.56842 L 36.83504 21.59682 L 37.83444 22.887 L 38.83385 24.43892 L 39.83324 26.25255 L 40.83264 28.32776 L 41.83203 30.66501 L 42.83144 33.26398 L 43.83083 36.12436 L 44.83023 39.2469 "/>
<path transform="matrix(1,0,0,-1,6.957,47.766)" stroke-width=".3985" stroke-linecap="butt" stroke-miterlimit="10" stroke-linejoin="miter" fill="none" stroke="#000000" d="M 34.55058 28.33997 L 35.54997 27.53639 L 36.54938 26.9943 L 37.54877 26.71397 L 38.54817 26.6954 L 39.54758 26.93863 L 40.54697 27.44356 L 41.54636 28.21022 L 42.54576 29.23862 L 43.54517 30.52881 L 44.54456 32.08072 L 45.54395 33.89435 L 46.54335 35.96956 "/>
<path transform="matrix(1,0,0,-1,6.957,47.766)" d="M 18.63788 34.56615 C 18.63788 35.08199 18.2197 35.50015 17.70387 35.50015 C 17.18803 35.50015 16.76985 35.08199 16.76985 34.56615 C 16.76985 34.05031 17.18803 33.63214 17.70387 33.63214 C 18.2197 33.63214 18.63788 34.05031 18.63788 34.56615 Z M 17.70387 34.56615 "/>
<path transform="matrix(1,0,0,-1,6.957,47.766)" d="M 24.34859 23.36307 C 24.34859 23.87889 23.93042 24.29707 23.41458 24.29707 C 22.89874 24.29707 22.48058 23.87889 22.48058 23.36307 C 22.48058 22.84723 22.89874 22.42905 23.41458 22.42905 C 23.93042 22.42905 24.34859 22.84723 24.34859 23.36307 Z M 23.41458 23.36307 "/>
<path transform="matrix(1,0,0,-1,6.957,47.766)" d="M 30.05948 18.44151 C 30.05948 18.95735 29.6413 19.37552 29.12546 19.37552 C 28.60963 19.37552 28.19145 18.95735 28.19145 18.44151 C 28.19145 17.92567 28.60963 17.5075 29.12546 17.5075 C 29.6413 17.5075 30.05948 17.92567 30.05948 18.44151 Z M 29.12546 18.44151 "/>
<path transform="matrix(1,0,0,-1,6.957,47.766)" d="M 35.77034 19.80174 C 35.77034 20.31757 35.35216 20.73575 34.83633 20.73575 C 34.3205 20.73575 33.90231 20.31757 33.90231 19.80174 C 33.90231 19.2859 34.3205 18.86774 34.83633 18.86774 C 35.35216 18.86774 35.77034 19.2859 35.77034 19.80174 Z M 34.83633 19.80174 "/>
<path transform="matrix(1,0,0,-1,6.957,47.766)" d="M 41.48105 27.4436 C 41.48105 27.95944 41.06288 28.37761 40.54704 28.37761 C 40.0312 28.37761 39.61304 27.95944 39.61304 27.4436 C 39.61304 26.92778 40.0312 26.5096 40.54704 26.5096 C 41.06288 26.5096 41.48105 26.92778 41.48105 27.4436 Z M 40.54704 27.4436 "/>
</g>
<text xml:space="preserve" transform="matrix(.625 0 -0 .625 7.5255005 59.827875)" font-size="9.96264" font-family="CMMI10" font-style="italic"><tspan y="-2.075" x="20.068">x</tspan></text>
<text xml:space="preserve" transform="matrix(.625 0 -0 .625 20.578873 58.894876)" font-size="9.96264" font-family="CMMI10" font-style="italic"><tspan y="-4.563" x="54.877">y</tspan></text>
<text xml:space="preserve" transform="matrix(0 -.625 .625 0 21.59225 36.6405)" font-size="9.96264" font-family="CMMI10" font-style="italic"><tspan y="-26.938" x="4.756">z</tspan></text>
</g>
</svg>
