<?xml version="1.0" encoding="UTF-8" standalone="no"?>
<!DOCTYPE svg PUBLIC "-//W3C//DTD SVG 1.1//EN" "http://www.w3.org/Graphics/SVG/1.1/DTD/svg11.dtd">
<svg xmlns="http://www.w3.org/2000/svg" xmlns:xlink="http://www.w3.org/1999/xlink" version="1.1" width="65.406pt" height="60.606pt" viewBox="0 0 65.406 60.606">
<g enable-background="new">
<path transform="matrix(1,0,0,-1,6.957,47.766)" stroke-width=".3985" stroke-linecap="butt" stroke-miterlimit="10" stroke-linejoin="miter" fill="none" stroke="#cbcbcb" d="M 4.89503 -1.52628 L 28.8807 13.73346 M 17.13263 -5.34196 L 41.1183 9.91777 M 29.37021 -9.15767 L 53.3559 6.10207 "/>
<path transform="matrix(1,0,0,-1,6.957,47.766)" stroke-width=".3985" stroke-linecap="butt" stroke-miterlimit="10" stroke-linejoin="miter" fill="none" stroke="#cbcbcb" d="M 3.42651 2.17996 L 37.69177 -8.50398 M 11.99283 7.62987 L 46.25809 -3.05408 M 20.55914 13.07977 L 54.8244 2.39583 "/>
<path transform="matrix(1,0,0,-1,6.957,47.766)" stroke-width=".3985" stroke-linecap="butt" stroke-miterlimit="10" stroke-linejoin="miter" fill="none" stroke="#000000" d="M 0 0 L 34.26526 -10.68394 "/>
<path transform="matrix(1,0,0,-1,6.957,47.766)" stroke-width=".3985" stroke-linecap="butt" stroke-miterlimit="10" stroke-linejoin="miter" fill="none" stroke="#000000" d="M 23.98567 15.25974 L 58.25093 4.57579 "/>
<path transform="matrix(1,0,0,-1,6.957,47.766)" stroke-width=".3985" stroke-linecap="butt" stroke-miterlimit="10" stroke-linejoin="miter" fill="none" stroke="#000000" d="M 0 0 L 23.98567 15.25974 "/>
<path transform="matrix(1,0,0,-1,6.957,47.766)" stroke-width=".3985" stroke-linecap="butt" stroke-miterlimit="10" stroke-linejoin="miter" fill="none" stroke="#000000" d="M 34.26526 -10.68394 L 58.25093 4.57579 "/>
<path transform="matrix(1,0,0,-1,6.957,47.766)" stroke-width=".3985" stroke-linecap="butt" stroke-miterlimit="10" stroke-linejoin="miter" fill="none" stroke="#000000" d="M 23.98567 47.56699 L 58.25093 36.88303 "/>
<path transform="matrix(1,0,0,-1,6.957,47.766)" stroke-width=".3985" stroke-linecap="butt" stroke-miterlimit="10" stroke-linejoin="miter" fill="none" stroke="#000000" d="M 0 32.30724 L 23.98567 47.56699 "/>
<path transform="matrix(1,0,0,-1,6.957,47.766)" stroke-width=".3985" stroke-linecap="butt" stroke-miterlimit="10" stroke-linejoin="miter" fill="none" stroke="#cbcbcb" d="M 3.42651 2.17996 L 3.42651 34.4872 M 11.99283 7.62987 L 11.99283 39.9371 M 20.55914 13.07977 L 20.55914 45.38702 "/>
<path transform="matrix(1,0,0,-1,6.957,47.766)" stroke-width=".3985" stroke-linecap="butt" stroke-miterlimit="10" stroke-linejoin="miter" fill="none" stroke="#cbcbcb" d="M 0 4.61531 L 23.98567 19.87506 M 0 16.15361 L 23.98567 31.41336 M 0 27.69191 L 23.98567 42.95166 "/>
<path transform="matrix(1,0,0,-1,6.957,47.766)" stroke-width=".3985" stroke-linecap="butt" stroke-miterlimit="10" stroke-linejoin="miter" fill="none" stroke="#000000" d="M 0 0 L 0 32.30724 "/>
<path transform="matrix(1,0,0,-1,6.957,47.766)" stroke-width=".3985" stroke-linecap="butt" stroke-miterlimit="10" stroke-linejoin="miter" fill="none" stroke="#000000" d="M 23.98567 15.25974 L 23.98567 47.56699 "/>
<path transform="matrix(1,0,0,-1,6.957,47.766)" stroke-width=".3985" stroke-linecap="butt" stroke-miterlimit="10" stroke-linejoin="miter" fill="none" stroke="#000000" d="M 58.25093 4.57579 L 58.25093 36.88303 "/>
<path transform="matrix(1,0,0,-1,6.957,47.766)" stroke-width=".3985" stroke-linecap="butt" stroke-miterlimit="10" stroke-linejoin="miter" fill="none" stroke="#cbcbcb" d="M 28.8807 13.73346 L 28.8807 46.04071 M 41.1183 9.91777 L 41.1183 42.225 M 53.3559 6.10207 L 53.3559 38.40932 "/>
<path transform="matrix(1,0,0,-1,6.957,47.766)" stroke-width=".3985" stroke-linecap="butt" stroke-miterlimit="10" stroke-linejoin="miter" fill="none" stroke="#cbcbcb" d="M 23.98567 19.87506 L 58.25093 9.1911 M 23.98567 31.41336 L 58.25093 20.72942 M 23.98567 42.95166 L 58.25093 32.26772 "/>
<clipPath id="cp18">
<path transform="matrix(1,0,0,-1,6.957,47.766)" d="M 58.25093 4.57579 L 58.25093 36.88303 L 23.98567 47.56699 L 0 32.30724 L 0 0 L 34.26526 -10.68394 Z "/>
</clipPath>
<g clip-path="url(#cp18)">
<path transform="matrix(1,0,0,-1,6.957,47.766)" d="M 30.68214 18.44151 C 30.68214 19.30124 29.9852 19.9982 29.12546 19.9982 C 28.26573 19.9982 27.56879 19.30124 27.56879 18.44151 C 27.56879 17.58179 28.26573 16.88483 29.12546 16.88483 C 29.9852 16.88483 30.68214 17.58179 30.68214 18.44151 Z M 29.12546 18.44151 "/>
<path transform="matrix(1,0,0,-1,6.957,47.766)" stroke-width=".3985" stroke-linecap="butt" stroke-miterlimit="10" stroke-linejoin="miter" fill="none" stroke="#000000" d="M 35.60088 20.46088 L 36.81712 21.4438 L 37.50914 22.49733 L 37.62976 23.54967 L 37.17099 24.52914 L 36.16385 25.36893 L 34.67703 26.01184 L 32.8119 26.41408 L 30.69557 26.5482 L 28.47218 26.40501 L 26.29332 25.99443 L 24.30748 25.3443 L 22.65002 24.49896 L 21.43378 23.51604 L 20.74176 22.46251 L 20.62114 21.41017 L 21.07991 20.4307 L 22.08705 19.5909 L 23.57388 18.94798 L 25.43898 18.54575 L 27.55533 18.41164 L 29.7787 18.55482 L 31.95758 18.96541 L 33.9434 19.61552 L 35.60088 20.46088 "/>
<path transform="matrix(1,0,0,-1,6.957,47.766)" stroke-width=".3985" stroke-linecap="butt" stroke-miterlimit="10" stroke-linejoin="miter" fill="none" stroke="#000000" d="M 38.28322 23.66292 L 40.00323 25.053 L 40.98193 26.54291 L 41.15245 28.03116 L 40.50366 29.41637 L 39.07932 30.60402 L 36.97658 31.51323 L 34.33888 32.08209 L 31.34589 32.27177 L 28.20154 32.06927 L 25.1201 31.48865 L 22.3117 30.56923 L 19.96768 29.37375 L 18.24765 27.98366 L 17.26897 26.49374 L 17.09845 25.00548 L 17.74724 23.62029 L 19.17159 22.43262 L 21.27432 21.5234 L 23.912 20.95454 L 26.90501 20.76488 L 30.04936 20.96736 L 33.13078 21.548 L 35.9392 22.46742 L 38.28322 23.66292 "/>
<path transform="matrix(1,0,0,-1,6.957,47.766)" stroke-width=".3985" stroke-linecap="butt" stroke-miterlimit="10" stroke-linejoin="miter" fill="none" stroke="#000000" d="M 40.34135 27.0596 L 42.44792 28.76204 L 43.64651 30.5868 L 43.85535 32.40953 L 43.06071 34.10603 L 41.31627 35.56058 L 38.74097 36.67413 L 35.51047 37.37085 L 31.8448 37.60316 L 27.99379 37.35518 L 24.2199 36.64406 L 20.78035 35.51804 L 17.90955 34.05386 L 15.80296 32.35141 L 14.60439 30.52664 L 14.39555 28.70393 L 15.19017 27.00743 L 16.93463 25.55287 L 19.50993 24.43932 L 22.74043 23.74261 L 26.40608 23.5103 L 30.2571 23.75829 L 34.031 24.4694 L 37.47055 25.59543 L 40.34135 27.0596 "/>
<path transform="matrix(1,0,0,-1,6.957,47.766)" stroke-width=".3985" stroke-linecap="butt" stroke-miterlimit="10" stroke-linejoin="miter" fill="none" stroke="#000000" d="M 42.07649 30.55699 L 44.50899 32.52283 L 45.89305 34.62991 L 46.13423 36.73463 L 45.21667 38.6936 L 43.20238 40.3732 L 40.22867 41.65903 L 36.49838 42.46352 L 32.26564 42.73175 L 27.81883 42.44539 L 23.46106 41.62424 L 19.48936 40.32399 L 16.17441 38.6333 L 13.74191 36.66743 L 12.35785 34.56035 L 12.11667 32.45564 L 13.03421 30.49667 L 15.04852 28.81708 L 18.02225 27.53123 L 21.75252 26.72676 L 25.98524 26.45851 L 30.43205 26.74487 L 34.78984 27.56602 L 38.76152 28.86629 L 42.07649 30.55699 "/>
</g>
<text xml:space="preserve" transform="matrix(.625 0 -0 .625 7.5255005 59.827875)" font-size="9.96264" font-family="CMMI10" font-style="italic"><tspan y="-2.075" x="20.068">x</tspan></text>
<text xml:space="preserve" transform="matrix(.625 0 -0 .625 20.578873 58.894876)" font-size="9.96264" font-family="CMMI10" font-style="italic"><tspan y="-4.563" x="54.877">y</tspan></text>
<text xml:space="preserve" transform="matrix(0 -.625 .625 0 21.59225 36.6405)" font-size="9.96264" font-family="CMMI10" font-style="italic"><tspan y="-26.938" x="4.756">z</tspan></text>
</g>
</svg>
