<?xml version="1.0" encoding="UTF-8" standalone="no"?>
<!DOCTYPE svg PUBLIC "-//W3C//DTD SVG 1.1//EN" "http://www.w3.org/Graphics/SVG/1.1/DTD/svg11.dtd">
<svg xmlns="http://www.w3.org/2000/svg" xmlns:xlink="http://www.w3.org/1999/xlink" version="1.1" width="65.406pt" height="60.606pt" viewBox="0 0 65.406 60.606">
<g enable-background="new">
<path transform="matrix(1,0,0,-1,6.957,47.766)" stroke-width=".3985" stroke-linecap="butt" stroke-miterlimit="10" stroke-linejoin="miter" fill="none" stroke="#cbcbcb" d="M 4.89503 -1.52628 L 28.8807 13.73346 M 17.13263 -5.34196 L 41.1183 9.91777 M 29.37021 -9.15767 L 53.3559 6.10207 "/>
<path transform="matrix(1,0,0,-1,6.957,47.766)" stroke-width=".3985" stroke-linecap="butt" stroke-miterlimit="10" stroke-linejoin="miter" fill="none" stroke="#cbcbcb" d="M 3.42651 2.17996 L 37.69177 -8.50398 M 11.99283 7.62987 L 46.25809 -3.05408 M 20.55914 13.07977 L 54.8244 2.39583 "/>
<path transform="matrix(1,0,0,-1,6.957,47.766)" stroke-width=".3985" stroke-linecap="butt" stroke-miterlimit="10" stroke-linejoin="miter" fill="none" stroke="#000000" d="M 0 0 L 34.26526 -10.68394 "/>
<path transform="matrix(1,0,0,-1,6.957,47.766)" stroke-width=".3985" stroke-linecap="butt" stroke-miterlimit="10" stroke-linejoin="miter" fill="none" stroke="#000000" d="M 23.98567 15.25974 L 58.25093 4.57579 "/>
<path transform="matrix(1,0,0,-1,6.957,47.766)" stroke-width=".3985" stroke-linecap="butt" stroke-miterlimit="10" stroke-linejoin="miter" fill="none" stroke="#000000" d="M 0 0 L 23.98567 15.25974 "/>
<path transform="matrix(1,0,0,-1,6.957,47.766)" stroke-width=".3985" stroke-linecap="butt" stroke-miterlimit="10" stroke-linejoin="miter" fill="none" stroke="#000000" d="M 34.26526 -10.68394 L 58.25093 4.57579 "/>
<path transform="matrix(1,0,0,-1,6.957,47.766)" stroke-width=".3985" stroke-linecap="butt" stroke-miterlimit="10" stroke-linejoin="miter" fill="none" stroke="#000000" d="M 23.98567 47.56699 L 58.25093 36.88303 "/>
<path transform="matrix(1,0,0,-1,6.957,47.766)" stroke-width=".3985" stroke-linecap="butt" stroke-miterlimit="10" stroke-linejoin="miter" fill="none" stroke="#000000" d="M 0 32.30724 L 23.98567 47.56699 "/>
<path transform="matrix(1,0,0,-1,6.957,47.766)" stroke-width=".3985" stroke-linecap="butt" stroke-miterlimit="10" stroke-linejoin="miter" fill="none" stroke="#cbcbcb" d="M 3.42651 2.17996 L 3.42651 34.4872 M 11.99283 7.62987 L 11.99283 39.9371 M 20.55914 13.07977 L 20.55914 45.38702 "/>
<path transform="matrix(1,0,0,-1,6.957,47.766)" stroke-width=".3985" stroke-linecap="butt" stroke-miterlimit="10" stroke-linejoin="miter" fill="none" stroke="#cbcbcb" d="M 0 4.61531 L 23.98567 19.87506 M 0 16.15361 L 23.98567 31.41336 M 0 27.69191 L 23.98567 42.95166 "/>
<path transform="matrix(1,0,0,-1,6.957,47.766)" stroke-width=".3985" stroke-linecap="butt" stroke-miterlimit="10" stroke-linejoin="miter" fill="none" stroke="#000000" d="M 0 0 L 0 32.30724 "/>
<path transform="matrix(1,0,0,-1,6.957,47.766)" stroke-width=".3985" stroke-linecap="butt" stroke-miterlimit="10" stroke-linejoin="miter" fill="none" stroke="#000000" d="M 23.98567 15.25974 L 23.98567 47.56699 "/>
<path transform="matrix(1,0,0,-1,6.957,47.766)" stroke-width=".3985" stroke-linecap="butt" stroke-miterlimit="10" stroke-linejoin="miter" fill="none" stroke="#000000" d="M 58.25093 4.57579 L 58.25093 36.88303 "/>
<path transform="matrix(1,0,0,-1,6.957,47.766)" stroke-width=".3985" stroke-linecap="butt" stroke-miterlimit="10" stroke-linejoin="miter" fill="none" stroke="#cbcbcb" d="M 28.8807 13.73346 L 28.8807 46.04071 M 41.1183 9.91777 L 41.1183 42.225 M 53.3559 6.10207 L 53.3559 38.40932 "/>
<path transform="matrix(1,0,0,-1,6.957,47.766)" stroke-width=".3985" stroke-linecap="butt" stroke-miterlimit="10" stroke-linejoin="miter" fill="none" stroke="#cbcbcb" d="M 23.98567 19.87506 L 58.25093 9.1911 M 23.98567 31.41336 L 58.25093 20.72942 M 23.98567 42.95166 L 58.25093 32.26772 "/>
<clipPath id="cp19">
<path transform="matrix(1,0,0,-1,6.957,47.766)" d="M 58.25093 4.57579 L 58.25093 36.88303 L 23.98567 47.56699 L 0 32.30724 L 0 0 L 34.26526 -10.68394 Z "/>
</clipPath>
<g clip-path="url(#cp19)">
<path transform="matrix(1,0,0,-1,6.957,47.766)" stroke-width=".3985" stroke-linecap="butt" stroke-miterlimit="10" stroke-linejoin="miter" fill="none" stroke="#000000" d="M 19.27417 41.43446 L 20.70187 37.65173 L 22.1296 34.26222 L 23.5573 31.2648 L 24.985 28.6605 L 26.41272 26.44852 L 27.84044 24.62917 L 29.26814 23.20244 L 30.69586 22.16833 L 32.12357 21.52684 L 33.55127 21.27795 L 34.97899 21.42168 L 36.4067 21.95805 L 37.8344 22.88701 L 39.26213 24.20863 L 40.68983 25.92262 L 42.11754 28.0295 L 43.54526 30.52892 L 44.97296 33.42108 "/>
<path transform="matrix(1,0,0,-1,6.957,47.766)" stroke-width=".3985" stroke-linecap="butt" stroke-miterlimit="10" stroke-linejoin="miter" fill="none" stroke="#000000" d="M 23.70009 43.0927 L 25.12779 39.7032 L 26.55551 36.70576 L 27.98322 34.10147 L 29.41092 31.88947 L 30.83865 30.07013 L 32.26636 28.64339 L 33.69406 27.60931 L 35.12178 26.9678 L 36.54948 26.71892 L 37.97719 26.86264 L 39.4049 27.399 L 40.83261 28.32797 L 42.26033 29.64958 L 43.68805 31.36359 L 45.11575 33.47044 L 46.54346 35.96986 "/>
<path transform="matrix(1,0,0,-1,6.957,47.766)" stroke-width=".3985" stroke-linecap="butt" stroke-miterlimit="10" stroke-linejoin="miter" fill="none" stroke="#000000" d="M 29.55371 44.5026 L 30.98143 41.89832 L 32.40913 39.68633 L 33.83685 37.86696 L 35.26457 36.44025 L 36.69228 35.40614 L 38.11998 34.76465 L 39.5477 34.51576 L 40.9754 34.65948 L 42.4031 35.19586 L 43.83083 36.12482 L 45.25854 37.44643 L 46.68625 39.16043 "/>
<path transform="matrix(1,0,0,-1,6.957,47.766)" stroke-width=".79701" stroke-linecap="butt" stroke-miterlimit="10" stroke-linejoin="miter" fill="none" stroke="#008060" d="M 16.27596 38.34917 L 17.70367 34.56644 L 19.13138 31.17694 L 20.55908 28.1795 L 21.9868 25.57521 L 23.4145 23.36322 L 24.84222 21.54387 L 26.26994 20.11716 L 27.69765 19.08305 L 29.12535 18.44156 L 30.55307 18.19266 L 31.98077 18.33638 L 33.40848 18.87276 L 34.8362 19.80171 L 36.26392 21.12332 L 37.69162 22.83733 L 39.11934 24.94418 L 40.54704 27.4436 L 41.97475 30.33578 "/>
<path transform="matrix(1,0,0,-1,6.957,47.766)" stroke-width=".3985" stroke-linecap="butt" stroke-miterlimit="10" stroke-linejoin="miter" fill="none" stroke="#000000" d="M 13.27776 37.61952 L 14.70546 33.83679 L 16.13316 30.4473 L 17.56088 27.44987 L 18.98859 24.84558 L 20.41629 22.63358 L 21.84402 20.81422 L 23.27173 19.3875 L 24.69943 18.35341 L 26.12715 17.71191 L 27.55486 17.46303 L 28.98256 17.60674 L 30.41028 18.14311 L 31.83798 19.07208 L 33.2657 20.39369 L 34.69342 22.10768 L 36.12112 24.21455 L 37.54883 26.71397 L 38.97655 29.60616 "/>
<path transform="matrix(1,0,0,-1,6.957,47.766)" stroke-width=".3985" stroke-linecap="butt" stroke-miterlimit="10" stroke-linejoin="miter" fill="none" stroke="#000000" d="M 11.70724 35.46281 L 13.13496 32.07332 L 14.56267 29.07588 L 15.99037 26.47159 L 17.41809 24.2596 L 18.84581 22.44026 L 20.27351 21.01352 L 21.70123 19.97943 L 23.12894 19.33792 L 24.55664 19.08904 L 25.98436 19.23276 L 27.41206 19.76913 L 28.83977 20.69809 L 30.2675 22.01971 L 31.6952 23.73372 L 33.12291 25.84058 L 34.55063 28.34 "/>
<path transform="matrix(1,0,0,-1,6.957,47.766)" stroke-width=".3985" stroke-linecap="butt" stroke-miterlimit="10" stroke-linejoin="miter" fill="none" stroke="#000000" d="M 11.56445 33.05779 L 12.99217 30.4535 L 14.41988 28.24152 L 15.8476 26.42215 L 17.27531 24.99544 L 18.70302 23.96133 L 20.13072 23.31984 L 21.55844 23.07095 L 22.98615 23.21468 L 24.41385 23.75105 L 25.84157 24.68001 L 27.26929 26.00162 L 28.69699 27.71562 "/>
</g>
<text xml:space="preserve" transform="matrix(.625 0 -0 .625 7.5255005 59.827875)" font-size="9.96264" font-family="CMMI10" font-style="italic"><tspan y="-2.075" x="20.068">x</tspan></text>
<text xml:space="preserve" transform="matrix(.625 0 -0 .625 20.578873 58.894876)" font-size="9.96264" font-family="CMMI10" font-style="italic"><tspan y="-4.563" x="54.877">y</tspan></text>
<text xml:space="preserve" transform="matrix(0 -.625 .625 0 21.59225 36.6405)" font-size="9.96264" font-family="CMMI10" font-style="italic"><tspan y="-26.938" x="4.756">z</tspan></text>
</g>
</svg>
