<?xml version="1.0" encoding="UTF-8" standalone="no"?>
<!DOCTYPE svg PUBLIC "-//W3C//DTD SVG 1.1//EN" "http://www.w3.org/Graphics/SVG/1.1/DTD/svg11.dtd">
<svg xmlns="http://www.w3.org/2000/svg" xmlns:xlink="http://www.w3.org/1999/xlink" version="1.1" width="65.406pt" height="60.606pt" viewBox="0 0 65.406 60.606">
<g enable-background="new">
<path transform="matrix(1,0,0,-1,6.957,49.149999)" stroke-width=".3985" stroke-linecap="butt" stroke-miterlimit="10" stroke-linejoin="miter" fill="none" stroke="#cbcbcb" d="M 4.89503 -.14261 L 28.8807 15.11713 M 17.13263 -3.9583 L 41.1183 11.30144 M 29.37021 -7.774 L 53.3559 7.48573 "/>
<path transform="matrix(1,0,0,-1,6.957,49.149999)" stroke-width=".3985" stroke-linecap="butt" stroke-miterlimit="10" stroke-linejoin="miter" fill="none" stroke="#cbcbcb" d="M 3.42651 3.56363 L 37.69177 -7.12032 M 11.99283 9.01353 L 46.25809 -1.6704 M 20.55914 14.46344 L 54.8244 3.7795 "/>
<path transform="matrix(1,0,0,-1,6.957,49.149999)" stroke-width=".3985" stroke-linecap="butt" stroke-miterlimit="10" stroke-linejoin="miter" fill="none" stroke="#000000" d="M 0 1.38367 L 34.26526 -9.30028 "/>
<path transform="matrix(1,0,0,-1,6.957,49.149999)" stroke-width=".3985" stroke-linecap="butt" stroke-miterlimit="10" stroke-linejoin="miter" fill="none" stroke="#000000" d="M 23.98567 16.6434 L 58.25093 5.95946 "/>
<path transform="matrix(1,0,0,-1,6.957,49.149999)" stroke-width=".3985" stroke-linecap="butt" stroke-miterlimit="10" stroke-linejoin="miter" fill="none" stroke="#000000" d="M 0 1.38367 L 23.98567 16.6434 "/>
<path transform="matrix(1,0,0,-1,6.957,49.149999)" stroke-width=".3985" stroke-linecap="butt" stroke-miterlimit="10" stroke-linejoin="miter" fill="none" stroke="#000000" d="M 34.26526 -9.30028 L 58.25093 5.95946 "/>
<path transform="matrix(1,0,0,-1,6.957,49.149999)" stroke-width=".3985" stroke-linecap="butt" stroke-miterlimit="10" stroke-linejoin="miter" fill="none" stroke="#000000" d="M 23.98567 48.95065 L 58.25093 38.26671 "/>
<path transform="matrix(1,0,0,-1,6.957,49.149999)" stroke-width=".3985" stroke-linecap="butt" stroke-miterlimit="10" stroke-linejoin="miter" fill="none" stroke="#000000" d="M 0 33.6909 L 23.98567 48.95065 "/>
<path transform="matrix(1,0,0,-1,6.957,49.149999)" stroke-width=".3985" stroke-linecap="butt" stroke-miterlimit="10" stroke-linejoin="miter" fill="none" stroke="#cbcbcb" d="M 3.42651 3.56363 L 3.42651 35.87086 M 11.99283 9.01353 L 11.99283 41.32079 M 20.55914 14.46344 L 20.55914 46.77069 "/>
<path transform="matrix(1,0,0,-1,6.957,49.149999)" stroke-width=".3985" stroke-linecap="butt" stroke-miterlimit="10" stroke-linejoin="miter" fill="none" stroke="#cbcbcb" d="M 0 5.99898 L 23.98567 21.25873 M 0 17.53728 L 23.98567 32.79703 M 0 29.07559 L 23.98567 44.33533 "/>
<path transform="matrix(1,0,0,-1,6.957,49.149999)" stroke-width=".3985" stroke-linecap="butt" stroke-miterlimit="10" stroke-linejoin="miter" fill="none" stroke="#000000" d="M 0 1.38367 L 0 33.6909 "/>
<path transform="matrix(1,0,0,-1,6.957,49.149999)" stroke-width=".3985" stroke-linecap="butt" stroke-miterlimit="10" stroke-linejoin="miter" fill="none" stroke="#000000" d="M 23.98567 16.6434 L 23.98567 48.95065 "/>
<path transform="matrix(1,0,0,-1,6.957,49.149999)" stroke-width=".3985" stroke-linecap="butt" stroke-miterlimit="10" stroke-linejoin="miter" fill="none" stroke="#000000" d="M 58.25093 5.95946 L 58.25093 38.26671 "/>
<path transform="matrix(1,0,0,-1,6.957,49.149999)" stroke-width=".3985" stroke-linecap="butt" stroke-miterlimit="10" stroke-linejoin="miter" fill="none" stroke="#cbcbcb" d="M 28.8807 15.11713 L 28.8807 47.42438 M 41.1183 11.30144 L 41.1183 43.60867 M 53.3559 7.48573 L 53.3559 39.79298 "/>
<path transform="matrix(1,0,0,-1,6.957,49.149999)" stroke-width=".3985" stroke-linecap="butt" stroke-miterlimit="10" stroke-linejoin="miter" fill="none" stroke="#cbcbcb" d="M 23.98567 21.25873 L 58.25093 10.57478 M 23.98567 32.79703 L 58.25093 22.11308 M 23.98567 44.33533 L 58.25093 33.65138 "/>
<clipPath id="cp27">
<path transform="matrix(1,0,0,-1,6.957,49.149999)" d="M 58.25093 5.95946 L 58.25093 38.26671 L 23.98567 48.95065 L 0 33.6909 L 0 1.38367 L 34.26526 -9.30028 Z "/>
</clipPath>
<g clip-path="url(#cp27)">
<path transform="matrix(1,0,0,-1,6.957,49.149999)" stroke-width=".79701" stroke-linecap="butt" stroke-miterlimit="10" stroke-linejoin="miter" fill="none" stroke="#008060" d="M 13.42055 40.55762 L 14.84825 37.36404 L 16.27596 34.43237 L 17.70367 31.7624 L 19.13138 29.35434 L 20.55908 27.20752 L 21.9868 25.32294 L 23.4145 23.69987 L 24.84222 22.3386 L 26.26994 21.23904 L 27.69765 20.40128 L 29.12535 19.82523 L 30.55307 19.5109 L 31.98077 19.45831 L 33.40848 19.66751 L 34.8362 20.13844 L 36.26392 20.87112 L 37.69162 21.86533 L 39.11934 23.12161 L 40.54704 24.63957 L 41.97475 26.41899 L 43.40247 28.46057 L 44.83017 30.7636 "/>
<path transform="matrix(1,0,0,-1,6.957,49.149999)" stroke-width=".3985" stroke-linecap="butt" stroke-miterlimit="10" stroke-linejoin="miter" fill="none" stroke="#000000" d="M 6.71042 1.0146 L 7.70981 5.7726 L 8.70921 10.13852 L 9.70862 14.11191 L 10.70801 17.69208 L 11.7074 20.88017 L 12.70679 23.6751 L 13.7062 26.07776 L 14.7056 28.08775 L 15.70499 29.70514 L 16.70439 30.9299 L 17.7038 31.76207 L 18.70319 32.20158 L 19.70258 32.24852 L 20.70198 31.90282 L 21.70139 31.16452 L 22.70078 30.03355 L 23.70018 28.51022 L 24.69957 26.594 L 25.69897 24.28525 L 26.69836 21.58371 L 27.69777 18.4899 L 28.69716 15.00308 "/>
<path transform="matrix(1,0,0,-1,6.957,49.149999)" stroke-width=".3985" stroke-linecap="butt" stroke-miterlimit="10" stroke-linejoin="miter" fill="none" stroke="#000000" d="M 13.42053 -2.28967 L 14.41992 2.07623 L 15.41933 6.04962 L 16.41872 9.62978 L 17.41812 12.81787 L 18.41751 15.61281 L 19.41692 18.01547 L 20.4163 20.02547 L 21.41571 21.64285 L 22.41512 22.86761 L 23.4145 23.69977 L 24.4139 24.1393 L 25.41328 24.18625 L 26.4127 23.84053 L 27.4121 23.10222 L 28.41148 21.97127 L 29.41089 20.44794 L 30.4103 18.53171 L 31.40968 16.22296 L 32.40907 13.52142 L 33.40848 10.42761 "/>
<path transform="matrix(1,0,0,-1,6.957,49.149999)" stroke-width=".3985" stroke-linecap="butt" stroke-miterlimit="10" stroke-linejoin="miter" fill="none" stroke="#000000" d="M 20.1308 -1.79839 L 21.1302 2.17499 L 22.12961 5.75514 L 23.129 8.94322 L 24.12839 11.73817 L 25.12779 14.14082 L 26.1272 16.15083 L 27.12659 17.76822 L 28.12599 18.99298 L 29.12538 19.82513 L 30.12479 20.26465 L 31.12418 20.3116 L 32.12358 19.9659 L 33.12297 19.22758 L 34.12238 18.09662 L 35.12178 16.5733 L 36.12117 14.65707 L 37.12056 12.34831 L 38.11995 9.64679 "/>
<path transform="matrix(1,0,0,-1,6.957,49.149999)" stroke-width=".3985" stroke-linecap="butt" stroke-miterlimit="10" stroke-linejoin="miter" fill="none" stroke="#000000" d="M 24.84227 -5.851 L 25.84167 -1.48508 L 26.84108 2.4883 L 27.84047 6.06845 L 28.83986 9.25655 L 29.83926 12.05148 L 30.83867 14.45416 L 31.83806 16.46414 L 32.83745 18.08153 L 33.83685 19.30629 L 34.83626 20.13844 L 35.83565 20.57799 L 36.83504 20.62492 L 37.83444 20.2792 L 38.83385 19.54091 L 39.83324 18.40996 L 40.83264 16.88661 L 41.83203 14.97038 L 42.83144 12.66165 L 43.83083 9.9601 L 44.83023 6.86629 "/>
<path transform="matrix(1,0,0,-1,6.957,49.149999)" stroke-width=".3985" stroke-linecap="butt" stroke-miterlimit="10" stroke-linejoin="miter" fill="none" stroke="#000000" d="M 29.55359 -6.10793 L 30.553 -1.34993 L 31.55238 3.01599 L 32.55179 6.98938 L 33.55118 10.56953 L 34.55058 13.75763 L 35.54997 16.55257 L 36.54938 18.95522 L 37.54877 20.96523 L 38.54817 22.58261 L 39.54758 23.80737 L 40.54697 24.63953 L 41.54636 25.07904 L 42.54576 25.12599 L 43.54517 24.78029 L 44.54456 24.04198 L 45.54395 22.91101 L 46.54335 21.38768 L 47.54276 19.47147 L 48.54214 17.1627 L 49.54153 14.46118 L 50.54094 11.36736 L 51.54034 7.88054 "/>
<path transform="matrix(1,0,0,-1,6.957,49.149999)" d="M 18.63788 31.76212 C 18.63788 32.27794 18.2197 32.69612 17.70387 32.69612 C 17.18803 32.69612 16.76985 32.27794 16.76985 31.76212 C 16.76985 31.24628 17.18803 30.8281 17.70387 30.8281 C 18.2197 30.8281 18.63788 31.24628 18.63788 31.76212 Z M 17.70387 31.76212 "/>
<path transform="matrix(1,0,0,-1,6.957,49.149999)" d="M 24.34859 23.69977 C 24.34859 24.2156 23.93042 24.63377 23.41458 24.63377 C 22.89874 24.63377 22.48058 24.2156 22.48058 23.69977 C 22.48058 23.18393 22.89874 22.76576 23.41458 22.76576 C 23.93042 22.76576 24.34859 23.18393 24.34859 23.69977 Z M 23.41458 23.69977 "/>
<path transform="matrix(1,0,0,-1,6.957,49.149999)" d="M 30.05948 19.82518 C 30.05948 20.34102 29.6413 20.75919 29.12546 20.75919 C 28.60963 20.75919 28.19145 20.34102 28.19145 19.82518 C 28.19145 19.30934 28.60963 18.89117 29.12546 18.89117 C 29.6413 18.89117 30.05948 19.30934 30.05948 19.82518 Z M 29.12546 19.82518 "/>
<path transform="matrix(1,0,0,-1,6.957,49.149999)" d="M 35.77034 20.13844 C 35.77034 20.65428 35.35216 21.07246 34.83633 21.07246 C 34.3205 21.07246 33.90231 20.65428 33.90231 20.13844 C 33.90231 19.62262 34.3205 19.20444 34.83633 19.20444 C 35.35216 19.20444 35.77034 19.62262 35.77034 20.13844 Z M 34.83633 20.13844 "/>
<path transform="matrix(1,0,0,-1,6.957,49.149999)" d="M 41.48105 24.63957 C 41.48105 25.15541 41.06288 25.57358 40.54704 25.57358 C 40.0312 25.57358 39.61304 25.15541 39.61304 24.63957 C 39.61304 24.12373 40.0312 23.70557 40.54704 23.70557 C 41.06288 23.70557 41.48105 24.12373 41.48105 24.63957 Z M 40.54704 24.63957 "/>
</g>
<text xml:space="preserve" transform="matrix(.625 0 -0 .625 7.5255005 59.827875)" font-size="9.96264" font-family="CMMI10" font-style="italic"><tspan y="-2.075" x="20.068">x</tspan></text>
<text xml:space="preserve" transform="matrix(.625 0 -0 .625 20.578873 58.894876)" font-size="9.96264" font-family="CMMI10" font-style="italic"><tspan y="-4.563" x="54.877">y</tspan></text>
<text xml:space="preserve" transform="matrix(0 -.625 .625 0 21.59225 36.6405)" font-size="9.96264" font-family="CMMI10" font-style="italic"><tspan y="-26.938" x="4.756">z</tspan></text>
</g>
</svg>
