<?xml version="1.0" encoding="UTF-8" standalone="no"?>
<!DOCTYPE svg PUBLIC "-//W3C//DTD SVG 1.1//EN" "http://www.w3.org/Graphics/SVG/1.1/DTD/svg11.dtd">
<svg xmlns="http://www.w3.org/2000/svg" xmlns:xlink="http://www.w3.org/1999/xlink" version="1.1" width="65.406pt" height="60.606pt" viewBox="0 0 65.406 60.606">
<g enable-background="new">
<path transform="matrix(1,0,0,-1,6.957,49.281)" stroke-width=".3985" stroke-linecap="butt" stroke-miterlimit="10" stroke-linejoin="miter" fill="none" stroke="#cbcbcb" d="M 4.89503 -.01154 L 28.8807 15.2482 M 17.13263 -3.82722 L 41.1183 11.43251 M 29.37021 -7.64293 L 53.3559 7.6168 "/>
<path transform="matrix(1,0,0,-1,6.957,49.281)" stroke-width=".3985" stroke-linecap="butt" stroke-miterlimit="10" stroke-linejoin="miter" fill="none" stroke="#cbcbcb" d="M 3.42651 3.6947 L 37.69177 -6.98924 M 11.99283 9.1446 L 46.25809 -1.53932 M 20.55914 14.59451 L 54.8244 3.91057 "/>
<path transform="matrix(1,0,0,-1,6.957,49.281)" stroke-width=".3985" stroke-linecap="butt" stroke-miterlimit="10" stroke-linejoin="miter" fill="none" stroke="#000000" d="M 0 1.51474 L 34.26526 -9.1692 "/>
<path transform="matrix(1,0,0,-1,6.957,49.281)" stroke-width=".3985" stroke-linecap="butt" stroke-miterlimit="10" stroke-linejoin="miter" fill="none" stroke="#000000" d="M 23.98567 16.77448 L 58.25093 6.09053 "/>
<path transform="matrix(1,0,0,-1,6.957,49.281)" stroke-width=".3985" stroke-linecap="butt" stroke-miterlimit="10" stroke-linejoin="miter" fill="none" stroke="#000000" d="M 0 1.51474 L 23.98567 16.77448 "/>
<path transform="matrix(1,0,0,-1,6.957,49.281)" stroke-width=".3985" stroke-linecap="butt" stroke-miterlimit="10" stroke-linejoin="miter" fill="none" stroke="#000000" d="M 34.26526 -9.1692 L 58.25093 6.09053 "/>
<path transform="matrix(1,0,0,-1,6.957,49.281)" stroke-width=".3985" stroke-linecap="butt" stroke-miterlimit="10" stroke-linejoin="miter" fill="none" stroke="#000000" d="M 23.98567 49.08173 L 58.25093 38.39777 "/>
<path transform="matrix(1,0,0,-1,6.957,49.281)" stroke-width=".3985" stroke-linecap="butt" stroke-miterlimit="10" stroke-linejoin="miter" fill="none" stroke="#000000" d="M 0 33.82198 L 23.98567 49.08173 "/>
<path transform="matrix(1,0,0,-1,6.957,49.281)" stroke-width=".3985" stroke-linecap="butt" stroke-miterlimit="10" stroke-linejoin="miter" fill="none" stroke="#cbcbcb" d="M 3.42651 3.6947 L 3.42651 36.00194 M 11.99283 9.1446 L 11.99283 41.45184 M 20.55914 14.59451 L 20.55914 46.90176 "/>
<path transform="matrix(1,0,0,-1,6.957,49.281)" stroke-width=".3985" stroke-linecap="butt" stroke-miterlimit="10" stroke-linejoin="miter" fill="none" stroke="#cbcbcb" d="M 0 6.13005 L 23.98567 21.3898 M 0 17.66835 L 23.98567 32.9281 M 0 29.20665 L 23.98567 44.4664 "/>
<path transform="matrix(1,0,0,-1,6.957,49.281)" stroke-width=".3985" stroke-linecap="butt" stroke-miterlimit="10" stroke-linejoin="miter" fill="none" stroke="#000000" d="M 0 1.51474 L 0 33.82198 "/>
<path transform="matrix(1,0,0,-1,6.957,49.281)" stroke-width=".3985" stroke-linecap="butt" stroke-miterlimit="10" stroke-linejoin="miter" fill="none" stroke="#000000" d="M 23.98567 16.77448 L 23.98567 49.08173 "/>
<path transform="matrix(1,0,0,-1,6.957,49.281)" stroke-width=".3985" stroke-linecap="butt" stroke-miterlimit="10" stroke-linejoin="miter" fill="none" stroke="#000000" d="M 58.25093 6.09053 L 58.25093 38.39777 "/>
<path transform="matrix(1,0,0,-1,6.957,49.281)" stroke-width=".3985" stroke-linecap="butt" stroke-miterlimit="10" stroke-linejoin="miter" fill="none" stroke="#cbcbcb" d="M 28.8807 15.2482 L 28.8807 47.55545 M 41.1183 11.43251 L 41.1183 43.73975 M 53.3559 7.6168 L 53.3559 39.92406 "/>
<path transform="matrix(1,0,0,-1,6.957,49.281)" stroke-width=".3985" stroke-linecap="butt" stroke-miterlimit="10" stroke-linejoin="miter" fill="none" stroke="#cbcbcb" d="M 23.98567 21.3898 L 58.25093 10.70586 M 23.98567 32.9281 L 58.25093 22.24416 M 23.98567 44.4664 L 58.25093 33.78246 "/>
<clipPath id="cp24">
<path transform="matrix(1,0,0,-1,6.957,49.281)" d="M 58.25093 6.09053 L 58.25093 38.39777 L 23.98567 49.08173 L 0 33.82198 L 0 1.51474 L 34.26526 -9.1692 Z "/>
</clipPath>
<g clip-path="url(#cp24)">
<path transform="matrix(1,0,0,-1,6.957,49.281)" stroke-width=".3985" stroke-linecap="butt" stroke-miterlimit="10" stroke-linejoin="miter" fill="none" stroke="#000000" d="M 8.99463 40.46991 L 10.42233 37.0144 L 11.85004 33.82083 L 13.27776 30.88916 L 14.70546 28.2192 L 16.13316 25.81114 L 17.56088 23.6643 L 18.98859 21.77972 L 20.41629 20.15668 L 21.84402 18.79536 L 23.27173 17.69583 L 24.69943 16.85806 L 26.12715 16.28201 L 27.55486 15.9677 L 28.98256 15.91512 L 30.41028 16.1243 L 31.83798 16.59525 L 33.2657 17.32791 L 34.69342 18.32213 L 36.12112 19.5784 L 37.54883 21.09636 L 38.97655 22.8758 L 40.40425 24.91736 L 41.83195 27.2204 L 43.25967 29.78535 "/>
<path transform="matrix(1,0,0,-1,6.957,49.281)" stroke-width=".3985" stroke-linecap="butt" stroke-miterlimit="10" stroke-linejoin="miter" fill="none" stroke="#000000" d="M 5.99641 33.26228 L 7.42412 29.80678 L 8.85184 26.6132 L 10.27954 23.68153 L 11.70724 21.01157 L 13.13496 18.6035 L 14.56267 16.45668 L 15.99037 14.5721 L 17.41809 12.94904 L 18.84581 11.58774 L 20.27351 10.4882 L 21.70123 9.65044 L 23.12894 9.07439 L 24.55664 8.76006 L 25.98436 8.70747 L 27.41206 8.91667 L 28.83977 9.3876 L 30.2675 10.12029 L 31.6952 11.11449 L 33.12291 12.37077 L 34.55063 13.88873 L 35.97833 15.66815 L 37.40604 17.70973 L 38.83376 20.01276 L 40.26146 22.57771 "/>
<path transform="matrix(1,0,0,-1,6.957,49.281)" stroke-width=".3985" stroke-linecap="butt" stroke-miterlimit="10" stroke-linejoin="miter" fill="none" stroke="#000000" d="M 2.9982 22.52063 L 4.42592 19.06512 L 5.85362 15.87154 L 7.28133 12.93988 L 8.70905 10.2699 L 10.13675 7.86185 L 11.56445 5.71503 L 12.99217 3.83044 L 14.41988 2.20738 L 15.8476 .84608 L 17.27531 -.25343 L 18.70302 -1.0912 L 20.13072 -1.66725 L 21.55844 -1.98158 L 22.98615 -2.03416 L 24.41385 -1.82497 L 25.84157 -1.35403 L 27.26929 -.62135 L 28.69699 .37285 L 30.12471 1.62912 L 31.55241 3.14708 L 32.98012 4.9265 L 34.40784 6.96808 L 35.83554 9.27112 L 37.26324 11.83606 "/>
<path transform="matrix(1,0,0,-1,6.957,49.281)" stroke-width=".3985" stroke-linecap="butt" stroke-miterlimit="10" stroke-linejoin="miter" fill="none" stroke="#000000" d="M 0 8.24571 L 1.4277 4.7902 L 2.85541 1.59662 L 4.28313 -1.33502 M 29.98192 -9.34839 L 31.40962 -7.30682 L 32.83733 -5.00378 L 34.26505 -2.43883 "/>
<path transform="matrix(1,0,0,-1,6.957,49.281)" stroke-width=".79701" stroke-linecap="butt" stroke-miterlimit="10" stroke-linejoin="miter" fill="none" stroke="#008060" d="M 13.42055 40.68869 L 14.84825 37.49512 L 16.27596 34.56345 L 17.70367 31.89346 L 19.13138 29.48541 L 20.55908 27.3386 L 21.9868 25.45403 L 23.4145 23.83095 L 24.84222 22.46965 L 26.26994 21.37012 L 27.69765 20.53235 L 29.12535 19.9563 L 30.55307 19.64198 L 31.98077 19.58939 L 33.40848 19.7986 L 34.8362 20.26952 L 36.26392 21.0022 L 37.69162 21.99641 L 39.11934 23.25269 L 40.54704 24.77065 L 41.97475 26.55006 L 43.40247 28.59164 L 44.83017 30.89468 "/>
<path transform="matrix(1,0,0,-1,6.957,49.281)" stroke-width=".3985" stroke-linecap="butt" stroke-miterlimit="10" stroke-linejoin="miter" fill="none" stroke="#000000" d="M 14.99104 44.28485 L 16.41875 40.82935 L 17.84647 37.63577 L 19.27417 34.7041 L 20.70187 32.03413 L 22.1296 29.62608 L 23.5573 27.47925 L 24.985 25.59467 L 26.41272 23.97162 L 27.84044 22.6103 L 29.26814 21.51076 L 30.69586 20.67299 L 32.12357 20.09695 L 33.55127 19.78262 L 34.97899 19.73004 L 36.4067 19.93924 L 37.8344 20.41019 L 39.26213 21.14284 L 40.68983 22.13707 L 42.11754 23.39333 L 43.54526 24.91129 L 44.97296 26.69073 L 46.40067 28.7323 L 47.82838 31.03534 L 49.25609 33.60028 "/>
<path transform="matrix(1,0,0,-1,6.957,49.281)" stroke-width=".3985" stroke-linecap="butt" stroke-miterlimit="10" stroke-linejoin="miter" fill="none" stroke="#000000" d="M 17.98926 40.89217 L 19.41696 37.43666 L 20.84467 34.24307 L 22.27238 31.3114 L 23.70009 28.64143 L 25.12779 26.23338 L 26.55551 24.08655 L 27.98322 22.20197 L 29.41092 20.5789 L 30.83865 19.2176 L 32.26636 18.11807 L 33.69406 17.2803 L 35.12178 16.70425 L 36.54948 16.38992 L 37.97719 16.33734 L 39.4049 16.54654 L 40.83261 17.01749 L 42.26033 17.75015 L 43.68805 18.74437 L 45.11575 20.00064 L 46.54346 21.5186 L 47.97118 23.29803 L 49.39888 25.33961 L 50.82658 27.64262 L 52.2543 30.20758 "/>
<path transform="matrix(1,0,0,-1,6.957,49.281)" stroke-width=".3985" stroke-linecap="butt" stroke-miterlimit="10" stroke-linejoin="miter" fill="none" stroke="#000000" d="M 20.98746 33.96544 L 22.41518 30.50993 L 23.84288 27.31635 L 25.27058 24.38469 L 26.6983 21.7147 L 28.126 19.30666 L 29.55371 17.15984 L 30.98143 15.27525 L 32.40913 13.65219 L 33.83685 12.2909 L 35.26457 11.19136 L 36.69228 10.35359 L 38.11998 9.77754 L 39.5477 9.46321 L 40.9754 9.41063 L 42.4031 9.61983 L 43.83083 10.09076 L 45.25854 10.82344 L 46.68625 11.81766 L 48.11397 13.07393 L 49.54167 14.59189 L 50.96938 16.3713 L 52.3971 18.41289 L 53.8248 20.71593 L 55.25252 23.28087 "/>
<path transform="matrix(1,0,0,-1,6.957,49.281)" stroke-width=".3985" stroke-linecap="butt" stroke-miterlimit="10" stroke-linejoin="miter" fill="none" stroke="#000000" d="M 23.98567 23.50546 L 25.41338 20.04996 L 26.8411 16.85637 L 28.2688 13.92471 M 53.96759 5.91135 L 55.39531 7.95291 L 56.82301 10.25595 L 58.25072 12.8209 "/>
</g>
<text xml:space="preserve" transform="matrix(.625 0 -0 .625 7.5255005 59.827875)" font-size="9.96264" font-family="CMMI10" font-style="italic"><tspan y="-2.075" x="20.068">x</tspan></text>
<text xml:space="preserve" transform="matrix(.625 0 -0 .625 20.578873 58.894876)" font-size="9.96264" font-family="CMMI10" font-style="italic"><tspan y="-4.563" x="54.877">y</tspan></text>
<text xml:space="preserve" transform="matrix(0 -.625 .625 0 21.59225 36.6405)" font-size="9.96264" font-family="CMMI10" font-style="italic"><tspan y="-26.938" x="4.756">z</tspan></text>
</g>
</svg>
