<?xml version="1.0" encoding="UTF-8" standalone="no"?>
<!DOCTYPE svg PUBLIC "-//W3C//DTD SVG 1.1//EN" "http://www.w3.org/Graphics/SVG/1.1/DTD/svg11.dtd">
<svg xmlns="http://www.w3.org/2000/svg" xmlns:xlink="http://www.w3.org/1999/xlink" version="1.1" width="65.406pt" height="60.606pt" viewBox="0 0 65.406 60.606">
<g enable-background="new">
<path transform="matrix(1,0,0,-1,5.311,47.368)" stroke-width=".3985" stroke-linecap="butt" stroke-miterlimit="10" stroke-linejoin="miter" fill="none" stroke="#cbcbcb" d="M 6.54057 -1.92372 L 30.52625 13.336 M 18.77817 -5.73943 L 42.76384 9.52031 M 31.01575 -9.55511 L 55.00143 5.7046 "/>
<path transform="matrix(1,0,0,-1,5.311,47.368)" stroke-width=".3985" stroke-linecap="butt" stroke-miterlimit="10" stroke-linejoin="miter" fill="none" stroke="#cbcbcb" d="M 5.07205 1.7825 L 39.33731 -8.90143 M 13.63837 7.2324 L 47.90363 -3.45152 M 22.20468 12.68231 L 56.46994 1.99837 "/>
<path transform="matrix(1,0,0,-1,5.311,47.368)" stroke-width=".3985" stroke-linecap="butt" stroke-miterlimit="10" stroke-linejoin="miter" fill="none" stroke="#000000" d="M 1.64552 -.39745 L 35.9108 -11.0814 "/>
<path transform="matrix(1,0,0,-1,5.311,47.368)" stroke-width=".3985" stroke-linecap="butt" stroke-miterlimit="10" stroke-linejoin="miter" fill="none" stroke="#000000" d="M 25.63121 14.86229 L 59.89647 4.17833 "/>
<path transform="matrix(1,0,0,-1,5.311,47.368)" stroke-width=".3985" stroke-linecap="butt" stroke-miterlimit="10" stroke-linejoin="miter" fill="none" stroke="#000000" d="M 1.64552 -.39745 L 25.63121 14.86229 "/>
<path transform="matrix(1,0,0,-1,5.311,47.368)" stroke-width=".3985" stroke-linecap="butt" stroke-miterlimit="10" stroke-linejoin="miter" fill="none" stroke="#000000" d="M 35.9108 -11.0814 L 59.89647 4.17833 "/>
<path transform="matrix(1,0,0,-1,5.311,47.368)" stroke-width=".3985" stroke-linecap="butt" stroke-miterlimit="10" stroke-linejoin="miter" fill="none" stroke="#000000" d="M 25.63121 47.16953 L 59.89647 36.48558 "/>
<path transform="matrix(1,0,0,-1,5.311,47.368)" stroke-width=".3985" stroke-linecap="butt" stroke-miterlimit="10" stroke-linejoin="miter" fill="none" stroke="#000000" d="M 1.64552 31.90977 L 25.63121 47.16953 "/>
<path transform="matrix(1,0,0,-1,5.311,47.368)" stroke-width=".3985" stroke-linecap="butt" stroke-miterlimit="10" stroke-linejoin="miter" fill="none" stroke="#cbcbcb" d="M 5.07205 1.7825 L 5.07205 34.08975 M 13.63837 7.2324 L 13.63837 39.53966 M 22.20468 12.68231 L 22.20468 44.98956 "/>
<path transform="matrix(1,0,0,-1,5.311,47.368)" stroke-width=".3985" stroke-linecap="butt" stroke-miterlimit="10" stroke-linejoin="miter" fill="none" stroke="#cbcbcb" d="M 1.64552 4.21785 L 25.63121 19.4776 M 1.64552 15.75616 L 25.63121 31.0159 M 1.64552 27.29446 L 25.63121 42.5542 "/>
<path transform="matrix(1,0,0,-1,5.311,47.368)" stroke-width=".3985" stroke-linecap="butt" stroke-miterlimit="10" stroke-linejoin="miter" fill="none" stroke="#000000" d="M 1.64552 -.39745 L 1.64552 31.90977 "/>
<path transform="matrix(1,0,0,-1,5.311,47.368)" stroke-width=".3985" stroke-linecap="butt" stroke-miterlimit="10" stroke-linejoin="miter" fill="none" stroke="#000000" d="M 25.63121 14.86229 L 25.63121 47.16953 "/>
<path transform="matrix(1,0,0,-1,5.311,47.368)" stroke-width=".3985" stroke-linecap="butt" stroke-miterlimit="10" stroke-linejoin="miter" fill="none" stroke="#000000" d="M 59.89647 4.17833 L 59.89647 36.48558 "/>
<path transform="matrix(1,0,0,-1,5.311,47.368)" stroke-width=".3985" stroke-linecap="butt" stroke-miterlimit="10" stroke-linejoin="miter" fill="none" stroke="#cbcbcb" d="M 30.52625 13.336 L 30.52625 45.64325 M 42.76384 9.52031 L 42.76384 41.82755 M 55.00143 5.7046 L 55.00143 38.01186 "/>
<path transform="matrix(1,0,0,-1,5.311,47.368)" stroke-width=".3985" stroke-linecap="butt" stroke-miterlimit="10" stroke-linejoin="miter" fill="none" stroke="#cbcbcb" d="M 25.63121 19.4776 L 59.89647 8.79366 M 25.63121 31.0159 L 59.89647 20.33195 M 25.63121 42.5542 L 59.89647 31.87025 "/>
<clipPath id="cp23">
<path transform="matrix(1,0,0,-1,5.311,47.368)" d="M 59.89647 4.17833 L 59.89647 36.48558 L 25.63121 47.16953 L 1.64552 31.90977 L 1.64552 -.39745 L 35.9108 -11.0814 Z "/>
</clipPath>
<g clip-path="url(#cp23)">
<path transform="matrix(1,0,0,-1,5.311,47.368)" stroke-width=".3985" stroke-linecap="butt" stroke-miterlimit="10" stroke-linejoin="miter" fill="none" stroke="#000000" d="M 24.54721 26.05463 L 26.62682 23.41245 L 28.44511 21.36157 L 30.11821 19.77258 L 31.75029 18.54602 L 33.44394 17.60466 L 35.3038 16.88942 L 37.44919 16.35582 L 40.01474 15.96915 L 43.16092 15.70586 L 47.08568 15.54941 L 52.0346 15.49025 L 58.32048 15.52408 "/>
<path transform="matrix(1,0,0,-1,5.311,47.368)" stroke-width=".3985" stroke-linecap="butt" stroke-miterlimit="10" stroke-linejoin="miter" fill="none" stroke="#000000" d="M 3.22156 12.4872 L 9.50743 12.52104 L 14.45634 12.46187 L 18.38112 12.30542 L 21.52728 12.04211 L 24.09285 11.65549 L 26.2382 11.12187 L 28.0981 10.40665 L 29.79173 9.46524 L 31.42381 8.2387 L 33.09691 6.64972 L 34.9152 4.59885 L 36.99483 1.95665 "/>
<path transform="matrix(1,0,0,-1,5.311,47.368)" stroke-width=".3985" stroke-linecap="butt" stroke-miterlimit="10" stroke-linejoin="miter" fill="none" stroke="#000000" d="M 24.9104 23.27055 L 27.48184 20.37018 L 29.84793 18.12302 L 32.15604 16.38837 L 34.5512 15.05705 L 37.18144 14.04558 L 40.21545 13.29092 L 43.84372 12.74413 L 48.29309 12.3718 L 53.84358 12.15056 L 60.84242 12.0669 "/>
<path transform="matrix(1,0,0,-1,5.311,47.368)" stroke-width=".3985" stroke-linecap="butt" stroke-miterlimit="10" stroke-linejoin="miter" fill="none" stroke="#000000" d="M .69957 7.86758 L 7.69846 7.78392 L 13.24893 7.56268 L 17.6983 7.19034 L 21.32657 6.64352 L 24.36057 5.8889 L 26.99084 4.87741 L 29.38599 3.5461 L 31.69408 1.81146 L 34.0602 -.43568 L 36.6316 -3.33606 "/>
<path transform="matrix(1,0,0,-1,5.311,47.368)" stroke-width=".3985" stroke-linecap="butt" stroke-miterlimit="10" stroke-linejoin="miter" fill="none" stroke="#000000" d="M 26.74261 18.66977 L 29.64047 15.91757 L 32.46732 13.79308 L 35.40076 12.16257 L 38.62216 10.92375 L 42.33804 9.99951 L 46.78174 9.32983 L 52.23111 8.87378 L 59.02902 8.60283 "/>
<path transform="matrix(1,0,0,-1,5.311,47.368)" stroke-width=".3985" stroke-linecap="butt" stroke-miterlimit="10" stroke-linejoin="miter" fill="none" stroke="#000000" d="M 2.51302 3.25484 L 9.31091 2.98387 L 14.76028 2.52782 L 19.20398 1.85814 L 22.91985 .93391 L 26.14127 -.30489 L 29.0747 -1.93541 L 31.90155 -4.0599 L 34.79942 -6.81209 "/>
<path transform="matrix(1,0,0,-1,5.311,47.368)" stroke-width=".3985" stroke-linecap="butt" stroke-miterlimit="10" stroke-linejoin="miter" fill="none" stroke="#000000" d="M 29.46558 13.42444 L 32.72974 10.97128 L 36.11699 9.08853 L 39.83675 7.65807 L 44.12747 6.59085 L 49.2586 5.81757 L 55.55098 5.29097 "/>
<path transform="matrix(1,0,0,-1,5.311,47.368)" stroke-width=".3985" stroke-linecap="butt" stroke-miterlimit="10" stroke-linejoin="miter" fill="none" stroke="#000000" d="M 5.99103 -1.51012 L 12.28342 -2.0367 L 17.41455 -2.80998 L 21.70528 -3.8772 L 25.42505 -5.30766 L 28.8123 -7.19041 L 32.07645 -9.64359 "/>
<path transform="matrix(1,0,0,-1,5.311,47.368)" stroke-width=".79701" stroke-linecap="butt" stroke-miterlimit="10" stroke-linejoin="miter" fill="none" stroke="#008060" d="M 2.50636 17.11208 L 4.86174 17.18974 L 7.21713 17.26741 L 9.57251 17.34506 L 11.9279 17.42273 L 14.28328 17.5004 L 16.63869 17.57805 L 18.99408 17.65572 L 21.34947 17.73338 L 23.70485 17.81104 L 26.06024 17.88872 L 28.41562 17.96637 L 30.771 18.04405 L 33.1264 18.1217 L 35.4818 18.19937 L 37.83719 18.27704 L 40.19257 18.3547 L 42.54796 18.43236 L 44.90334 18.51003 L 47.25873 18.58769 L 49.61412 18.66536 L 51.96953 18.74303 L 54.3249 18.82068 L 56.68028 18.89836 L 59.03568 18.97601 "/>
<path transform="matrix(1,0,0,-1,5.311,47.368)" stroke-width=".79701" stroke-linecap="butt" stroke-miterlimit="10" stroke-linejoin="miter" fill="none" stroke="#008060" d="M 23.0652 30.19165 L 23.70734 29.17935 L 24.3495 28.16705 L 24.99165 27.15475 L 25.6338 26.14246 L 26.27594 25.13016 L 26.9181 24.11784 L 27.56026 23.10556 L 28.20241 22.09326 L 28.84456 21.08095 L 29.48672 20.06865 L 30.12888 19.05634 L 30.771 18.04405 L 31.41316 17.03174 L 32.05531 16.01944 L 32.69748 15.00714 L 33.33961 13.99484 L 33.98178 12.98253 L 34.62393 11.97025 L 35.26607 10.95795 L 35.90822 9.94565 L 36.55038 8.93335 L 37.19254 7.92104 L 37.83467 6.90874 L 38.47684 5.89642 "/>
<path transform="matrix(1,0,0,-1,5.311,47.368)" stroke-width=".3985" stroke-linecap="butt" stroke-miterlimit="10" stroke-linejoin="miter" fill="none" stroke="#000000" d="M 39.77586 10.1252 L 38.48672 12.79344 L 37.68185 14.87773 L 37.31172 16.50964 L 37.35265 17.79137 L 37.80699 18.80356 L 38.70183 19.60962 L 40.09615 20.25993 L 42.07611 20.79643 L 44.76616 21.25217 L 48.33566 21.65572 L 53.00827 22.03209 L 59.07861 22.40564 "/>
<path transform="matrix(1,0,0,-1,5.311,47.368)" stroke-width=".3985" stroke-linecap="butt" stroke-miterlimit="10" stroke-linejoin="miter" fill="none" stroke="#000000" d="M 2.46341 21.75925 L 8.53374 22.13283 L 13.20638 22.50922 L 16.77588 22.91273 L 19.46593 23.36847 L 21.44588 23.90498 L 22.8402 24.5553 L 23.73505 25.36134 L 24.18938 26.37354 L 24.2303 27.65524 L 23.86018 29.2872 L 23.0553 31.37146 L 21.76617 34.0397 "/>
<path transform="matrix(1,0,0,-1,5.311,47.368)" stroke-width=".3985" stroke-linecap="butt" stroke-miterlimit="10" stroke-linejoin="miter" fill="none" stroke="#000000" d="M 40.54436 15.93175 L 40.02095 18.23964 L 40.07883 20.05229 L 40.7214 21.48378 L 41.98691 22.62373 L 43.9588 23.54341 L 46.7589 24.30219 L 50.56323 24.94669 L 55.61133 25.5174 "/>
<path transform="matrix(1,0,0,-1,5.311,47.368)" stroke-width=".3985" stroke-linecap="butt" stroke-miterlimit="10" stroke-linejoin="miter" fill="none" stroke="#000000" d="M 5.93071 26.7243 L 10.9788 27.29503 L 14.78313 27.93953 L 17.58322 28.69829 L 19.5551 29.618 L 20.82062 30.75793 L 21.4632 32.1894 L 21.52109 34.00206 L 20.99768 36.30997 "/>
<path transform="matrix(1,0,0,-1,5.311,47.368)" stroke-width=".3985" stroke-linecap="butt" stroke-miterlimit="10" stroke-linejoin="miter" fill="none" stroke="#000000" d="M 42.09961 20.50688 L 42.17052 22.7269 L 42.95752 24.48009 L 44.50745 25.87622 L 46.92252 27.00261 L 50.35188 27.9319 L 55.01118 28.72125 "/>
<path transform="matrix(1,0,0,-1,5.311,47.368)" stroke-width=".3985" stroke-linecap="butt" stroke-miterlimit="10" stroke-linejoin="miter" fill="none" stroke="#000000" d="M 6.53085 31.59726 L 11.19016 32.38663 L 14.61952 33.31592 L 17.03458 34.4423 L 18.58452 35.83844 L 19.3715 37.59161 L 19.44243 39.81163 "/>
<path transform="matrix(1,0,0,-1,5.311,47.368)" stroke-width=".3985" stroke-linecap="butt" stroke-miterlimit="10" stroke-linejoin="miter" fill="none" stroke="#000000" d="M 43.9343 25.61543 L 44.84303 27.63983 L 46.63275 29.25195 L 49.42142 30.55261 L 53.38135 31.62566 "/>
<path transform="matrix(1,0,0,-1,5.311,47.368)" stroke-width=".3985" stroke-linecap="butt" stroke-miterlimit="10" stroke-linejoin="miter" fill="none" stroke="#000000" d="M 8.16069 36.76968 L 12.1206 37.84271 L 14.90927 39.14339 L 16.69899 40.7555 L 17.60773 42.7799 "/>
</g>
<text xml:space="preserve" transform="matrix(.625 0 -0 .625 7.5255005 59.827875)" font-size="9.96264" font-family="CMMI10" font-style="italic"><tspan y="-2.075" x="20.068">x</tspan></text>
<text xml:space="preserve" transform="matrix(.625 0 -0 .625 20.578877 58.894876)" font-size="9.96264" font-family="CMMI10" font-style="italic"><tspan y="-4.563" x="54.877">y</tspan></text>
<text xml:space="preserve" transform="matrix(0 -.625 .625 0 21.59225 36.6405)" font-size="9.96264" font-family="CMMI10" font-style="italic"><tspan y="-26.938" x="4.756">z</tspan></text>
</g>
</svg>
