<?xml version="1.0" encoding="UTF-8" standalone="no"?>
<!DOCTYPE svg PUBLIC "-//W3C//DTD SVG 1.1//EN" "http://www.w3.org/Graphics/SVG/1.1/DTD/svg11.dtd">
<svg xmlns="http://www.w3.org/2000/svg" xmlns:xlink="http://www.w3.org/1999/xlink" version="1.1" width="65.406pt" height="60.606pt" viewBox="0 0 65.406 60.606">
<g enable-background="new">
<path transform="matrix(1,0,0,-1,6.957,47.766)" stroke-width=".3985" stroke-linecap="butt" stroke-miterlimit="10" stroke-linejoin="miter" fill="none" stroke="#cbcbcb" d="M 4.89503 -1.52628 L 28.8807 13.73346 M 17.13263 -5.34196 L 41.1183 9.91777 M 29.37021 -9.15767 L 53.3559 6.10207 "/>
<path transform="matrix(1,0,0,-1,6.957,47.766)" stroke-width=".3985" stroke-linecap="butt" stroke-miterlimit="10" stroke-linejoin="miter" fill="none" stroke="#cbcbcb" d="M 3.42651 2.17996 L 37.69177 -8.50398 M 11.99283 7.62987 L 46.25809 -3.05408 M 20.55914 13.07977 L 54.8244 2.39583 "/>
<path transform="matrix(1,0,0,-1,6.957,47.766)" stroke-width=".3985" stroke-linecap="butt" stroke-miterlimit="10" stroke-linejoin="miter" fill="none" stroke="#000000" d="M 0 0 L 34.26526 -10.68394 "/>
<path transform="matrix(1,0,0,-1,6.957,47.766)" stroke-width=".3985" stroke-linecap="butt" stroke-miterlimit="10" stroke-linejoin="miter" fill="none" stroke="#000000" d="M 23.98567 15.25974 L 58.25093 4.57579 "/>
<path transform="matrix(1,0,0,-1,6.957,47.766)" stroke-width=".3985" stroke-linecap="butt" stroke-miterlimit="10" stroke-linejoin="miter" fill="none" stroke="#000000" d="M 0 0 L 23.98567 15.25974 "/>
<path transform="matrix(1,0,0,-1,6.957,47.766)" stroke-width=".3985" stroke-linecap="butt" stroke-miterlimit="10" stroke-linejoin="miter" fill="none" stroke="#000000" d="M 34.26526 -10.68394 L 58.25093 4.57579 "/>
<path transform="matrix(1,0,0,-1,6.957,47.766)" stroke-width=".3985" stroke-linecap="butt" stroke-miterlimit="10" stroke-linejoin="miter" fill="none" stroke="#000000" d="M 23.98567 47.56699 L 58.25093 36.88303 "/>
<path transform="matrix(1,0,0,-1,6.957,47.766)" stroke-width=".3985" stroke-linecap="butt" stroke-miterlimit="10" stroke-linejoin="miter" fill="none" stroke="#000000" d="M 0 32.30724 L 23.98567 47.56699 "/>
<path transform="matrix(1,0,0,-1,6.957,47.766)" stroke-width=".3985" stroke-linecap="butt" stroke-miterlimit="10" stroke-linejoin="miter" fill="none" stroke="#cbcbcb" d="M 3.42651 2.17996 L 3.42651 34.4872 M 11.99283 7.62987 L 11.99283 39.9371 M 20.55914 13.07977 L 20.55914 45.38702 "/>
<path transform="matrix(1,0,0,-1,6.957,47.766)" stroke-width=".3985" stroke-linecap="butt" stroke-miterlimit="10" stroke-linejoin="miter" fill="none" stroke="#cbcbcb" d="M 0 4.61531 L 23.98567 19.87506 M 0 16.15361 L 23.98567 31.41336 M 0 27.69191 L 23.98567 42.95166 "/>
<path transform="matrix(1,0,0,-1,6.957,47.766)" stroke-width=".3985" stroke-linecap="butt" stroke-miterlimit="10" stroke-linejoin="miter" fill="none" stroke="#000000" d="M 0 0 L 0 32.30724 "/>
<path transform="matrix(1,0,0,-1,6.957,47.766)" stroke-width=".3985" stroke-linecap="butt" stroke-miterlimit="10" stroke-linejoin="miter" fill="none" stroke="#000000" d="M 23.98567 15.25974 L 23.98567 47.56699 "/>
<path transform="matrix(1,0,0,-1,6.957,47.766)" stroke-width=".3985" stroke-linecap="butt" stroke-miterlimit="10" stroke-linejoin="miter" fill="none" stroke="#000000" d="M 58.25093 4.57579 L 58.25093 36.88303 "/>
<path transform="matrix(1,0,0,-1,6.957,47.766)" stroke-width=".3985" stroke-linecap="butt" stroke-miterlimit="10" stroke-linejoin="miter" fill="none" stroke="#cbcbcb" d="M 28.8807 13.73346 L 28.8807 46.04071 M 41.1183 9.91777 L 41.1183 42.225 M 53.3559 6.10207 L 53.3559 38.40932 "/>
<path transform="matrix(1,0,0,-1,6.957,47.766)" stroke-width=".3985" stroke-linecap="butt" stroke-miterlimit="10" stroke-linejoin="miter" fill="none" stroke="#cbcbcb" d="M 23.98567 19.87506 L 58.25093 9.1911 M 23.98567 31.41336 L 58.25093 20.72942 M 23.98567 42.95166 L 58.25093 32.26772 "/>
<clipPath id="cp20">
<path transform="matrix(1,0,0,-1,6.957,47.766)" d="M 58.25093 4.57579 L 58.25093 36.88303 L 23.98567 47.56699 L 0 32.30724 L 0 0 L 34.26526 -10.68394 Z "/>
</clipPath>
<g clip-path="url(#cp20)">
<path transform="matrix(1,0,0,-1,6.957,47.766)" stroke-width=".3985" stroke-linecap="butt" stroke-miterlimit="10" stroke-linejoin="miter" fill="none" stroke="#000000" d="M 13.84886 30.38538 L 14.84825 28.27277 L 15.84764 26.42209 L 16.84705 24.8331 L 17.84645 23.50601 L 18.84584 22.44017 L 19.84523 21.63658 L 20.84464 21.0945 L 21.84404 20.81418 L 22.84343 20.79561 L 23.84283 21.03883 L 24.84222 21.54376 L 25.84163 22.31042 L 26.84102 23.33882 L 27.84042 24.62901 L 28.83981 26.18091 L 29.83922 27.99455 L 30.83862 30.06976 L 31.83801 32.40703 L 32.8374 35.00597 L 33.83679 37.86636 L 34.83621 40.98892 L 35.8356 44.37294 "/>
<path transform="matrix(1,0,0,-1,6.957,47.766)" stroke-width=".3985" stroke-linecap="butt" stroke-miterlimit="10" stroke-linejoin="miter" fill="none" stroke="#000000" d="M 11.56448 33.05774 L 12.56389 31.46875 L 13.5633 30.14166 L 14.56268 29.07582 L 15.56207 28.27223 L 16.56148 27.73016 L 17.56088 27.44984 L 18.56027 27.43127 L 19.55968 27.6745 L 20.55907 28.17943 L 21.55847 28.94608 L 22.55786 29.97447 L 23.55727 31.26466 L 24.55666 32.81657 L 25.55606 34.63022 L 26.55547 36.70543 L 27.55486 39.04268 L 28.55424 41.64163 L 29.55363 44.50201 "/>
<path transform="matrix(1,0,0,-1,6.957,47.766)" stroke-width=".3985" stroke-linecap="butt" stroke-miterlimit="10" stroke-linejoin="miter" fill="none" stroke="#000000" d="M 12.27832 37.89984 L 13.27773 37.6195 L 14.27711 37.60095 L 15.27652 37.84418 L 16.27591 38.3491 L 17.27531 39.11577 L 18.2747 40.14417 L 19.27411 41.43434 L 20.2735 42.98627 "/>
<path transform="matrix(1,0,0,-1,6.957,47.766)" stroke-width=".79701" stroke-linecap="butt" stroke-miterlimit="10" stroke-linejoin="miter" fill="none" stroke="#008060" d="M 18.13202 27.28307 L 19.13141 25.17047 L 20.1308 23.31978 L 21.1302 21.73079 L 22.12961 20.4037 L 23.129 19.33784 L 24.12839 18.53427 L 25.12779 17.9922 L 26.1272 17.71187 L 27.12659 17.6933 L 28.12599 17.93654 L 29.12538 18.44147 L 30.12479 19.20811 L 31.12418 20.23651 L 32.12358 21.52669 L 33.12297 23.07861 L 34.12238 24.89224 L 35.12178 26.96745 L 36.12117 29.3047 L 37.12056 31.90367 L 38.11995 34.76405 L 39.11937 37.88661 L 40.11876 41.27063 "/>
<path transform="matrix(1,0,0,-1,6.957,47.766)" stroke-width=".3985" stroke-linecap="butt" stroke-miterlimit="10" stroke-linejoin="miter" fill="none" stroke="#000000" d="M 22.41518 27.71439 L 23.41457 25.60178 L 24.41396 23.75111 L 25.41336 22.16211 L 26.41277 20.83502 L 27.41216 19.76918 L 28.41154 18.9656 L 29.41095 18.42351 L 30.41035 18.14319 L 31.40974 18.12463 L 32.40915 18.36784 L 33.40854 18.87277 L 34.40794 19.63945 L 35.40733 20.66783 L 36.40674 21.95802 L 37.40613 23.50993 L 38.40553 25.32356 L 39.40494 27.39877 L 40.40433 29.73604 L 41.40372 32.33498 L 42.4031 35.19537 L 43.40253 38.31793 L 44.40192 41.70195 "/>
<path transform="matrix(1,0,0,-1,6.957,47.766)" stroke-width=".3985" stroke-linecap="butt" stroke-miterlimit="10" stroke-linejoin="miter" fill="none" stroke="#000000" d="M 28.69711 27.71577 L 29.69652 26.12679 L 30.69592 24.7997 L 31.69531 23.73386 L 32.6947 22.93027 L 33.6941 22.38818 L 34.69351 22.10786 L 35.6929 22.08931 L 36.6923 22.33252 L 37.6917 22.83745 L 38.6911 23.60411 L 39.69049 24.6325 L 40.6899 25.9227 L 41.68929 27.47461 L 42.68869 29.28824 L 43.6881 31.36345 L 44.68748 33.70071 L 45.68687 36.29965 L 46.68626 39.16005 "/>
<path transform="matrix(1,0,0,-1,6.957,47.766)" stroke-width=".3985" stroke-linecap="butt" stroke-miterlimit="10" stroke-linejoin="miter" fill="none" stroke="#000000" d="M 37.97726 29.88689 L 38.97667 29.60655 L 39.97606 29.58798 L 40.97546 29.8312 L 41.97485 30.33615 L 42.97426 31.1028 L 43.97365 32.1312 L 44.97305 33.42137 L 45.97244 34.9733 "/>
</g>
<text xml:space="preserve" transform="matrix(.625 0 -0 .625 7.5255005 59.827875)" font-size="9.96264" font-family="CMMI10" font-style="italic"><tspan y="-2.075" x="20.068">x</tspan></text>
<text xml:space="preserve" transform="matrix(.625 0 -0 .625 20.578873 58.894876)" font-size="9.96264" font-family="CMMI10" font-style="italic"><tspan y="-4.563" x="54.877">y</tspan></text>
<text xml:space="preserve" transform="matrix(0 -.625 .625 0 21.59225 36.6405)" font-size="9.96264" font-family="CMMI10" font-style="italic"><tspan y="-26.938" x="4.756">z</tspan></text>
</g>
</svg>
