<?xml version="1.0" encoding="UTF-8" standalone="no"?>
<!DOCTYPE svg PUBLIC "-//W3C//DTD SVG 1.1//EN" "http://www.w3.org/Graphics/SVG/1.1/DTD/svg11.dtd">
<svg xmlns="http://www.w3.org/2000/svg" xmlns:xlink="http://www.w3.org/1999/xlink" version="1.1" width="65.406pt" height="60.606pt" viewBox="0 0 65.406 60.606">
<g enable-background="new">
<path transform="matrix(1,0,0,-1,6.957,50.065999)" stroke-width=".3985" stroke-linecap="butt" stroke-miterlimit="10" stroke-linejoin="miter" fill="none" stroke="#cbcbcb" d="M 4.89503 .77351 L 28.8807 16.03326 M 17.13263 -3.04216 L 41.1183 12.21756 M 29.37021 -6.85786 L 53.3559 8.40187 "/>
<path transform="matrix(1,0,0,-1,6.957,50.065999)" stroke-width=".3985" stroke-linecap="butt" stroke-miterlimit="10" stroke-linejoin="miter" fill="none" stroke="#cbcbcb" d="M 3.42651 4.47975 L 37.69177 -6.20418 M 11.99283 9.92967 L 46.25809 -.75427 M 20.55914 15.37958 L 54.8244 4.69562 "/>
<path transform="matrix(1,0,0,-1,6.957,50.065999)" stroke-width=".3985" stroke-linecap="butt" stroke-miterlimit="10" stroke-linejoin="miter" fill="none" stroke="#000000" d="M 0 2.29979 L 34.26526 -8.38414 "/>
<path transform="matrix(1,0,0,-1,6.957,50.065999)" stroke-width=".3985" stroke-linecap="butt" stroke-miterlimit="10" stroke-linejoin="miter" fill="none" stroke="#000000" d="M 23.98567 17.55954 L 58.25093 6.8756 "/>
<path transform="matrix(1,0,0,-1,6.957,50.065999)" stroke-width=".3985" stroke-linecap="butt" stroke-miterlimit="10" stroke-linejoin="miter" fill="none" stroke="#000000" d="M 0 2.29979 L 23.98567 17.55954 "/>
<path transform="matrix(1,0,0,-1,6.957,50.065999)" stroke-width=".3985" stroke-linecap="butt" stroke-miterlimit="10" stroke-linejoin="miter" fill="none" stroke="#000000" d="M 34.26526 -8.38414 L 58.25093 6.8756 "/>
<path transform="matrix(1,0,0,-1,6.957,50.065999)" stroke-width=".3985" stroke-linecap="butt" stroke-miterlimit="10" stroke-linejoin="miter" fill="none" stroke="#000000" d="M 23.98567 49.86679 L 58.25093 39.18283 "/>
<path transform="matrix(1,0,0,-1,6.957,50.065999)" stroke-width=".3985" stroke-linecap="butt" stroke-miterlimit="10" stroke-linejoin="miter" fill="none" stroke="#000000" d="M 0 34.60704 L 23.98567 49.86679 "/>
<path transform="matrix(1,0,0,-1,6.957,50.065999)" stroke-width=".3985" stroke-linecap="butt" stroke-miterlimit="10" stroke-linejoin="miter" fill="none" stroke="#cbcbcb" d="M 3.42651 4.47975 L 3.42651 36.787 M 11.99283 9.92967 L 11.99283 42.23691 M 20.55914 15.37958 L 20.55914 47.68681 "/>
<path transform="matrix(1,0,0,-1,6.957,50.065999)" stroke-width=".3985" stroke-linecap="butt" stroke-miterlimit="10" stroke-linejoin="miter" fill="none" stroke="#cbcbcb" d="M 0 6.91512 L 23.98567 22.17487 M 0 18.45341 L 23.98567 33.71317 M 0 29.99171 L 23.98567 45.25146 "/>
<path transform="matrix(1,0,0,-1,6.957,50.065999)" stroke-width=".3985" stroke-linecap="butt" stroke-miterlimit="10" stroke-linejoin="miter" fill="none" stroke="#000000" d="M 0 2.29979 L 0 34.60704 "/>
<path transform="matrix(1,0,0,-1,6.957,50.065999)" stroke-width=".3985" stroke-linecap="butt" stroke-miterlimit="10" stroke-linejoin="miter" fill="none" stroke="#000000" d="M 23.98567 17.55954 L 23.98567 49.86679 "/>
<path transform="matrix(1,0,0,-1,6.957,50.065999)" stroke-width=".3985" stroke-linecap="butt" stroke-miterlimit="10" stroke-linejoin="miter" fill="none" stroke="#000000" d="M 58.25093 6.8756 L 58.25093 39.18283 "/>
<path transform="matrix(1,0,0,-1,6.957,50.065999)" stroke-width=".3985" stroke-linecap="butt" stroke-miterlimit="10" stroke-linejoin="miter" fill="none" stroke="#cbcbcb" d="M 28.8807 16.03326 L 28.8807 48.3405 M 41.1183 12.21756 L 41.1183 44.52481 M 53.3559 8.40187 L 53.3559 40.7091 "/>
<path transform="matrix(1,0,0,-1,6.957,50.065999)" stroke-width=".3985" stroke-linecap="butt" stroke-miterlimit="10" stroke-linejoin="miter" fill="none" stroke="#cbcbcb" d="M 23.98567 22.17487 L 58.25093 11.4909 M 23.98567 33.71317 L 58.25093 23.0292 M 23.98567 45.25146 L 58.25093 34.56752 "/>
<clipPath id="cp25">
<path transform="matrix(1,0,0,-1,6.957,50.065999)" d="M 58.25093 6.8756 L 58.25093 39.18283 L 23.98567 49.86679 L 0 34.60704 L 0 2.29979 L 34.26526 -8.38414 Z "/>
</clipPath>
<g clip-path="url(#cp25)">
<path transform="matrix(1,0,0,-1,6.957,50.065999)" stroke-width=".3985" stroke-linecap="butt" stroke-miterlimit="10" stroke-linejoin="miter" fill="none" stroke="#000000" d="M 14.84825 -2.73485 L 15.84764 1.63106 L 16.84705 5.60445 L 17.84645 9.1846 L 18.84584 12.3727 L 19.84523 15.16763 L 20.84464 17.5703 L 21.84404 19.58029 L 22.84343 21.19768 L 23.84283 22.42244 L 24.84222 23.2546 L 25.84163 23.69414 L 26.84102 23.74107 L 27.84042 23.39536 L 28.83981 22.65706 L 29.83922 21.52611 L 30.83862 20.00276 L 31.83801 18.08653 L 32.8374 15.77779 L 33.83679 13.07625 L 34.83621 9.98244 "/>
<path transform="matrix(1,0,0,-1,6.957,50.065999)" stroke-width=".3985" stroke-linecap="butt" stroke-miterlimit="10" stroke-linejoin="miter" fill="none" stroke="#000000" d="M 10.5651 2.13412 L 11.56448 6.50005 L 12.56389 10.47343 L 13.5633 14.05359 L 14.56268 17.24168 L 15.56207 20.03662 L 16.56148 22.43929 L 17.56088 24.44928 L 18.56027 26.06665 L 19.55968 27.29143 L 20.55907 28.12358 L 21.55847 28.56311 L 22.55786 28.61006 L 23.55727 28.26433 L 24.55666 27.52603 L 25.55606 26.39508 L 26.55547 24.87173 L 27.55486 22.95552 L 28.55424 20.64677 L 29.55363 17.94524 L 30.55305 14.85141 "/>
<path transform="matrix(1,0,0,-1,6.957,50.065999)" stroke-width=".3985" stroke-linecap="butt" stroke-miterlimit="10" stroke-linejoin="miter" fill="none" stroke="#000000" d="M 4.28316 -.54997 L 5.28255 4.601 L 6.28194 9.35898 L 7.28133 13.72491 L 8.28073 17.6983 L 9.28014 21.27846 L 10.27953 24.46655 L 11.27892 27.26149 L 12.27832 29.66414 L 13.27773 31.67415 L 14.27711 33.29153 L 15.27652 34.5163 L 16.27591 35.34845 L 17.27531 35.788 L 18.2747 35.83493 L 19.27411 35.48921 L 20.2735 34.75092 L 21.2729 33.61996 L 22.27231 32.09662 L 23.2717 30.18039 L 24.27109 27.87163 L 25.27048 25.1701 L 26.2699 22.0763 L 27.26929 18.58948 L 28.26868 14.71037 "/>
<path transform="matrix(1,0,0,-1,6.957,50.065999)" stroke-width=".3985" stroke-linecap="butt" stroke-miterlimit="10" stroke-linejoin="miter" fill="none" stroke="#000000" d="M 0 9.03079 L .99939 14.18176 L 1.99878 18.93976 L 2.99817 23.30568 L 3.99757 27.27908 L 4.99698 30.85922 L 5.99637 34.04732 L 6.99576 36.84225 L 7.99516 39.24492 L 8.99457 41.25491 L 9.99396 42.8723 M 13.99155 45.4157 L 14.99095 45.06996 L 15.99034 44.33168 L 16.98975 43.20071 L 17.98915 41.67737 L 18.98854 39.76117 L 19.98793 37.45241 L 20.98732 34.75089 L 21.98674 31.65706 L 22.98613 28.17024 L 23.98552 24.29112 "/>
<path transform="matrix(1,0,0,-1,6.957,50.065999)" stroke-width=".79701" stroke-linecap="butt" stroke-miterlimit="10" stroke-linejoin="miter" fill="none" stroke="#008060" d="M 20.1308 -.88225 L 21.1302 3.09113 L 22.12961 6.67128 L 23.129 9.85938 L 24.12839 12.65431 L 25.12779 15.05698 L 26.1272 17.06697 L 27.12659 18.68434 L 28.12599 19.90912 L 29.12538 20.74127 L 30.12479 21.1808 L 31.12418 21.22775 L 32.12358 20.88202 L 33.12297 20.14374 L 34.12238 19.01277 L 35.12178 17.48943 L 36.12117 15.57321 L 37.12056 13.26447 L 38.11995 10.56294 "/>
<path transform="matrix(1,0,0,-1,6.957,50.065999)" stroke-width=".3985" stroke-linecap="butt" stroke-miterlimit="10" stroke-linejoin="miter" fill="none" stroke="#000000" d="M 23.41457 -5.40584 L 24.41396 -1.03992 L 25.41336 2.93346 L 26.41277 6.51361 L 27.41216 9.7017 L 28.41154 12.49664 L 29.41095 14.8993 L 30.41035 16.9093 L 31.40974 18.52669 L 32.40915 19.75145 L 33.40854 20.5836 L 34.40794 21.02315 L 35.40733 21.07008 L 36.40674 20.72437 L 37.40613 19.98607 L 38.40553 18.85512 L 39.40494 17.33177 L 40.40433 15.41554 L 41.40372 13.1068 L 42.4031 10.40526 L 43.40253 7.31145 "/>
<path transform="matrix(1,0,0,-1,6.957,50.065999)" stroke-width=".3985" stroke-linecap="butt" stroke-miterlimit="10" stroke-linejoin="miter" fill="none" stroke="#000000" d="M 27.69772 -3.20784 L 28.69711 1.15807 L 29.69652 5.13147 L 30.69592 8.71161 L 31.69531 11.8997 L 32.6947 14.69466 L 33.6941 17.0973 L 34.69351 19.1073 L 35.6929 20.72469 L 36.6923 21.94945 L 37.6917 22.7816 L 38.6911 23.22113 L 39.69049 23.26808 L 40.6899 22.92236 L 41.68929 22.18405 L 42.68869 21.0531 L 43.6881 19.52975 L 44.68748 17.61356 L 45.68687 15.3048 L 46.68626 12.60327 L 47.68568 9.50945 "/>
<path transform="matrix(1,0,0,-1,6.957,50.065999)" stroke-width=".3985" stroke-linecap="butt" stroke-miterlimit="10" stroke-linejoin="miter" fill="none" stroke="#000000" d="M 29.9821 -8.56293 L 30.98149 -3.41196 L 31.98088 1.34602 L 32.98027 5.71196 L 33.97968 9.68533 L 34.97908 13.2655 L 35.97847 16.4536 L 36.97786 19.24852 L 37.97726 21.65118 L 38.97667 23.6612 L 39.97606 25.27856 L 40.97546 26.50334 L 41.97485 27.3355 L 42.97426 27.77502 L 43.97365 27.82198 L 44.97305 27.47624 L 45.97244 26.73795 L 46.97185 25.607 L 47.97125 24.08365 L 48.97064 22.16742 L 49.97003 19.85867 L 50.96942 17.15715 L 51.96884 14.06332 L 52.96823 10.5765 L 53.96762 6.6974 "/>
<path transform="matrix(1,0,0,-1,6.957,50.065999)" stroke-width=".3985" stroke-linecap="butt" stroke-miterlimit="10" stroke-linejoin="miter" fill="none" stroke="#000000" d="M 34.26526 -1.65315 L 35.26465 3.49782 L 36.26404 8.25581 L 37.26343 12.62172 L 38.26283 16.59512 L 39.26224 20.17526 L 40.26163 23.36337 L 41.26102 26.15831 L 42.26042 28.56097 L 43.25983 30.57095 L 44.25922 32.18834 M 48.2568 34.73174 L 49.25621 34.38602 L 50.2556 33.64774 L 51.255 32.51677 L 52.25441 30.99342 L 53.2538 29.07721 L 54.25319 26.76846 L 55.25258 24.06693 L 56.252 20.97311 L 57.25139 17.4863 L 58.25078 13.60718 "/>
</g>
<text xml:space="preserve" transform="matrix(.625 0 -0 .625 7.5255005 59.827875)" font-size="9.96264" font-family="CMMI10" font-style="italic"><tspan y="-2.075" x="20.068">x</tspan></text>
<text xml:space="preserve" transform="matrix(.625 0 -0 .625 20.578873 58.894876)" font-size="9.96264" font-family="CMMI10" font-style="italic"><tspan y="-4.563" x="54.877">y</tspan></text>
<text xml:space="preserve" transform="matrix(0 -.625 .625 0 21.59225 36.6405)" font-size="9.96264" font-family="CMMI10" font-style="italic"><tspan y="-26.938" x="4.756">z</tspan></text>
</g>
</svg>
