<?xml version="1.0" encoding="UTF-8" standalone="no"?>
<!DOCTYPE svg PUBLIC "-//W3C//DTD SVG 1.1//EN" "http://www.w3.org/Graphics/SVG/1.1/DTD/svg11.dtd">
<svg xmlns="http://www.w3.org/2000/svg" xmlns:xlink="http://www.w3.org/1999/xlink" version="1.1" width="65.44pt" height="60.623pt" viewBox="0 0 65.44 60.623">
<g enable-background="new">
<path transform="matrix(1,0,0,-1,6.957,47.781003)" stroke-width=".3985" stroke-linecap="butt" stroke-miterlimit="10" stroke-linejoin="miter" fill="none" stroke="#cbcbcb" d="M 0 0 L 24.00392 15.27798 M 17.14023 -5.34349 L 41.14415 9.93448 M 34.28046 -10.68698 L 58.28438 4.59099 "/>
<path transform="matrix(1,0,0,-1,6.957,47.781003)" stroke-width=".3985" stroke-linecap="butt" stroke-miterlimit="10" stroke-linejoin="miter" fill="none" stroke="#cbcbcb" d="M 0 0 L 34.28046 -10.68698 M 12.00195 7.63899 L 46.28241 -3.04799 M 24.00392 15.27798 L 58.28438 4.59099 "/>
<path transform="matrix(1,0,0,-1,6.957,47.781003)" stroke-width=".3985" stroke-linecap="butt" stroke-miterlimit="10" stroke-linejoin="miter" fill="none" stroke="#000000" d="M 0 0 L 34.28046 -10.68698 "/>
<path transform="matrix(1,0,0,-1,6.957,47.781003)" stroke-width=".3985" stroke-linecap="butt" stroke-miterlimit="10" stroke-linejoin="miter" fill="none" stroke="#000000" d="M 24.00392 15.27798 L 58.28438 4.59099 "/>
<path transform="matrix(1,0,0,-1,6.957,47.781003)" stroke-width=".3985" stroke-linecap="butt" stroke-miterlimit="10" stroke-linejoin="miter" fill="none" stroke="#000000" d="M 0 0 L 24.00392 15.27798 "/>
<path transform="matrix(1,0,0,-1,6.957,47.781003)" stroke-width=".3985" stroke-linecap="butt" stroke-miterlimit="10" stroke-linejoin="miter" fill="none" stroke="#000000" d="M 34.28046 -10.68698 L 58.28438 4.59099 "/>
<path transform="matrix(1,0,0,-1,6.957,47.781003)" stroke-width=".3985" stroke-linecap="butt" stroke-miterlimit="10" stroke-linejoin="miter" fill="none" stroke="#000000" d="M 24.00392 47.58218 L 58.28438 36.89519 "/>
<path transform="matrix(1,0,0,-1,6.957,47.781003)" stroke-width=".3985" stroke-linecap="butt" stroke-miterlimit="10" stroke-linejoin="miter" fill="none" stroke="#000000" d="M 0 32.3042 L 24.00392 47.58218 "/>
<path transform="matrix(1,0,0,-1,6.957,47.781003)" stroke-width=".3985" stroke-linecap="butt" stroke-miterlimit="10" stroke-linejoin="miter" fill="none" stroke="#cbcbcb" d="M 0 0 L 0 32.3042 M 12.00195 7.63899 L 12.00195 39.94319 M 24.00392 15.27798 L 24.00392 47.58218 "/>
<path transform="matrix(1,0,0,-1,6.957,47.781003)" stroke-width=".3985" stroke-linecap="butt" stroke-miterlimit="10" stroke-linejoin="miter" fill="none" stroke="#cbcbcb" d="M 0 0 L 24.00392 15.27798 M 0 16.1521 L 24.00392 31.43008 M 0 32.3042 L 24.00392 47.58218 "/>
<path transform="matrix(1,0,0,-1,6.957,47.781003)" stroke-width=".3985" stroke-linecap="butt" stroke-miterlimit="10" stroke-linejoin="miter" fill="none" stroke="#000000" d="M 0 0 L 0 32.3042 "/>
<path transform="matrix(1,0,0,-1,6.957,47.781003)" stroke-width=".3985" stroke-linecap="butt" stroke-miterlimit="10" stroke-linejoin="miter" fill="none" stroke="#000000" d="M 24.00392 15.27798 L 24.00392 47.58218 "/>
<path transform="matrix(1,0,0,-1,6.957,47.781003)" stroke-width=".3985" stroke-linecap="butt" stroke-miterlimit="10" stroke-linejoin="miter" fill="none" stroke="#000000" d="M 58.28438 4.59099 L 58.28438 36.89519 "/>
<path transform="matrix(1,0,0,-1,6.957,47.781003)" stroke-width=".3985" stroke-linecap="butt" stroke-miterlimit="10" stroke-linejoin="miter" fill="none" stroke="#cbcbcb" d="M 24.00392 15.27798 L 24.00392 47.58218 M 41.14415 9.93448 L 41.14415 42.2387 M 58.28438 4.59099 L 58.28438 36.89519 "/>
<path transform="matrix(1,0,0,-1,6.957,47.781003)" stroke-width=".3985" stroke-linecap="butt" stroke-miterlimit="10" stroke-linejoin="miter" fill="none" stroke="#cbcbcb" d="M 24.00392 15.27798 L 58.28438 4.59099 M 24.00392 31.43008 L 58.28438 20.74309 M 24.00392 47.58218 L 58.28438 36.89519 "/>
<clipPath id="cp0">
<path transform="matrix(1,0,0,-1,6.957,47.781003)" d="M 58.28438 4.59099 L 58.28438 36.89519 L 24.00392 47.58218 L 0 32.3042 L 0 0 L 34.28046 -10.68698 Z "/>
</clipPath>
<g clip-path="url(#cp0)">
<path transform="matrix(1,0,0,-1,6.957,47.781003)" stroke-width=".3985" stroke-linecap="butt" stroke-miterlimit="10" stroke-linejoin="miter" fill="none" stroke="#000000" d="M 36.30449 12.23618 L 38.04462 11.46227 L 39.17828 10.43057 L 39.62814 9.21138 L 39.36392 7.88785 L 38.40324 6.55013 L 36.81168 5.28938 L 34.69777 4.19153 L 32.2055 3.3314 L 29.5047 2.76767 L 26.77946 2.53854 L 24.21555 2.65987 L 21.98764 3.1233 L 20.24753 3.8972 L 19.11386 4.9289 L 18.664 6.1481 L 18.92822 7.47163 L 19.88889 8.80934 L 21.48047 10.07008 L 23.59438 11.16794 L 26.08665 12.02808 L 28.78745 12.59181 L 31.51268 12.82092 L 34.0766 12.6996 L 36.30449 12.23618 "/>
<path transform="matrix(1,0,0,-1,6.957,47.781003)" stroke-width=".3985" stroke-linecap="butt" stroke-miterlimit="10" stroke-linejoin="miter" fill="none" stroke="#000000" d="M 38.20093 18.82642 L 40.40205 17.84747 L 41.83603 16.54247 L 42.40508 15.00027 L 42.07086 13.32611 L 40.85568 11.63399 L 38.84247 10.03926 L 36.16852 8.65056 L 33.016 7.56256 L 29.5997 6.84947 L 26.1525 6.55966 L 22.90935 6.7131 L 20.09122 7.29932 L 17.8901 8.27826 L 16.4561 9.58325 L 15.88707 11.12546 L 16.22128 12.79964 L 17.43646 14.49173 L 19.44968 16.08647 L 22.12361 17.47519 L 25.27612 18.56317 L 28.69243 19.27626 L 32.13965 19.56607 L 35.38281 19.41261 L 38.20093 18.82642 "/>
<path transform="matrix(1,0,0,-1,6.957,47.781003)" stroke-width=".3985" stroke-linecap="butt" stroke-miterlimit="10" stroke-linejoin="miter" fill="none" stroke="#000000" d="M 38.75018 24.55922 L 41.08481 23.5209 L 42.6058 22.13673 L 43.20935 20.50099 L 42.85487 18.72527 L 41.56596 16.93051 L 39.43063 15.23904 L 36.59451 13.7661 L 33.25076 12.61212 L 29.62721 11.85577 L 25.97092 11.54837 L 22.53102 11.71114 L 19.54196 12.3329 L 17.20732 13.37122 L 15.68634 14.7554 L 15.0828 16.39113 L 15.43729 18.16685 L 16.72617 19.96161 L 18.86151 21.65306 L 21.69763 23.12602 L 25.0414 24.28 L 28.66492 25.03636 L 32.32124 25.34375 L 35.76111 25.18097 L 38.75018 24.55922 "/>
<path transform="matrix(1,0,0,-1,6.957,47.781003)" stroke-width=".3985" stroke-linecap="butt" stroke-miterlimit="10" stroke-linejoin="miter" fill="none" stroke="#000000" d="M 38.20093 29.5928 L 40.40205 28.61386 L 41.83603 27.30885 L 42.40508 25.76666 L 42.07086 24.0925 L 40.85568 22.40038 L 38.84247 20.80565 L 36.16852 19.41695 L 33.016 18.32895 L 29.5997 17.61586 L 26.1525 17.32605 L 22.90935 17.4795 L 20.09122 18.0657 L 17.8901 19.04463 L 16.4561 20.34966 L 15.88707 21.89185 L 16.22128 23.56601 L 17.43646 25.25812 L 19.44968 26.85286 L 22.12361 28.24156 L 25.27612 29.32956 L 28.69243 30.04265 L 32.13965 30.33246 L 35.38281 30.179 L 38.20093 29.5928 "/>
<path transform="matrix(1,0,0,-1,6.957,47.781003)" stroke-width=".3985" stroke-linecap="butt" stroke-miterlimit="10" stroke-linejoin="miter" fill="none" stroke="#000000" d="M 36.30449 33.76881 L 38.04462 32.99492 L 39.17828 31.96321 L 39.62814 30.74403 L 39.36392 29.42049 L 38.40324 28.08278 L 36.81168 26.82202 L 34.69777 25.72417 L 32.2055 24.86404 L 29.5047 24.30031 L 26.77946 24.0712 L 24.21555 24.1925 L 21.98764 24.65594 L 20.24753 25.42984 L 19.11386 26.46155 L 18.664 27.68074 L 18.92822 29.00427 L 19.88889 30.342 L 21.48047 31.60274 L 23.59438 32.70059 L 26.08665 33.56071 L 28.78745 34.12445 L 31.51268 34.35358 L 34.0766 34.23225 L 36.30449 33.76881 "/>
<path transform="matrix(1,0,0,-1,6.957,47.781003)" d="M 30.69887 34.5997 C 30.69887 35.45943 30.00192 36.15637 29.14218 36.15637 C 28.28246 36.15637 27.5855 35.45943 27.5855 34.5997 C 27.5855 33.73996 28.28246 33.04301 29.14218 33.04301 C 30.00192 33.04301 30.69887 33.73996 30.69887 34.5997 Z M 29.14218 34.5997 "/>
<path transform="matrix(1,0,0,-1,6.957,47.781003)" d="M 30.69887 2.29549 C 30.69887 3.15523 30.00192 3.85217 29.14218 3.85217 C 28.28246 3.85217 27.5855 3.15523 27.5855 2.29549 C 27.5855 1.43576 28.28246 .73882 29.14218 .73882 C 30.00192 .73882 30.69887 1.43576 30.69887 2.29549 Z M 29.14218 2.29549 "/>
</g>
<text xml:space="preserve" transform="matrix(.625 0 -0 .625 7.5284998 59.84488)" font-size="9.96264" font-family="CMMI10" font-style="italic"><tspan y="-2.075" x="20.076">x</tspan></text>
<text xml:space="preserve" transform="matrix(.625 0 -0 .625 20.58825 58.90888)" font-size="9.96264" font-family="CMMI10" font-style="italic"><tspan y="-4.571" x="54.902">y</tspan></text>
<text xml:space="preserve" transform="matrix(0 -.625 .625 0 21.59225 36.6575)" font-size="9.96264" font-family="CMMI10" font-style="italic"><tspan y="-26.938" x="4.756">z</tspan></text>
</g>
</svg>
