<?xml version="1.0" encoding="UTF-8" standalone="no"?>
<!DOCTYPE svg PUBLIC "-//W3C//DTD SVG 1.1//EN" "http://www.w3.org/Graphics/SVG/1.1/DTD/svg11.dtd">
<svg xmlns="http://www.w3.org/2000/svg" xmlns:xlink="http://www.w3.org/1999/xlink" version="1.1" width="65.44pt" height="60.623pt" viewBox="0 0 65.44 60.623">
<g enable-background="new">
<path transform="matrix(1,0,0,-1,6.957,47.781003)" stroke-width=".3985" stroke-linecap="butt" stroke-miterlimit="10" stroke-linejoin="miter" fill="none" stroke="#cbcbcb" d="M 0 0 L 24.00392 15.27798 M 17.14023 -5.34349 L 41.14415 9.93448 M 34.28046 -10.68698 L 58.28438 4.59099 "/>
<path transform="matrix(1,0,0,-1,6.957,47.781003)" stroke-width=".3985" stroke-linecap="butt" stroke-miterlimit="10" stroke-linejoin="miter" fill="none" stroke="#cbcbcb" d="M 0 0 L 34.28046 -10.68698 M 12.00195 7.63899 L 46.28241 -3.04799 M 24.00392 15.27798 L 58.28438 4.59099 "/>
<path transform="matrix(1,0,0,-1,6.957,47.781003)" stroke-width=".3985" stroke-linecap="butt" stroke-miterlimit="10" stroke-linejoin="miter" fill="none" stroke="#000000" d="M 0 0 L 34.28046 -10.68698 "/>
<path transform="matrix(1,0,0,-1,6.957,47.781003)" stroke-width=".3985" stroke-linecap="butt" stroke-miterlimit="10" stroke-linejoin="miter" fill="none" stroke="#000000" d="M 24.00392 15.27798 L 58.28438 4.59099 "/>
<path transform="matrix(1,0,0,-1,6.957,47.781003)" stroke-width=".3985" stroke-linecap="butt" stroke-miterlimit="10" stroke-linejoin="miter" fill="none" stroke="#000000" d="M 0 0 L 24.00392 15.27798 "/>
<path transform="matrix(1,0,0,-1,6.957,47.781003)" stroke-width=".3985" stroke-linecap="butt" stroke-miterlimit="10" stroke-linejoin="miter" fill="none" stroke="#000000" d="M 34.28046 -10.68698 L 58.28438 4.59099 "/>
<path transform="matrix(1,0,0,-1,6.957,47.781003)" stroke-width=".3985" stroke-linecap="butt" stroke-miterlimit="10" stroke-linejoin="miter" fill="none" stroke="#000000" d="M 24.00392 47.58218 L 58.28438 36.89519 "/>
<path transform="matrix(1,0,0,-1,6.957,47.781003)" stroke-width=".3985" stroke-linecap="butt" stroke-miterlimit="10" stroke-linejoin="miter" fill="none" stroke="#000000" d="M 0 32.3042 L 24.00392 47.58218 "/>
<path transform="matrix(1,0,0,-1,6.957,47.781003)" stroke-width=".3985" stroke-linecap="butt" stroke-miterlimit="10" stroke-linejoin="miter" fill="none" stroke="#cbcbcb" d="M 0 0 L 0 32.3042 M 12.00195 7.63899 L 12.00195 39.94319 M 24.00392 15.27798 L 24.00392 47.58218 "/>
<path transform="matrix(1,0,0,-1,6.957,47.781003)" stroke-width=".3985" stroke-linecap="butt" stroke-miterlimit="10" stroke-linejoin="miter" fill="none" stroke="#cbcbcb" d="M 0 0 L 24.00392 15.27798 M 0 16.1521 L 24.00392 31.43008 M 0 32.3042 L 24.00392 47.58218 "/>
<path transform="matrix(1,0,0,-1,6.957,47.781003)" stroke-width=".3985" stroke-linecap="butt" stroke-miterlimit="10" stroke-linejoin="miter" fill="none" stroke="#000000" d="M 0 0 L 0 32.3042 "/>
<path transform="matrix(1,0,0,-1,6.957,47.781003)" stroke-width=".3985" stroke-linecap="butt" stroke-miterlimit="10" stroke-linejoin="miter" fill="none" stroke="#000000" d="M 24.00392 15.27798 L 24.00392 47.58218 "/>
<path transform="matrix(1,0,0,-1,6.957,47.781003)" stroke-width=".3985" stroke-linecap="butt" stroke-miterlimit="10" stroke-linejoin="miter" fill="none" stroke="#000000" d="M 58.28438 4.59099 L 58.28438 36.89519 "/>
<path transform="matrix(1,0,0,-1,6.957,47.781003)" stroke-width=".3985" stroke-linecap="butt" stroke-miterlimit="10" stroke-linejoin="miter" fill="none" stroke="#cbcbcb" d="M 24.00392 15.27798 L 24.00392 47.58218 M 41.14415 9.93448 L 41.14415 42.2387 M 58.28438 4.59099 L 58.28438 36.89519 "/>
<path transform="matrix(1,0,0,-1,6.957,47.781003)" stroke-width=".3985" stroke-linecap="butt" stroke-miterlimit="10" stroke-linejoin="miter" fill="none" stroke="#cbcbcb" d="M 24.00392 15.27798 L 58.28438 4.59099 M 24.00392 31.43008 L 58.28438 20.74309 M 24.00392 47.58218 L 58.28438 36.89519 "/>
<clipPath id="cp1">
<path transform="matrix(1,0,0,-1,6.957,47.781003)" d="M 58.28438 4.59099 L 58.28438 36.89519 L 24.00392 47.58218 L 0 32.3042 L 0 0 L 34.28046 -10.68698 Z "/>
</clipPath>
<g clip-path="url(#cp1)">
<path transform="matrix(1,0,0,-1,6.957,47.781003)" stroke-width=".3985" stroke-linecap="butt" stroke-miterlimit="10" stroke-linejoin="miter" fill="none" stroke="#000000" d="M 30.40906 11.98024 L 30.14789 15.17719 L 29.38206 18.31914 L 28.16377 21.19197 L 26.5762 23.60011 L 24.72737 25.37915 L 22.74335 26.40793 L 20.75931 26.6165 L 18.91049 25.99048 L 17.32294 24.57243 L 16.10461 22.45943 L 15.33882 19.79506 L 15.07765 16.76102 L 15.33882 13.56407 L 16.10461 10.42212 L 17.32294 7.5493 L 18.91049 5.14116 L 20.75931 3.36212 L 22.74335 2.33333 L 24.72737 2.12477 L 26.5762 2.75078 L 28.16377 4.16882 L 29.38206 6.28185 L 30.14789 8.9462 L 30.40906 11.98024 "/>
<path transform="matrix(1,0,0,-1,6.957,47.781003)" stroke-width=".3985" stroke-linecap="butt" stroke-miterlimit="10" stroke-linejoin="miter" fill="none" stroke="#000000" d="M 35.64111 13.38474 L 35.31075 17.42856 L 34.34209 21.40285 L 32.80103 25.0367 L 30.79291 28.08276 L 28.45433 30.33308 L 25.9447 31.6344 L 23.43509 31.89821 L 21.09651 31.10635 L 19.0884 29.31267 L 17.54735 26.63991 L 16.57867 23.26973 L 16.24832 19.43195 L 16.57867 15.38814 L 17.54735 11.41385 L 19.0884 7.78 L 21.09651 4.73393 L 23.43509 2.48361 L 25.9447 1.1823 L 28.45433 .91849 L 30.79291 1.71033 L 32.80103 3.50401 L 34.34209 6.17679 L 35.31075 9.54694 L 35.64111 13.38474 "/>
<path transform="matrix(1,0,0,-1,6.957,47.781003)" stroke-width=".3985" stroke-linecap="butt" stroke-miterlimit="10" stroke-linejoin="miter" fill="none" stroke="#000000" d="M 39.43063 15.23904 L 39.08025 19.52817 L 38.05281 23.7435 L 36.41829 27.5978 L 34.28836 30.82863 L 31.80792 33.21545 L 29.14607 34.59572 L 26.48422 34.87552 L 24.0038 34.03564 L 21.87386 32.13316 L 20.23933 29.29825 L 19.2119 25.72366 L 18.86151 21.65306 L 19.2119 17.36397 L 20.23933 13.1486 L 21.87386 9.29431 L 24.0038 6.06348 L 26.48422 3.67667 L 29.14607 2.2964 L 31.80792 2.0166 L 34.28836 2.85648 L 36.41829 4.75896 L 38.05281 7.59387 L 39.08025 11.16846 L 39.43063 15.23904 "/>
<path transform="matrix(1,0,0,-1,6.957,47.781003)" stroke-width=".3985" stroke-linecap="butt" stroke-miterlimit="10" stroke-linejoin="miter" fill="none" stroke="#000000" d="M 42.04382 17.46016 L 41.71347 21.50398 L 40.74481 25.47827 L 39.20375 29.11212 L 37.19563 32.15819 L 34.85706 34.4085 L 32.34743 35.70982 L 29.83781 35.97363 L 27.49924 35.1818 L 25.4911 33.38809 L 23.95007 30.71533 L 22.9814 27.34517 L 22.65105 23.50737 L 22.9814 19.46356 L 23.95007 15.48927 L 25.4911 11.85542 L 27.49924 8.80936 L 29.83781 6.55904 L 32.34743 5.25772 L 34.85706 4.9939 L 37.19563 5.78575 L 39.20375 7.57944 L 40.74481 10.25221 L 41.71347 13.62238 L 42.04382 17.46016 "/>
<path transform="matrix(1,0,0,-1,6.957,47.781003)" stroke-width=".3985" stroke-linecap="butt" stroke-miterlimit="10" stroke-linejoin="miter" fill="none" stroke="#000000" d="M 43.21451 20.1311 L 42.95332 23.32803 L 42.18752 26.47 L 40.96922 29.34282 L 39.38164 31.75095 L 37.53282 33.53 L 35.5488 34.55879 L 33.56476 34.76736 L 31.71594 34.14134 L 30.12839 32.7233 L 28.91006 30.61028 L 28.14427 27.94592 L 27.8831 24.91187 L 28.14427 21.71492 L 28.91006 18.57298 L 30.12839 15.70015 L 31.71594 13.292 L 33.56476 11.51297 L 35.5488 10.48419 L 37.53282 10.27562 L 39.38164 10.90164 L 40.96922 12.31967 L 42.18752 14.4327 L 42.95332 17.09705 L 43.21451 20.1311 "/>
<path transform="matrix(1,0,0,-1,6.957,47.781003)" d="M 40.30043 24.55879 C 40.30043 25.41852 39.60349 26.11548 38.74376 26.11548 C 37.88402 26.11548 37.18707 25.41852 37.18707 24.55879 C 37.18707 23.69905 37.88402 23.0021 38.74376 23.0021 C 39.60349 23.0021 40.30043 23.69905 40.30043 24.55879 Z M 38.74376 24.55879 "/>
<path transform="matrix(1,0,0,-1,6.957,47.781003)" d="M 21.0973 12.3364 C 21.0973 13.19614 20.40034 13.89308 19.54062 13.89308 C 18.68088 13.89308 17.98393 13.19614 17.98393 12.3364 C 17.98393 11.47667 18.68088 10.77971 19.54062 10.77971 C 20.40034 10.77971 21.0973 11.47667 21.0973 12.3364 Z M 19.54062 12.3364 "/>
</g>
<text xml:space="preserve" transform="matrix(.625 0 -0 .625 7.5284998 59.84488)" font-size="9.96264" font-family="CMMI10" font-style="italic"><tspan y="-2.075" x="20.076">x</tspan></text>
<text xml:space="preserve" transform="matrix(.625 0 -0 .625 20.58825 58.90888)" font-size="9.96264" font-family="CMMI10" font-style="italic"><tspan y="-4.571" x="54.902">y</tspan></text>
<text xml:space="preserve" transform="matrix(0 -.625 .625 0 21.59225 36.6575)" font-size="9.96264" font-family="CMMI10" font-style="italic"><tspan y="-26.938" x="4.756">z</tspan></text>
</g>
</svg>
