<?xml version="1.0" encoding="UTF-8" standalone="no"?>
<!DOCTYPE svg PUBLIC "-//W3C//DTD SVG 1.1//EN" "http://www.w3.org/Graphics/SVG/1.1/DTD/svg11.dtd">
<svg xmlns="http://www.w3.org/2000/svg" xmlns:xlink="http://www.w3.org/1999/xlink" version="1.1" width="65.44pt" height="60.623pt" viewBox="0 0 65.44 60.623">
<g enable-background="new">
<path transform="matrix(1,0,0,-1,6.957,47.781003)" stroke-width=".3985" stroke-linecap="butt" stroke-miterlimit="10" stroke-linejoin="miter" fill="none" stroke="#cbcbcb" d="M 0 0 L 24.00392 15.27798 M 17.14023 -5.34349 L 41.14415 9.93448 M 34.28046 -10.68698 L 58.28438 4.59099 "/>
<path transform="matrix(1,0,0,-1,6.957,47.781003)" stroke-width=".3985" stroke-linecap="butt" stroke-miterlimit="10" stroke-linejoin="miter" fill="none" stroke="#cbcbcb" d="M 0 0 L 34.28046 -10.68698 M 12.00195 7.63899 L 46.28241 -3.04799 M 24.00392 15.27798 L 58.28438 4.59099 "/>
<path transform="matrix(1,0,0,-1,6.957,47.781003)" stroke-width=".3985" stroke-linecap="butt" stroke-miterlimit="10" stroke-linejoin="miter" fill="none" stroke="#000000" d="M 0 0 L 34.28046 -10.68698 "/>
<path transform="matrix(1,0,0,-1,6.957,47.781003)" stroke-width=".3985" stroke-linecap="butt" stroke-miterlimit="10" stroke-linejoin="miter" fill="none" stroke="#000000" d="M 24.00392 15.27798 L 58.28438 4.59099 "/>
<path transform="matrix(1,0,0,-1,6.957,47.781003)" stroke-width=".3985" stroke-linecap="butt" stroke-miterlimit="10" stroke-linejoin="miter" fill="none" stroke="#000000" d="M 0 0 L 24.00392 15.27798 "/>
<path transform="matrix(1,0,0,-1,6.957,47.781003)" stroke-width=".3985" stroke-linecap="butt" stroke-miterlimit="10" stroke-linejoin="miter" fill="none" stroke="#000000" d="M 34.28046 -10.68698 L 58.28438 4.59099 "/>
<path transform="matrix(1,0,0,-1,6.957,47.781003)" stroke-width=".3985" stroke-linecap="butt" stroke-miterlimit="10" stroke-linejoin="miter" fill="none" stroke="#000000" d="M 24.00392 47.58218 L 58.28438 36.89519 "/>
<path transform="matrix(1,0,0,-1,6.957,47.781003)" stroke-width=".3985" stroke-linecap="butt" stroke-miterlimit="10" stroke-linejoin="miter" fill="none" stroke="#000000" d="M 0 32.3042 L 24.00392 47.58218 "/>
<path transform="matrix(1,0,0,-1,6.957,47.781003)" stroke-width=".3985" stroke-linecap="butt" stroke-miterlimit="10" stroke-linejoin="miter" fill="none" stroke="#cbcbcb" d="M 0 0 L 0 32.3042 M 12.00195 7.63899 L 12.00195 39.94319 M 24.00392 15.27798 L 24.00392 47.58218 "/>
<path transform="matrix(1,0,0,-1,6.957,47.781003)" stroke-width=".3985" stroke-linecap="butt" stroke-miterlimit="10" stroke-linejoin="miter" fill="none" stroke="#cbcbcb" d="M 0 0 L 24.00392 15.27798 M 0 16.1521 L 24.00392 31.43008 M 0 32.3042 L 24.00392 47.58218 "/>
<path transform="matrix(1,0,0,-1,6.957,47.781003)" stroke-width=".3985" stroke-linecap="butt" stroke-miterlimit="10" stroke-linejoin="miter" fill="none" stroke="#000000" d="M 0 0 L 0 32.3042 "/>
<path transform="matrix(1,0,0,-1,6.957,47.781003)" stroke-width=".3985" stroke-linecap="butt" stroke-miterlimit="10" stroke-linejoin="miter" fill="none" stroke="#000000" d="M 24.00392 15.27798 L 24.00392 47.58218 "/>
<path transform="matrix(1,0,0,-1,6.957,47.781003)" stroke-width=".3985" stroke-linecap="butt" stroke-miterlimit="10" stroke-linejoin="miter" fill="none" stroke="#000000" d="M 58.28438 4.59099 L 58.28438 36.89519 "/>
<path transform="matrix(1,0,0,-1,6.957,47.781003)" stroke-width=".3985" stroke-linecap="butt" stroke-miterlimit="10" stroke-linejoin="miter" fill="none" stroke="#cbcbcb" d="M 24.00392 15.27798 L 24.00392 47.58218 M 41.14415 9.93448 L 41.14415 42.2387 M 58.28438 4.59099 L 58.28438 36.89519 "/>
<path transform="matrix(1,0,0,-1,6.957,47.781003)" stroke-width=".3985" stroke-linecap="butt" stroke-miterlimit="10" stroke-linejoin="miter" fill="none" stroke="#cbcbcb" d="M 24.00392 15.27798 L 58.28438 4.59099 M 24.00392 31.43008 L 58.28438 20.74309 M 24.00392 47.58218 L 58.28438 36.89519 "/>
<clipPath id="cp2">
<path transform="matrix(1,0,0,-1,6.957,47.781003)" d="M 58.28438 4.59099 L 58.28438 36.89519 L 24.00392 47.58218 L 0 32.3042 L 0 0 L 34.28046 -10.68698 Z "/>
</clipPath>
<g clip-path="url(#cp2)">
<path transform="matrix(1,0,0,-1,6.957,47.781003)" stroke-width=".3985" stroke-linecap="butt" stroke-miterlimit="10" stroke-linejoin="miter" fill="none" stroke="#000000" d="M 22.28969 32.6212 L 24.14244 33.39041 L 25.86891 33.2868 L 27.35141 32.3174 L 28.4891 30.54866 L 29.20422 28.10072 L 29.4481 25.1405 L 29.20422 21.86981 L 28.4891 18.51152 L 27.35141 15.29446 L 25.86891 12.43776 L 24.14244 10.13634 L 22.28969 8.54692 L 20.43695 7.77774 L 18.71048 7.88132 L 17.22797 8.85075 L 16.09029 10.61949 L 15.37517 13.06741 L 15.13127 16.02763 L 15.37517 19.29832 L 16.09029 22.65663 L 17.22797 25.87367 L 18.71048 28.73038 L 20.43695 31.0318 L 22.28969 32.6212 "/>
<path transform="matrix(1,0,0,-1,6.957,47.781003)" stroke-width=".3985" stroke-linecap="butt" stroke-miterlimit="10" stroke-linejoin="miter" fill="none" stroke="#000000" d="M 25.71788 34.74112 L 28.06146 35.71408 L 30.2453 35.58305 L 32.12057 34.35681 L 33.55965 32.11949 L 34.46423 29.02304 L 34.77274 25.2786 L 34.46423 21.14143 L 33.55965 16.89343 L 32.12057 12.82413 L 30.2453 9.21062 L 28.06146 6.29948 L 25.71788 4.28902 L 23.37431 3.31604 L 21.19046 3.44707 L 19.3152 4.67332 L 17.8761 6.91063 L 16.97153 10.00708 L 16.66304 13.75153 L 16.97153 17.88869 L 17.8761 22.13669 L 19.3152 26.206 L 21.19046 29.8195 L 23.37431 32.73064 L 25.71788 34.74112 "/>
<path transform="matrix(1,0,0,-1,6.957,47.781003)" stroke-width=".3985" stroke-linecap="butt" stroke-miterlimit="10" stroke-linejoin="miter" fill="none" stroke="#000000" d="M 29.14607 34.59572 L 31.6318 35.6277 L 33.94812 35.48872 L 35.93713 34.18808 L 37.46352 31.81506 L 38.42296 28.53079 L 38.75018 24.55922 L 38.42296 20.17108 L 37.46352 15.6654 L 35.93713 11.34926 L 33.94812 7.51656 L 31.6318 4.42883 L 29.14607 2.2964 L 26.66034 1.26442 L 24.34401 1.40341 L 22.355 2.70403 L 20.82861 5.07706 L 19.86917 8.36133 L 19.54196 12.3329 L 19.86917 16.72102 L 20.82861 21.22672 L 22.355 25.54286 L 24.34401 29.37556 L 26.66034 32.46329 L 29.14607 34.59572 "/>
<path transform="matrix(1,0,0,-1,6.957,47.781003)" stroke-width=".3985" stroke-linecap="butt" stroke-miterlimit="10" stroke-linejoin="miter" fill="none" stroke="#000000" d="M 32.57426 32.6031 L 34.91785 33.57607 L 37.10168 33.44504 L 38.97696 32.2188 L 40.41603 29.98149 L 41.32062 26.88504 L 41.6291 23.1406 L 41.32062 19.00342 L 40.41603 14.75543 L 38.97696 10.68611 L 37.10168 7.0726 L 34.91785 4.16147 L 32.57426 2.151 L 30.23068 1.17804 L 28.04683 1.30907 L 26.17159 2.53531 L 24.73248 4.77263 L 23.82791 7.86906 L 23.51941 11.61351 L 23.82791 15.75069 L 24.73248 19.99869 L 26.17159 24.068 L 28.04683 27.6815 L 30.23068 30.59264 L 32.57426 32.6031 "/>
<path transform="matrix(1,0,0,-1,6.957,47.781003)" stroke-width=".3985" stroke-linecap="butt" stroke-miterlimit="10" stroke-linejoin="miter" fill="none" stroke="#000000" d="M 36.00244 28.34518 L 37.8552 29.11438 L 39.58165 29.01079 L 41.06416 28.04137 L 42.20186 26.27263 L 42.91699 23.8247 L 43.16087 20.8645 L 42.91699 17.5938 L 42.20186 14.23549 L 41.06416 11.01845 L 39.58165 8.16174 L 37.8552 5.8603 L 36.00244 4.27092 L 34.1497 3.50172 L 32.42325 3.60532 L 30.94073 4.57472 L 29.80304 6.34346 L 29.08792 8.79138 L 28.84402 11.7516 L 29.08792 15.0223 L 29.80304 18.38062 L 30.94073 21.59766 L 32.42325 24.45435 L 34.1497 26.75578 L 36.00244 28.34518 "/>
<path transform="matrix(1,0,0,-1,6.957,47.781003)" d="M 40.983 15.2415 C 40.983 16.10123 40.28606 16.79817 39.42633 16.79817 C 38.56659 16.79817 37.86964 16.10123 37.86964 15.2415 C 37.86964 14.38176 38.56659 13.68481 39.42633 13.68481 C 40.28606 13.68481 40.983 14.38176 40.983 15.2415 Z M 39.42633 15.2415 "/>
<path transform="matrix(1,0,0,-1,6.957,47.781003)" d="M 20.41473 21.65369 C 20.41473 22.51343 19.71777 23.21037 18.85805 23.21037 C 17.9983 23.21037 17.30136 22.51343 17.30136 21.65369 C 17.30136 20.79396 17.9983 20.09702 18.85805 20.09702 C 19.71777 20.09702 20.41473 20.79396 20.41473 21.65369 Z M 18.85805 21.65369 "/>
</g>
<text xml:space="preserve" transform="matrix(.625 0 -0 .625 7.5284998 59.84488)" font-size="9.96264" font-family="CMMI10" font-style="italic"><tspan y="-2.075" x="20.076">x</tspan></text>
<text xml:space="preserve" transform="matrix(.625 0 -0 .625 20.58825 58.90888)" font-size="9.96264" font-family="CMMI10" font-style="italic"><tspan y="-4.571" x="54.902">y</tspan></text>
<text xml:space="preserve" transform="matrix(0 -.625 .625 0 21.59225 36.6575)" font-size="9.96264" font-family="CMMI10" font-style="italic"><tspan y="-26.938" x="4.756">z</tspan></text>
</g>
</svg>
